<svg width="62" height="18" viewBox="0 0 62 18" fill="none" xmlns="http://www.w3.org/2000/svg">
<path d="M16.7615 4.14062L18.2963 4.14062L18.2963 12.0745L22.9357 12.0745L22.9357 13.5574L16.7615 13.5574L16.7615 4.14062Z" fill="#1E2898"/>
<path d="M27.0872 13.7058C26.564 13.7058 26.1105 13.5946 25.6919 13.4092C25.2733 13.2238 24.8896 12.9643 24.5757 12.6307C24.2617 12.297 24.0176 11.9262 23.8431 11.4443C23.6687 10.9994 23.5641 10.5174 23.5641 10.0355L23.5641 9.99839C23.5641 9.47935 23.6687 8.99739 23.8431 8.5525C24.0176 8.10761 24.2617 7.6998 24.5757 7.36613C24.8896 7.03246 25.2733 6.77294 25.6919 6.5505C26.1105 6.36513 26.5989 6.25391 27.1221 6.25391C27.6453 6.25391 28.0988 6.36513 28.5523 6.5505C28.9709 6.73587 29.3546 6.99539 29.6685 7.32906C29.9825 7.66272 30.2266 8.07054 30.401 8.51543C30.5755 8.96032 30.6801 9.44228 30.6801 9.96132L30.6801 9.99839C30.6801 10.5174 30.5755 10.9623 30.401 11.4072C30.2266 11.8521 29.9825 12.2599 29.6685 12.5936C29.3546 12.9272 28.9709 13.1868 28.5523 13.4092C28.0639 13.5946 27.6104 13.7058 27.0872 13.7058ZM27.1221 12.297C27.436 12.297 27.7151 12.2228 27.9593 12.1116C28.2034 12.0004 28.4127 11.815 28.5872 11.6296C28.7616 11.4072 28.9011 11.1848 29.0057 10.9252C29.1104 10.6657 29.1453 10.3691 29.1453 10.0725L29.1453 10.0355C29.1453 9.73887 29.1104 9.44228 29.0057 9.14569C28.9011 8.88617 28.7616 8.62665 28.5872 8.4042C28.4127 8.18176 28.2034 8.03346 27.9593 7.92224C27.7151 7.81102 27.436 7.73687 27.1221 7.73687C26.8082 7.73687 26.5291 7.81102 26.2849 7.92224C26.0407 8.03346 25.8314 8.21883 25.657 8.4042C25.4826 8.58957 25.3431 8.84909 25.2384 9.10861C25.1338 9.36813 25.0989 9.66472 25.0989 9.99839L25.0989 10.0355C25.0989 10.3321 25.1338 10.6286 25.2384 10.9252C25.3431 11.1848 25.4826 11.4443 25.657 11.6667C25.8314 11.8892 26.0407 12.0375 26.2849 12.1487C26.5291 12.2228 26.8082 12.297 27.1221 12.297Z" fill="#1E2898"/>
<path d="M34.6914 15.7058C33.5751 15.7058 32.5984 15.4092 31.6915 14.8531L32.2496 13.6297C32.5984 13.8521 32.9821 14.0375 33.3658 14.1858C33.7495 14.3341 34.1681 14.3711 34.6216 14.3711C35.3192 14.3711 35.8425 14.1858 36.1913 13.815C36.5401 13.4443 36.7494 12.8882 36.7494 12.1838L36.7494 11.6277C36.4704 11.9984 36.1564 12.3321 35.7727 12.5545C35.389 12.814 34.9355 12.9253 34.3774 12.9253C33.9937 12.9253 33.61 12.8511 33.2263 12.7028C32.8775 12.5545 32.5287 12.3321 32.2496 12.0355C31.9705 11.7389 31.7264 11.4052 31.5868 10.9974C31.4124 10.5896 31.3427 10.1076 31.3427 9.58859L31.3427 9.55151C31.3427 9.03248 31.4124 8.55051 31.5868 8.1427C31.7612 7.73488 31.9705 7.36414 32.2496 7.10462C32.5287 6.80803 32.8426 6.62266 33.2263 6.43729C33.61 6.28899 33.9588 6.21484 34.3425 6.21484C34.9007 6.21484 35.389 6.32607 35.7378 6.58558C36.1215 6.80803 36.4355 7.10462 36.6797 7.43829L36.6797 6.36314L38.2145 6.36314L38.2145 11.9984C38.2145 13.1848 37.9354 14.0746 37.3773 14.6677C37.0634 15.0014 36.6797 15.2239 36.2262 15.3721C35.8425 15.6317 35.2844 15.7058 34.6914 15.7058ZM34.796 11.5906C35.0402 11.5906 35.3192 11.5535 35.5634 11.4423C35.8076 11.3311 36.0169 11.2198 36.1913 11.0345C36.3657 10.8491 36.5052 10.6637 36.6099 10.4042C36.7145 10.1818 36.7843 9.92225 36.7843 9.62566L36.7843 9.58859C36.7843 9.29199 36.7145 9.03248 36.6099 8.77296C36.5052 8.55051 36.3657 8.32807 36.1913 8.1427C36.0169 7.95733 35.8076 7.8461 35.5634 7.73488C35.3192 7.62366 35.0751 7.58659 34.796 7.58659C34.5169 7.58659 34.2728 7.62366 34.0635 7.73488C33.8193 7.8461 33.6449 7.95733 33.4705 8.1427C33.2961 8.32807 33.1565 8.51344 33.0519 8.77296C32.9472 8.9954 32.9124 9.29199 32.9124 9.58859L32.9124 9.62566C32.9124 9.92225 32.9472 10.1818 33.0519 10.4413C33.1565 10.6637 33.2961 10.8862 33.4705 11.0716C33.6449 11.2569 33.8542 11.3681 34.0635 11.4794C34.3077 11.5535 34.5518 11.5906 34.796 11.5906Z" fill="#1E2898"/>
<path d="M39.7833 6.4375L41.3181 6.4375L41.3181 13.5557L39.7833 13.5557L39.7833 6.4375Z" fill="#1E2898"/>
<path d="M42.7832 6.43928L44.318 6.43928L44.318 7.5515C44.4226 7.36613 44.5622 7.21783 44.6668 7.06954C44.8064 6.92124 44.9459 6.77294 45.1203 6.66172C45.2947 6.5505 45.4691 6.43928 45.6784 6.36513C45.8877 6.29098 46.1319 6.25391 46.3761 6.25391C47.1435 6.25391 47.7016 6.51342 48.1202 6.99539C48.5388 7.47735 48.7481 8.14469 48.7481 8.99739L48.7481 13.5204L47.2132 13.5204L47.2132 9.51643C47.2132 8.96032 47.0737 8.5525 46.8295 8.21883C46.5854 7.92224 46.2365 7.77394 45.7831 7.77394C45.3296 7.77394 44.9808 7.92224 44.7017 8.21883C44.4226 8.51543 44.2831 8.96032 44.2831 9.51643L44.2831 13.5204L42.7483 13.5204L42.7483 6.43928L42.7832 6.43928Z" fill="#1E2898"/>
<path d="M50.5977 4.14062L51.6092 4.14062L51.6092 13.5574L50.5977 13.5574L50.5977 4.14062Z" fill="#1E2898"/>
<path d="M53.4578 4.14062L56.5275 4.14062C59.3181 4.14062 61.2366 6.1797 61.2366 8.81196L61.2366 8.84904C61.2366 11.5184 59.3181 13.5574 56.5275 13.5574L53.4578 13.5574L53.4578 4.14062ZM56.5275 12.5935C58.7599 12.5935 60.1901 10.9623 60.1901 8.88611L60.1901 8.84904C60.1901 6.77289 58.7599 5.10455 56.5275 5.10455L54.4345 5.10455L54.4345 12.5564L56.5275 12.5564L56.5275 12.5935Z" fill="#1E2898"/>
<path d="M39.7125 3.91797L41.352 3.91797L41.352 5.43801L39.7125 5.43801L39.7125 3.91797ZM39.7823 6.51316L41.3171 6.51316L41.3171 13.5202L39.7823 13.5202L39.7823 6.51316Z" fill="#1E2898"/>
<path d="M9.05103 6.36692C9.12079 6.40399 9.22544 6.40399 9.2952 6.36692C9.43473 6.29277 9.5045 6.07032 9.43473 5.92203C8.9115 4.77273 7.83014 4.03125 6.67903 4.03125C5.87673 4.03125 5.10932 4.40199 4.51632 5.03225C3.9582 5.66251 3.60937 6.47814 3.60937 7.36792C3.60937 7.44207 3.64426 7.55329 3.67914 7.59036C3.7489 7.66451 3.81867 7.70159 3.88843 7.70159C4.06285 7.70159 4.20238 7.55329 4.20238 7.36792C4.23726 5.92203 5.35349 4.69858 6.64414 4.69858C7.55108 4.69858 8.38826 5.29177 8.84173 6.21862C8.9115 6.29277 8.98126 6.36692 9.05103 6.36692Z" fill="#1E2898"/>
<path d="M6.71392 14.0074C7.76039 14.0074 8.7371 13.4142 9.29522 12.4502C9.60916 11.9312 9.74869 11.338 9.74869 10.7078L9.74869 7.70476C9.74869 7.51939 9.60916 7.37109 9.43475 7.37109C9.26034 7.37109 9.12081 7.51939 9.12081 7.70476L9.12081 10.7078C9.12081 11.1897 8.98128 11.6717 8.7371 12.1166C8.28363 12.8951 7.51621 13.34 6.67903 13.34C5.31862 13.34 4.23726 12.1537 4.23726 10.7078L4.23726 9.03943C4.23726 8.85406 4.09773 8.70576 3.92332 8.70576C3.7489 8.70576 3.60937 8.85406 3.60937 9.03943L3.60937 10.7078C3.64426 12.5244 5.00467 14.0074 6.71392 14.0074Z" fill="#1E2898"/>
<path d="M2.66768 7.47749C2.66768 7.25505 2.66768 7.0326 2.70256 6.77308C2.73744 6.58771 2.59791 6.40234 2.45838 6.40234L2.4235 6.40234C2.35374 6.40234 2.28397 6.43942 2.24909 6.47649C2.17932 6.51357 2.14444 6.62479 2.10956 6.69894C2.07468 6.95846 2.03979 7.21797 2.03979 7.51457L2.03979 10.74C2.03979 13.4835 4.13274 15.7079 6.67916 15.7079C8.24887 15.7079 9.71393 14.8552 10.5511 13.4464C10.6558 13.2981 10.6209 13.0757 10.4465 12.9645C10.3767 12.9274 10.3069 12.8903 10.2023 12.9274C10.1325 12.9274 10.0628 13.0015 9.99299 13.0757C9.26046 14.2991 8.00469 15.0406 6.64428 15.0406C4.4118 15.0406 2.6328 13.1128 2.6328 10.74L2.6328 7.47749L2.66768 7.47749Z" fill="#1E2898"/>
<path d="M11.284 11.4074C11.3189 11.1849 11.3189 10.9625 11.3189 10.703L11.3189 7.47752C11.3189 6.14285 10.8305 4.84526 9.95848 3.88133C9.08642 2.88033 7.90042 2.32422 6.67953 2.32422C5.14471 2.32422 3.67964 3.17692 2.80758 4.62281C2.70294 4.77111 2.73782 4.99355 2.91223 5.10478C2.98199 5.14185 3.05176 5.17892 3.15641 5.14185C3.22617 5.14185 3.29594 5.0677 3.3657 4.99355C4.13312 3.73303 5.38888 2.99155 6.71442 2.99155C8.91201 2.99155 10.7259 5.03063 10.7259 7.47752L10.7259 10.703C10.7259 10.8883 10.7259 11.1108 10.691 11.2962C10.6561 11.4815 10.7957 11.6669 10.9701 11.6669C11.1096 11.704 11.284 11.5557 11.284 11.4074Z" fill="#1E2898"/>
<path d="M0.78444 10.0008C0.958852 10.0008 1.09838 9.85254 1.09838 9.66717L1.09838 7.51688C1.09838 4.14313 3.6448 1.28843 6.67957 1.28843L6.71445 1.28843C9.47016 1.28843 11.877 3.69824 12.2607 6.73832C12.2607 6.81247 12.3305 6.92369 12.3654 6.96077C12.4352 6.99784 12.5049 7.03491 12.6096 7.03491C12.784 6.99784 12.8886 6.84954 12.8886 6.66417C12.7142 5.03291 11.9817 3.51287 10.8655 2.40065C9.71433 1.25135 8.24927 0.621094 6.74933 0.621094C5.07497 0.621094 3.50527 1.36258 2.31927 2.69724C1.16815 3.99484 0.505381 5.73732 0.505381 7.51688L0.505381 9.66717C0.470499 9.85254 0.610028 10.0008 0.78444 10.0008Z" fill="#1E2898"/>
<path d="M12.6102 8.07031C12.4358 8.07031 12.2963 8.21861 12.2963 8.40398L12.2963 10.6655C12.2963 13.9651 9.78473 16.6715 6.71508 16.6715C3.85472 16.6715 1.44784 14.3729 1.16878 11.2958C1.16878 11.2216 1.13389 11.1104 1.06413 11.0733C0.994365 11.0362 0.9246 10.9992 0.854835 10.9992L0.819953 10.9992C0.750188 10.9992 0.645541 11.0362 0.610658 11.1104C0.540894 11.1845 0.540894 11.2587 0.540894 11.3699C0.715306 13.0012 1.41295 14.5212 2.56407 15.6334C3.71519 16.7457 5.18025 17.3759 6.74996 17.3759C10.1684 17.3759 12.959 14.3729 12.959 10.7026L12.959 8.44105C12.9241 8.21861 12.7846 8.07031 12.6102 8.07031Z" fill="#1E2898"/>
<path d="M6.68048 7.07031C5.87819 7.07031 5.25031 7.77472 5.25031 8.62743C5.25031 8.99817 5.38983 9.36891 5.59913 9.62843L5.63401 9.6655L5.63401 10.6665C5.63401 10.8519 5.77354 11.0002 5.94795 11.0002L6.71536 11.0002L7.48277 11.0002C7.65719 11.0002 7.79671 10.8519 7.79671 10.6665L7.79671 9.6655L7.8316 9.62843C8.07577 9.33183 8.18042 8.99817 8.18042 8.62743C8.11066 7.73765 7.44789 7.07031 6.68048 7.07031ZM7.20372 9.29476C7.20372 9.29476 7.09907 9.36891 7.09907 9.48013C7.09907 9.59135 7.09907 10.3328 7.09907 10.3328L6.6456 10.3328L6.19213 10.3328C6.19213 10.3328 6.19213 9.62843 6.19213 9.48013C6.19213 9.36891 6.12236 9.29476 6.12236 9.29476C5.94795 9.10939 5.8433 8.88694 5.8433 8.62743C5.8433 8.14546 6.22701 7.73765 6.68048 7.73765C7.13395 7.73765 7.51766 8.14546 7.51766 8.62743C7.51766 8.84987 7.41301 9.10939 7.20372 9.29476Z" fill="#1E2898"/>
</svg>
