<svg width="20" height="20" viewBox="0 0 20 20" fill="none" xmlns="http://www.w3.org/2000/svg">
<path d="M15.7969 10.8421C15.8352 10.5742 15.8735 10.3062 15.8735 10C15.8735 9.69378 15.8352 9.42584 15.7969 9.15789L17.5194 7.93301C17.6725 7.81818 17.7491 7.58852 17.6342 7.39713L15.95 4.56459C15.8352 4.37321 15.6438 4.29665 15.4524 4.41148L13.5385 5.29187C13.0792 4.94737 12.6199 4.67943 12.084 4.44976L11.8926 2.3445C11.8543 2.15311 11.7012 2 11.5098 2H8.21797C8.02658 2 7.83519 2.15311 7.83519 2.3445L7.64381 4.44976C7.10792 4.67943 6.61031 4.94737 6.18926 5.29187L4.27539 4.41148C4.084 4.33493 3.85433 4.41148 3.77778 4.56459L2.13184 7.39713C2.01701 7.58852 2.09357 7.81818 2.24668 7.93301L3.96917 9.15789C3.93089 9.42584 3.89261 9.69378 3.89261 10C3.89261 10.3062 3.93089 10.5742 3.96917 10.8421L2.17012 12.067C2.01701 12.1818 1.94046 12.4115 2.05529 12.6029L3.70122 15.4354C3.81606 15.6268 4.00744 15.7033 4.19883 15.5885L6.11271 14.7081C6.57204 15.0526 7.03137 15.3206 7.56725 15.5502L7.75864 17.6555C7.79692 17.8469 7.95003 18 8.14141 18H11.4333C11.6247 18 11.8161 17.8469 11.8161 17.6555L12.0074 15.5502C12.5433 15.3206 13.0409 15.0526 13.462 14.7081L15.3759 15.5885C15.5673 15.6651 15.7969 15.5885 15.8735 15.4354L17.5194 12.6029C17.6342 12.4115 17.5577 12.1818 17.4046 12.067L15.7969 10.8421ZM9.82562 13.8278C7.72036 13.8278 5.99787 12.1053 5.99787 10C5.99787 7.89474 7.72036 6.17225 9.82562 6.17225C11.9309 6.17225 13.6534 7.89474 13.6534 10C13.6534 12.1053 11.9309 13.8278 9.82562 13.8278Z" fill="#615E5E"/>
<path d="M9.82536 5.40625C7.29904 5.40625 5.23206 7.47324 5.23206 9.99955C5.23206 12.5259 7.29904 14.5929 9.82536 14.5929C12.3517 14.5929 14.4187 12.5259 14.4187 9.99955C14.4187 7.47324 12.3517 5.40625 9.82536 5.40625ZM9.82536 11.9134C8.75359 11.9134 7.91148 11.0713 7.91148 9.99955C7.91148 8.92778 8.75359 8.08568 9.82536 8.08568C10.8971 8.08568 11.7392 8.92778 11.7392 9.99955C11.7392 11.0713 10.8971 11.9134 9.82536 11.9134Z" fill="#C4C4C4"/>
</svg>
