<svg width="20" height="20" viewBox="0 0 20 20" fill="none" xmlns="http://www.w3.org/2000/svg">
<g clip-path="url(#clip0_711_43189)">
<path d="M13.876 11.9431C13.8312 12.0106 13.8047 12.0467 13.7821 12.0852C12.9688 13.4838 12.1559 14.8824 11.3434 16.2814C11.0357 16.8111 10.732 17.3434 10.4197 17.8706C10.3864 17.927 10.3096 17.9937 10.2523 17.9941C9.36406 18.002 8.47587 17.9995 7.56186 17.9995C7.78239 17.6164 7.99072 17.2523 8.20084 16.8889C9.18155 15.1958 10.1619 13.5031 11.144 11.8107C11.735 10.7919 12.3295 9.77528 12.9186 8.75543C12.9516 8.69867 12.9807 8.61657 12.9652 8.55838C12.687 7.51175 12.4012 6.46691 12.1057 5.37852C11.9035 5.72442 11.7206 6.03427 11.5399 6.3459C10.9371 7.38467 10.3351 8.42381 9.73268 9.46294C9.01696 10.6977 8.30089 11.9324 7.58517 13.1672C6.67833 14.7314 5.77221 16.296 4.86107 17.8577C4.82557 17.9184 4.74454 17.9927 4.68394 17.9934C3.79969 18.002 2.9158 17.9995 1.99928 17.9995C2.12407 17.7785 2.23702 17.574 2.35427 17.3723C3.50709 15.3865 4.66063 13.4014 5.81345 11.4159C6.8881 9.56467 7.96311 7.71344 9.03668 5.86149C9.7377 4.65244 10.4401 3.44411 11.1318 2.22971C11.2308 2.05729 11.3369 1.99625 11.536 2.00018C12.2051 2.0141 12.8745 2.00839 13.5436 2.00268C13.6677 2.0016 13.715 2.03802 13.7476 2.16046C14.0743 3.39378 14.4114 4.62424 14.7384 5.85721C14.7692 5.97394 14.8158 6.00571 14.9309 6.00499C15.6481 6.00035 16.3652 6.0025 17.082 6.0025H17.3004C17.1781 6.22025 17.0706 6.41658 16.9583 6.61005C16.5141 7.37682 16.0669 8.1418 15.6266 8.91035C15.5968 8.96247 15.5965 9.04636 15.613 9.1074C16.1881 11.2503 16.7679 13.3924 17.3452 15.535C17.5643 16.3478 17.7795 17.162 18 17.988H15.5039C14.9664 15.9912 14.4261 13.9846 13.8764 11.9428L13.876 11.9431Z" fill="#615E5E"/>
</g>
<defs>
<clipPath id="clip0_711_43189">
<rect width="16" height="16" fill="white" transform="translate(2 2)"/>
</clipPath>
</defs>
</svg>
