<svg width="167" height="32" viewBox="0 0 167 32" fill="none" xmlns="http://www.w3.org/2000/svg">
<path d="M3.54731 4.82217C3.54731 2.86238 5.13604 1.27365 7.09583 1.27365H29.4515C31.4113 1.27365 33 2.86238 33 4.82217V27.1778C33 29.1376 31.4113 30.7263 29.4515 30.7263H7.09583C5.13604 30.7263 3.54731 29.1376 3.54731 27.1778V4.82217Z" fill="#286DF5"/>
<path fill-rule="evenodd" clip-rule="evenodd" d="M3.54731 4.82217C3.54731 2.86238 5.13604 1.27365 7.09583 1.27365H29.4515C31.4113 1.27365 33 2.86238 33 4.82217V27.1778C33 29.1376 31.4113 30.7263 29.4515 30.7263H7.09583C5.13604 30.7263 3.54731 29.1376 3.54731 27.1778V23.5622H1.88713C1.39718 23.5622 1 23.165 1 22.675V20.6284C1 20.1385 1.39718 19.7413 1.88713 19.7413H3.54731V12.4179H1.88713C1.39718 12.4179 1 12.0207 1 11.5308V9.48415C1 8.9942 1.39718 8.59702 1.88713 8.59702H3.54731V4.82217ZM2.54731 7.59702V4.82217C2.54731 2.31009 4.58375 0.273651 7.09583 0.273651H29.4515C31.9636 0.273651 34 2.31009 34 4.82217V27.1778C34 29.6899 31.9636 31.7263 29.4515 31.7263H7.09583C4.58375 31.7263 2.54731 29.6899 2.54731 27.1778V24.5622H1.88713C0.844895 24.5622 0 23.7173 0 22.675V20.6284C0 19.5862 0.844898 18.7413 1.88713 18.7413H2.54731V13.4179H1.88713C0.844895 13.4179 0 12.573 0 11.5308V9.48415C0 8.44192 0.844898 7.59702 1.88713 7.59702H2.54731Z" fill="white"/>
<path d="M29.0201 19.0237C29.0201 19.3315 28.7706 19.581 28.4629 19.581C28.1551 19.581 27.9057 19.3315 27.9057 19.0237V12.974C27.9057 12.6663 28.1551 12.4168 28.4629 12.4168C28.7706 12.4168 29.0201 12.6663 29.0201 12.974V19.0237Z" fill="white"/>
<path d="M19.7289 12.9211C19.8155 12.9644 19.9453 12.9644 20.0318 12.9211C20.2049 12.8345 20.2915 12.5749 20.2049 12.4018C19.5558 11.0603 18.2143 10.1948 16.7863 10.1948C15.791 10.1948 14.839 10.6276 14.1033 11.3632C13.4109 12.0989 12.9782 13.0509 12.9782 14.0895C12.9782 14.176 13.0214 14.3059 13.0647 14.3491C13.1513 14.4357 13.2378 14.479 13.3244 14.479C13.5407 14.479 13.7138 14.3059 13.7138 14.0895C13.7571 12.4018 15.1419 10.9738 16.743 10.9738C17.8681 10.9738 18.9067 11.6661 19.4693 12.748C19.5558 12.8345 19.6424 12.9211 19.7289 12.9211Z" fill="white"/>
<path d="M16.8296 21.8334C18.1278 21.8334 19.3394 21.141 20.0318 20.0159C20.4213 19.41 20.5944 18.7177 20.5944 17.982V14.4768C20.5944 14.2604 20.4213 14.0873 20.2049 14.0873C19.9886 14.0873 19.8155 14.2604 19.8155 14.4768V17.982C19.8155 18.5446 19.6424 19.1071 19.3394 19.6264C18.7769 20.5352 17.8249 21.0544 16.7863 21.0544C15.0986 21.0544 13.7571 19.6697 13.7571 17.982V16.0347C13.7571 15.8183 13.584 15.6452 13.3676 15.6452C13.1513 15.6452 12.9782 15.8183 12.9782 16.0347V17.982C13.0214 20.1024 14.7091 21.8334 16.8296 21.8334Z" fill="white"/>
<path d="M11.8088 14.2158C11.8088 13.9561 11.8088 13.6965 11.852 13.3935C11.8953 13.1772 11.7222 12.9608 11.5491 12.9608H11.5058C11.4193 12.9608 11.3327 13.0041 11.2895 13.0474C11.2029 13.0906 11.1596 13.2205 11.1164 13.307C11.0731 13.6099 11.0298 13.9128 11.0298 14.259V18.0239C11.0298 21.2261 13.6263 23.8226 16.7853 23.8226C18.7326 23.8226 20.5501 22.8273 21.5887 21.1829C21.7185 21.0098 21.6752 20.7501 21.4588 20.6203C21.3723 20.577 21.2857 20.5338 21.1559 20.577C21.0694 20.577 20.9828 20.6636 20.8963 20.7501C19.9875 22.1782 18.4297 23.0436 16.742 23.0436C13.9725 23.0436 11.7655 20.7934 11.7655 18.0239V14.2158H11.8088Z" fill="white"/>
<path d="M22.4987 18.8028C22.5419 18.5431 22.5419 18.2835 22.5419 17.9805V14.2157C22.5419 12.6579 21.9361 11.1433 20.8543 10.0181C19.7724 8.84974 18.3011 8.20064 16.7865 8.20064C14.8825 8.20064 13.0649 9.19594 11.9831 10.8836C11.8533 11.0567 11.8965 11.3164 12.1129 11.4462C12.1995 11.4895 12.286 11.5327 12.4158 11.4895C12.5024 11.4895 12.5889 11.4029 12.6755 11.3164C13.6275 9.84505 15.1854 8.97957 16.8298 8.97957C19.556 8.97957 21.8063 11.3596 21.8063 14.2157V17.9805C21.8063 18.1969 21.8063 18.4566 21.763 18.6729C21.7197 18.8893 21.8928 19.1057 22.1092 19.1057C22.2823 19.1489 22.4987 18.9759 22.4987 18.8028Z" fill="white"/>
<path d="M9.47285 17.1595C9.68922 17.1595 9.86231 16.9864 9.86231 16.77V14.2602C9.86231 10.3222 13.0213 6.99013 16.7861 6.99013H16.8294C20.2481 6.99013 23.234 9.80293 23.71 13.3514C23.71 13.4379 23.7965 13.5678 23.8398 13.611C23.9264 13.6543 24.0129 13.6976 24.1427 13.6976C24.3591 13.6543 24.4889 13.4812 24.4889 13.2649C24.2725 11.3608 23.3638 9.58656 21.979 8.28834C20.551 6.94685 18.7335 6.21119 16.8727 6.21119C14.7955 6.21119 12.8482 7.07667 11.3769 8.63454C9.94886 10.1491 9.12666 12.183 9.12666 14.2602V16.77C9.08338 16.9864 9.25648 17.1595 9.47285 17.1595Z" fill="white"/>
<path d="M24.1429 14.9119C23.9266 14.9119 23.7535 15.085 23.7535 15.3013V17.941C23.7535 21.7924 20.6378 24.9514 16.8296 24.9514C13.2812 24.9514 10.2953 22.2684 9.94908 18.6767C9.94908 18.5901 9.90581 18.4603 9.81926 18.417C9.73271 18.3738 9.64617 18.3305 9.55962 18.3305H9.51634C9.4298 18.3305 9.29997 18.3738 9.2567 18.4603C9.17015 18.5469 9.17015 18.6334 9.17015 18.7632C9.38652 20.6673 10.252 22.4415 11.68 23.7397C13.1081 25.038 14.9256 25.7736 16.8729 25.7736C21.1138 25.7736 24.5757 22.2684 24.5757 17.9843V15.3446C24.5324 15.085 24.3593 14.9119 24.1429 14.9119Z" fill="white"/>
<path d="M16.7861 13.7422C15.7908 13.7422 15.0119 14.5644 15.0119 15.5597C15.0119 15.9924 15.185 16.4252 15.4447 16.7281L15.4879 16.7714V17.9398C15.4879 18.1561 15.661 18.3292 15.8774 18.3292H17.7814C17.9978 18.3292 18.1709 18.1561 18.1709 17.9398V16.7714L18.2142 16.7281C18.5171 16.3819 18.6469 15.9924 18.6469 15.5597C18.5604 14.5211 17.7382 13.7422 16.7861 13.7422ZM17.4353 16.3386C17.4353 16.3386 17.3054 16.4252 17.3054 16.555C17.3054 16.6848 17.3054 17.5503 17.3054 17.5503H16.1803C16.1803 17.5503 16.1803 16.7281 16.1803 16.555C16.1803 16.4252 16.0938 16.3386 16.0938 16.3386C15.8774 16.1223 15.7476 15.8626 15.7476 15.5597C15.7476 14.9971 16.2236 14.5211 16.7861 14.5211C17.3487 14.5211 17.8247 14.9971 17.8247 15.5597C17.8247 15.8193 17.6949 16.1223 17.4353 16.3386Z" fill="white"/>
<path fill-rule="evenodd" clip-rule="evenodd" d="M3.54731 12.4179H6.32182C6.81176 12.4179 7.20894 12.0207 7.20894 11.5308V9.48415C7.20894 8.9942 6.81176 8.59702 6.32182 8.59702H3.54731V12.4179Z" fill="#286DF5"/>
<path d="M3.54731 12.4179V8.59702H1.88713C1.39718 8.59702 1 8.9942 1 9.48415V11.5308C1 12.0207 1.39718 12.4179 1.88713 12.4179H3.54731Z" fill="#286DF5"/>
<path fill-rule="evenodd" clip-rule="evenodd" d="M3.54731 23.5622H6.32182C6.81176 23.5622 7.20894 23.165 7.20894 22.675V20.6284C7.20894 20.1385 6.81176 19.7413 6.32182 19.7413H3.54731V23.5622Z" fill="#286DF5"/>
<path d="M3.54731 23.5622V19.7413H1.88713C1.39718 19.7413 1 20.1385 1 20.6284V22.675C1 23.165 1.39718 23.5622 1.88713 23.5622H3.54731Z" fill="#286DF5"/>
<path d="M46 24.544V7.74399H58.024V9.37599H47.848V15.376H54.52V16.984H47.848V24.544H46Z" fill="white"/>
<path d="M60.5781 24.544V7.74399H62.4261V24.544H60.5781Z" fill="white"/>
<path d="M67.9808 22.864H71.7728C72.7488 22.864 73.6528 22.696 74.4848 22.36C75.3168 22.024 76.0448 21.552 76.6688 20.944C77.2928 20.336 77.7728 19.624 78.1088 18.808C78.4608 17.992 78.6368 17.104 78.6368 16.144C78.6368 15.184 78.4608 14.296 78.1088 13.48C77.7728 12.664 77.2928 11.952 76.6688 11.344C76.0448 10.736 75.3168 10.264 74.4848 9.92799C73.6528 9.59199 72.7488 9.42399 71.7728 9.42399H67.9808V22.864ZM66.1328 24.544V7.74399H71.6768C72.9568 7.74399 74.1328 7.95199 75.2048 8.36799C76.2768 8.78399 77.2048 9.368 77.9888 10.12C78.7888 10.872 79.4048 11.76 79.8368 12.784C80.2848 13.808 80.5088 14.928 80.5088 16.144C80.5088 17.36 80.2928 18.48 79.8608 19.504C79.4288 20.528 78.8128 21.416 78.0128 22.168C77.2288 22.92 76.2928 23.504 75.2048 23.92C74.1328 24.336 72.9568 24.544 71.6768 24.544H66.1328Z" fill="white"/>
<path d="M91.2783 24.808C90.0622 24.808 88.9263 24.592 87.8703 24.16C86.8303 23.712 85.9103 23.096 85.1103 22.312C84.3263 21.512 83.7103 20.592 83.2623 19.552C82.8303 18.496 82.6143 17.36 82.6143 16.144C82.6143 14.928 82.8303 13.8 83.2623 12.76C83.7103 11.704 84.3263 10.784 85.1103 9.99999C85.9103 9.19999 86.8303 8.58399 87.8703 8.15199C88.9263 7.70399 90.0622 7.47999 91.2783 7.47999C92.4782 7.47999 93.5983 7.70399 94.6383 8.15199C95.6943 8.58399 96.6143 9.19999 97.3983 9.99999C98.1983 10.784 98.8142 11.704 99.2462 12.76C99.6942 13.8 99.9183 14.928 99.9183 16.144C99.9183 17.36 99.6942 18.496 99.2462 19.552C98.8142 20.592 98.1983 21.512 97.3983 22.312C96.6143 23.096 95.6943 23.712 94.6383 24.16C93.5983 24.592 92.4782 24.808 91.2783 24.808ZM91.2783 23.104C92.2383 23.104 93.1263 22.928 93.9423 22.576C94.7583 22.224 95.4702 21.736 96.0782 21.112C96.7022 20.472 97.1823 19.728 97.5182 18.88C97.8702 18.032 98.0462 17.12 98.0462 16.144C98.0462 15.152 97.8702 14.24 97.5182 13.408C97.1823 12.56 96.7022 11.824 96.0782 11.2C95.4702 10.56 94.7583 10.064 93.9423 9.71199C93.1263 9.35999 92.2383 9.18399 91.2783 9.18399C90.3183 9.18399 89.4223 9.35999 88.5903 9.71199C87.7743 10.064 87.0543 10.56 86.4303 11.2C85.8223 11.824 85.3422 12.56 84.9902 13.408C84.6543 14.24 84.4863 15.144 84.4863 16.12C84.4863 17.112 84.6543 18.032 84.9902 18.88C85.3422 19.728 85.8223 20.472 86.4303 21.112C87.0543 21.736 87.7743 22.224 88.5903 22.576C89.4223 22.928 90.3183 23.104 91.2783 23.104Z" fill="white"/>
<path d="M112.7 24.544L105.884 7.74399H109.652L114.788 20.968L120.044 7.74399H123.644L116.732 24.544H112.7Z" fill="white"/>
<path d="M127.591 24.76C126.695 24.76 125.903 24.6 125.215 24.28C124.527 23.944 123.991 23.488 123.607 22.912C123.223 22.336 123.031 21.672 123.031 20.92C123.031 19.72 123.479 18.792 124.375 18.136C125.287 17.464 126.535 17.128 128.119 17.128C129.207 17.128 130.231 17.296 131.191 17.632V16.72C131.191 16 130.967 15.456 130.519 15.088C130.071 14.72 129.415 14.536 128.551 14.536C128.023 14.536 127.455 14.624 126.847 14.8C126.239 14.96 125.535 15.216 124.735 15.568L123.535 13.144C124.527 12.696 125.471 12.36 126.367 12.136C127.279 11.912 128.191 11.8 129.103 11.8C130.783 11.8 132.087 12.208 133.015 13.024C133.959 13.824 134.431 14.96 134.431 16.432V24.544H131.191V23.656C130.679 24.04 130.127 24.32 129.535 24.496C128.943 24.672 128.295 24.76 127.591 24.76ZM126.151 20.848C126.151 21.328 126.359 21.712 126.775 22C127.191 22.272 127.743 22.408 128.431 22.408C128.975 22.408 129.479 22.344 129.943 22.216C130.407 22.072 130.823 21.864 131.191 21.592V19.768C130.791 19.608 130.375 19.488 129.943 19.408C129.511 19.328 129.047 19.288 128.551 19.288C127.799 19.288 127.207 19.432 126.775 19.72C126.359 19.992 126.151 20.368 126.151 20.848Z" fill="white"/>
<path d="M141.951 24.784C140.991 24.784 140.135 24.576 139.383 24.16C138.647 23.728 138.063 23.136 137.631 22.384C137.215 21.632 137.007 20.768 137.007 19.792V12.04H140.295V19.312C140.295 20.112 140.527 20.752 140.991 21.232C141.471 21.712 142.111 21.952 142.911 21.952C143.455 21.952 143.943 21.848 144.375 21.64C144.823 21.416 145.191 21.104 145.479 20.704V12.04H148.767V24.544H145.479V23.536C144.519 24.368 143.343 24.784 141.951 24.784Z" fill="white"/>
<path d="M151.629 24.544V7.74399L154.917 7.19199V24.544H151.629Z" fill="white"/>
<path d="M163.717 24.736C162.325 24.736 161.269 24.424 160.549 23.8C159.845 23.16 159.493 22.232 159.493 21.016V14.776H156.925V12.04H159.493V8.84799L162.781 8.10399V12.04H166.357V14.776H162.781V20.344C162.781 20.92 162.909 21.336 163.165 21.592C163.421 21.832 163.869 21.952 164.509 21.952C164.829 21.952 165.117 21.936 165.373 21.904C165.645 21.856 165.941 21.776 166.261 21.664V24.376C165.925 24.488 165.509 24.576 165.013 24.64C164.517 24.704 164.085 24.736 163.717 24.736Z" fill="white"/>
</svg>
