<svg width="40" height="40" viewBox="0 0 40 40" fill="none" xmlns="http://www.w3.org/2000/svg">
<path d="M18.1818 5.45455C18.1818 7.46282 14.5187 9.09091 10 9.09091C5.48131 9.09091 1.81818 7.46282 1.81818 5.45455C1.81818 3.44624 5.48131 1.81818 10 1.81818C14.5187 1.81818 18.1818 3.44624 18.1818 5.45455Z" fill="#9FD4FF" fill-opacity="0.29"/>
<path fill-rule="evenodd" clip-rule="evenodd" d="M3.65015 5.45454C3.66963 5.42085 3.70739 5.36698 3.77823 5.29254C3.97742 5.08323 4.35158 4.81203 4.95302 4.54472C6.1513 4.01215 7.93415 3.63636 10 3.63636C12.0659 3.63636 13.8487 4.01215 15.047 4.54472C15.6484 4.81203 16.0226 5.08323 16.2218 5.29253C16.2926 5.36697 16.3304 5.42085 16.3499 5.45454C16.3304 5.48822 16.2926 5.5421 16.2218 5.61654C16.0226 5.82584 15.6484 6.09705 15.047 6.36436C13.8487 6.89693 12.0659 7.27273 10 7.27273C7.93416 7.27273 6.15131 6.89693 4.95302 6.36436C4.35158 6.09705 3.97742 5.82584 3.77823 5.61654C3.70739 5.5421 3.66963 5.48823 3.65015 5.45454ZM3.47615 1.22177C5.2391 0.438241 7.54716 0 10 0C12.4529 0 14.7609 0.43824 16.5239 1.22177C17.403 1.61252 18.2271 2.12489 18.8559 2.78569C19.4937 3.45585 20 4.36087 20 5.45455C20 6.54822 19.4937 7.45323 18.8559 8.12339C18.2271 8.78418 17.403 9.29655 16.5239 9.6873C14.7609 10.4708 12.4529 10.9091 10 10.9091C7.54715 10.9091 5.23909 10.4708 3.47614 9.6873C2.59697 9.29656 1.77293 8.78419 1.14407 8.1234C0.506299 7.45324 0 6.54823 0 5.45455C0 4.36086 0.506292 3.45585 1.14407 2.78568C1.77293 2.12489 2.59697 1.61252 3.47615 1.22177Z" fill="#2870FA"/>
<path fill-rule="evenodd" clip-rule="evenodd" d="M25.4545 3.63636C25.4545 2.63221 26.2686 1.81818 27.2727 1.81818H32.7273C35.7397 1.81818 38.1818 4.26025 38.1818 7.27273V12.7273C38.1818 13.7314 37.3678 14.5455 36.3636 14.5455C35.3595 14.5455 34.5455 13.7314 34.5455 12.7273V7.27273C34.5455 6.26858 33.7314 5.45455 32.7273 5.45455H27.2727C26.2686 5.45455 25.4545 4.64052 25.4545 3.63636Z" fill="#2870FA"/>
<path fill-rule="evenodd" clip-rule="evenodd" d="M3.63636 25.4545C4.64052 25.4545 5.45455 26.2686 5.45455 27.2727V32.7273C5.45455 33.7314 6.26858 34.5455 7.27273 34.5455H12.7273C13.7314 34.5455 14.5455 35.3595 14.5455 36.3636C14.5455 37.3678 13.7314 38.1818 12.7273 38.1818H7.27273C4.26025 38.1818 1.81818 35.7397 1.81818 32.7273V27.2727C1.81818 26.2686 2.63221 25.4545 3.63636 25.4545Z" fill="#2870FA"/>
<path d="M30 29.0909C32.5104 29.0909 34.5455 27.0558 34.5455 24.5455C34.5455 22.0351 32.5104 20 30 20C27.4896 20 25.4545 22.0351 25.4545 24.5455C25.4545 27.0558 27.4896 29.0909 30 29.0909Z" fill="#9FD4FF" fill-opacity="0.29"/>
<path fill-rule="evenodd" clip-rule="evenodd" d="M30 21.8182C28.4938 21.8182 27.2727 23.0392 27.2727 24.5455C27.2727 26.0517 28.4938 27.2727 30 27.2727C31.5062 27.2727 32.7273 26.0517 32.7273 24.5455C32.7273 23.0392 31.5062 21.8182 30 21.8182ZM23.6364 24.5455C23.6364 21.0309 26.4855 18.1818 30 18.1818C33.5145 18.1818 36.3636 21.0309 36.3636 24.5455C36.3636 28.06 33.5145 30.9091 30 30.9091C26.4855 30.9091 23.6364 28.06 23.6364 24.5455Z" fill="#2870FA"/>
<path d="M38.1818 38.1818H21.8182C21.8182 33.6631 25.4813 30 30 30C34.5187 30 38.1818 33.6631 38.1818 38.1818Z" fill="#9FD4FF" fill-opacity="0.29"/>
<path fill-rule="evenodd" clip-rule="evenodd" d="M23.8999 36.3636H36.1001C35.3178 33.735 32.8828 31.8182 30 31.8182C27.1172 31.8182 24.6822 33.735 23.8999 36.3636ZM20 38.1818C20 32.6589 24.4771 28.1818 30 28.1818C35.5229 28.1818 40 32.6589 40 38.1818C40 39.186 39.186 40 38.1818 40H21.8182C20.814 40 20 39.186 20 38.1818Z" fill="#2870FA"/>
<path fill-rule="evenodd" clip-rule="evenodd" d="M3.63636 5.45455C3.63636 4.45039 2.82234 3.63636 1.81818 3.63636C0.814028 3.63636 0 4.45039 0 5.45455V10.9091V16.3636C0 17.4573 0.506299 18.3623 1.14407 19.0325C1.77293 19.6933 2.59697 20.2056 3.47614 20.5964C5.23909 21.3799 7.54715 21.8182 10 21.8182C12.4529 21.8182 14.7609 21.3799 16.5239 20.5964C17.403 20.2056 18.2271 19.6933 18.8559 19.0325C19.4937 18.3623 20 17.4573 20 16.3636V10.9091V5.45455C20 4.45039 19.186 3.63636 18.1818 3.63636C17.1777 3.63636 16.3636 4.45039 16.3636 5.45455L16.3638 10.882C16.3519 10.909 16.3163 10.9717 16.2218 11.0711C16.0226 11.2804 15.6484 11.5516 15.047 11.8189C13.8487 12.3515 12.0659 12.7273 10 12.7273C7.93416 12.7273 6.15131 12.3515 4.95302 11.8189C4.35158 11.5516 3.97742 11.2804 3.77823 11.0711C3.68369 10.9717 3.64807 10.909 3.63617 10.882L3.63636 5.45455ZM16.3636 15.2115C16.4175 15.1886 16.4709 15.1654 16.5239 15.1418C17.403 14.7511 18.2271 14.2387 18.8559 13.5779C19.4937 12.9078 20 12.0028 20 10.9091C20 9.90494 19.186 9.09091 18.1818 9.09091C17.1867 9.09091 16.3783 9.89036 16.3638 10.882L16.3636 15.2115ZM16.3636 15.2115V16.337C16.3515 16.3643 16.3158 16.4268 16.2218 16.5256C16.0226 16.7349 15.6484 17.0061 15.047 17.2734C13.8487 17.806 12.0659 18.1818 10 18.1818C7.93416 18.1818 6.15131 17.806 4.95302 17.2734C4.35158 17.0061 3.97742 16.7349 3.77823 16.5256C3.68421 16.4268 3.64846 16.3643 3.63636 16.337V15.2115C5.37778 15.9513 7.62078 16.3636 10 16.3636C12.3792 16.3636 14.6222 15.9513 16.3636 15.2115Z" fill="#2870FA"/>
<path fill-rule="evenodd" clip-rule="evenodd" d="M16.5239 15.1418C17.403 14.7511 18.2271 14.2387 18.8559 13.5779C19.4937 12.9078 20 12.0028 20 10.9091C20 9.90494 19.186 9.09091 18.1818 9.09091C17.1867 9.09091 16.3783 9.89036 16.3638 10.882L16.3636 15.2115C16.4175 15.1886 16.4709 15.1654 16.5239 15.1418Z" fill="#2870FA"/>
<path fill-rule="evenodd" clip-rule="evenodd" d="M25.4545 3.63636C25.4545 2.63221 26.2686 1.81818 27.2727 1.81818H32.7273C35.7397 1.81818 38.1818 4.26025 38.1818 7.27273V12.7273C38.1818 13.7314 37.3678 14.5455 36.3636 14.5455C35.3595 14.5455 34.5455 13.7314 34.5455 12.7273V7.27273C34.5455 6.26858 33.7314 5.45455 32.7273 5.45455H27.2727C26.2686 5.45455 25.4545 4.64052 25.4545 3.63636Z" fill="#2870FA"/>
<path fill-rule="evenodd" clip-rule="evenodd" d="M3.63636 25.4545C4.64052 25.4545 5.45455 26.2686 5.45455 27.2727V32.7273C5.45455 33.7314 6.26858 34.5455 7.27273 34.5455H12.7273C13.7314 34.5455 14.5455 35.3595 14.5455 36.3636C14.5455 37.3678 13.7314 38.1818 12.7273 38.1818H7.27273C4.26025 38.1818 1.81818 35.7397 1.81818 32.7273V27.2727C1.81818 26.2686 2.63221 25.4545 3.63636 25.4545Z" fill="#2870FA"/>
</svg>
