<svg width="36" height="40" viewBox="0 0 36 40" fill="none" xmlns="http://www.w3.org/2000/svg">
<path d="M35.5193 7.6785C35.3588 7.50578 35.1624 7.36613 34.9421 7.2683C34.7218 7.17047 34.4825 7.11655 34.2391 7.10993C30.4579 7.01672 25.6734 3.2045 22.5101 1.70851C20.5561 0.787301 19.266 0.179894 18.2972 0.0198866C18.1005 -0.00713974 17.9007 -0.00661627 17.7041 0.0214401C16.7353 0.181448 15.4453 0.788855 13.4929 1.71006C10.3296 3.2045 5.54506 7.01672 1.76389 7.10993C1.52033 7.11689 1.28089 7.17095 1.0604 7.26876C0.839904 7.36656 0.643067 7.50602 0.482085 7.6785C0.148408 8.03445 -0.0237525 8.49968 0.00264263 8.97409C0.814894 24.5445 6.7379 34.1807 17.1308 39.781C17.401 39.9254 17.7008 40 17.999 40C18.2972 40 18.5971 39.9254 18.8689 39.781C29.2618 34.1807 35.1832 24.5445 35.9971 8.97409C36.025 8.49975 35.8533 8.03417 35.5193 7.6785ZM27.2551 13.8023L18.4851 26.0048C18.1704 26.4429 17.6761 26.7334 17.1868 26.7334C16.6958 26.7334 16.1505 26.4801 15.8061 26.1555L9.62444 20.3253C9.42262 20.1343 9.3093 19.8757 9.3093 19.606C9.3093 19.3364 9.42262 19.0778 9.62444 18.8868L11.1517 17.4436C11.3547 17.2541 11.6289 17.1477 11.9146 17.1477C12.2002 17.1477 12.4744 17.2541 12.6774 17.4436L16.6974 21.2341L23.6815 11.514C23.8431 11.2916 24.0914 11.1385 24.3724 11.0881C24.6533 11.0378 24.9439 11.0943 25.1808 11.2453L26.9684 12.3886C27.2046 12.5407 27.3673 12.7748 27.421 13.0397C27.4747 13.3046 27.4151 13.5787 27.2551 13.8023Z" fill="#2870FA"/>
<path d="M27.2551 13.8023L18.4851 26.0048C18.1704 26.4429 17.6761 26.7334 17.1868 26.7334C16.6958 26.7334 16.1505 26.4801 15.8061 26.1555L9.62444 20.3253C9.42262 20.1343 9.3093 19.8757 9.3093 19.606C9.3093 19.3364 9.42262 19.0778 9.62444 18.8868L11.1517 17.4436C11.3547 17.2541 11.6289 17.1477 11.9146 17.1477C12.2002 17.1477 12.4744 17.2541 12.6774 17.4436L16.6974 21.2341L23.6815 11.514C23.8431 11.2916 24.0914 11.1385 24.3724 11.0881C24.6533 11.0378 24.9439 11.0943 25.1808 11.2453L26.9684 12.3886C27.2046 12.5407 27.3673 12.7748 27.421 13.0397C27.4747 13.3046 27.4151 13.5787 27.2551 13.8023Z" fill="#E3F2FF"/>
</svg>
