<svg width="42" height="44" viewBox="0 0 42 44" fill="none" xmlns="http://www.w3.org/2000/svg">
<path d="M2 8V20C2 20 2 26 16 26C17.184 26 18.27 25.958 19.262 25.88M30 8V20" stroke="#2870FA" stroke-width="3" stroke-linecap="round" stroke-linejoin="round"/>
<path d="M16 2C30 2 30 8 30 8C30 8 30 14 16 14C2 14 2 8 2 8C2 8 2 2 16 2Z" fill="#E3F2FF"/>
<path d="M16 38C2 38 2 32 2 32V20M16 2C30 2 30 8 30 8C30 8 30 14 16 14C2 14 2 8 2 8C2 8 2 2 16 2Z" stroke="#2870FA" stroke-width="3" stroke-linecap="round" stroke-linejoin="round"/>
<path d="M35.2922 30.7058H39.2158C39.6501 30.7058 40 30.3881 40 29.9984V26M22 36.3518C23.4511 39.6768 26.7712 42 30.6314 42C34.7592 42 38.2672 39.3422 39.5374 35.6466" stroke="#63B9FF" stroke-width="3" stroke-linecap="round" stroke-linejoin="round"/>
<path d="M26 36H22.6663C22.4896 36 22.3201 36.095 22.1952 36.2642C22.0702 36.4333 22 36.6627 22 36.9019V42" stroke="#63B9FF" stroke-width="3" stroke-linecap="round" stroke-linejoin="round"/>
<path d="M37.4302 28.5279C35.5682 25.2734 32.1073 23.3142 28.4921 23.841C24.6263 24.4042 21.7431 27.6427 21.1125 31.6533" stroke="#63B9FF" stroke-width="3" stroke-linecap="round" stroke-linejoin="round"/>
</svg>
