<svg width="90" height="96" viewBox="0 0 90 96" fill="none" xmlns="http://www.w3.org/2000/svg">
<path fill-rule="evenodd" clip-rule="evenodd" d="M89.4979 38.9417C89.4979 47.618 84.1586 54.9972 76.7227 57.6921L81.2183 65.1406L74.5631 73.3257L81.2183 81.3283L70.4894 95.728L62.9275 87.6561V71.3487V57.1443C56.2031 54.0906 51.4998 47.0891 51.4998 38.9417C51.4998 27.9861 60.006 19.1021 70.502 19.1021C80.9916 19.1021 89.4979 27.9861 89.4979 38.9417ZM70.4957 41.9765C73.0268 41.9765 75.0794 39.8358 75.0794 37.1913C75.0794 34.5469 73.0268 32.3998 70.4957 32.3998C67.9646 32.3998 65.912 34.5406 65.912 37.1913C65.9057 39.8358 67.9646 41.9765 70.4957 41.9765Z" fill="#6267CE"/>
<path fill-rule="evenodd" clip-rule="evenodd" d="M89.5544 38.9983C89.5544 47.5739 84.36 54.8839 77.0689 57.6795L81.2118 65.1343L75.0855 73.3195L81.2118 81.3221L70.4893 95.835V79.5276V58.8946V41.9765C73.0204 41.9765 75.073 39.8295 75.073 37.1913C75.073 34.5469 73.0204 32.3998 70.4893 32.3998V19.1021C81.023 19.1021 89.5544 28.0113 89.5544 38.9983Z" fill="#6267CE"/>
<path fill-rule="evenodd" clip-rule="evenodd" d="M56.7067 60.7522C50.5679 55.7152 46.4438 47.9707 45.8771 39.1748H12.9853C6.08452 39.1748 0.493408 44.8478 0.493408 51.8492V67.697C0.493408 71.1978 3.28896 74.0374 6.73934 74.0374H50.4608C53.9112 74.0374 56.7067 71.1978 56.7067 67.697V60.7522Z" fill="#CA27CA"/>
<path d="M27.0637 35.378C25.54 35.0883 24.0289 34.8176 22.5871 34.2068C17.1408 31.9213 13.9674 27.7091 12.9411 21.7591C12.2359 17.6854 12.5697 13.6557 14.2193 9.84648C16.5615 4.43166 20.7611 1.49759 26.2767 0.502774C29.576 -0.0890778 32.8626 0.0431431 36.036 1.22685C40.8148 3.0024 44.0197 6.42759 45.4993 11.452C46.9978 16.5206 46.7774 21.5891 44.5171 26.3868C42.1748 31.3987 38.0885 34.0872 32.9193 35.1387C32.4911 35.2268 32.0567 35.3087 31.6285 35.3969C30.1111 35.378 28.5874 35.378 27.0637 35.378Z" fill="#CA27CA"/>
</svg>
