<?xml version="1.0" encoding="UTF-8" standalone="no"?>
<svg
   viewBox="0 0 540 162"
   version="1.1"
   id="svg51"
   width="540"
   height="162"
   xmlns:xlink="http://www.w3.org/1999/xlink"
   xmlns="http://www.w3.org/2000/svg"
   xmlns:svg="http://www.w3.org/2000/svg">
  <defs
     id="defs8">
    <linearGradient
       id="linear-gradient"
       x1="79.230003"
       y1="-1.24"
       x2="170.34"
       y2="89.860001"
       gradientUnits="userSpaceOnUse">
      <stop
         offset="0"
         stop-color="#006dff"
         id="stop3" />
      <stop
         offset="0.87"
         stop-color="#26dbff"
         id="stop4" />
      <stop
         offset="1"
         stop-color="#2cebff"
         id="stop5" />
    </linearGradient>
    <linearGradient
       id="linear-gradient-2"
       x1="71.650002"
       y1="6.3400002"
       x2="162.75999"
       y2="97.440002"
       xlink:href="#linear-gradient" />
    <linearGradient
       id="linear-gradient-3"
       x1="64.07"
       y1="13.92"
       x2="155.17999"
       y2="105.03"
       xlink:href="#linear-gradient" />
    <linearGradient
       id="linear-gradient-4"
       x1="56.48"
       y1="21.5"
       x2="147.59"
       y2="112.61"
       xlink:href="#linear-gradient" />
    <linearGradient
       id="linear-gradient-5"
       x1="79.230003"
       y1="-1.24"
       x2="170.34"
       y2="89.860001"
       xlink:href="#linear-gradient" />
    <linearGradient
       id="linear-gradient-6"
       x1="64.07"
       y1="13.92"
       x2="155.17999"
       y2="105.03"
       xlink:href="#linear-gradient" />
    <linearGradient
       id="linear-gradient-7"
       x1="86.82"
       y1="-8.8299999"
       x2="177.92"
       y2="82.279999"
       xlink:href="#linear-gradient" />
    <linearGradient
       id="linear-gradient-8"
       x1="79.230003"
       y1="-1.24"
       x2="170.34"
       y2="89.860001"
       xlink:href="#linear-gradient" />
    <linearGradient
       id="linear-gradient-9"
       x1="86.809998"
       y1="-8.8299999"
       x2="177.92"
       y2="82.279999"
       xlink:href="#linear-gradient" />
    <linearGradient
       id="linear-gradient-10"
       x1="64.059998"
       y1="13.92"
       x2="155.17"
       y2="105.03"
       xlink:href="#linear-gradient" />
    <linearGradient
       id="linear-gradient-11"
       x1="71.650002"
       y1="6.3400002"
       x2="162.75999"
       y2="97.449997"
       xlink:href="#linear-gradient" />
    <linearGradient
       id="linear-gradient-12"
       x1="71.650002"
       y1="6.3400002"
       x2="162.75999"
       y2="97.449997"
       xlink:href="#linear-gradient" />
    <linearGradient
       id="linear-gradient-13"
       x1="56.48"
       y1="21.51"
       x2="147.59"
       y2="112.61"
       xlink:href="#linear-gradient" />
    <linearGradient
       id="linear-gradient-14"
       x1="79.230003"
       y1="-1.24"
       x2="170.34"
       y2="89.870003"
       xlink:href="#linear-gradient" />
    <linearGradient
       id="linear-gradient-15"
       x1="56.48"
       y1="21.51"
       x2="147.59"
       y2="112.62"
       xlink:href="#linear-gradient" />
    <linearGradient
       id="linear-gradient-16"
       x1="86.459999"
       y1="-8.4700003"
       x2="177.56"
       y2="82.639999"
       xlink:href="#linear-gradient" />
    <linearGradient
       id="linear-gradient-17"
       x1="71.650002"
       y1="6.3400002"
       x2="162.75999"
       y2="97.449997"
       xlink:href="#linear-gradient" />
    <linearGradient
       id="linear-gradient-18"
       x1="64.059998"
       y1="13.92"
       x2="155.17"
       y2="105.03"
       xlink:href="#linear-gradient" />
    <linearGradient
       id="linear-gradient-19"
       x1="56.48"
       y1="21.5"
       x2="147.59"
       y2="112.61"
       xlink:href="#linear-gradient" />
    <linearGradient
       id="linear-gradient-20"
       x1="56.48"
       y1="21.5"
       x2="147.59"
       y2="112.61"
       xlink:href="#linear-gradient" />
    <linearGradient
       id="linear-gradient-21"
       x1="64.059998"
       y1="13.92"
       x2="155.17"
       y2="105.03"
       xlink:href="#linear-gradient" />
    <linearGradient
       id="linear-gradient-22"
       x1="68.610001"
       y1="182.21001"
       x2="190.02"
       y2="60.799999"
       gradientUnits="userSpaceOnUse">
      <stop
         offset="0"
         stop-color="#006dff"
         id="stop6" />
      <stop
         offset="0.13"
         stop-color="#067dff"
         id="stop7" />
      <stop
         offset="1"
         stop-color="#2cebff"
         id="stop8" />
    </linearGradient>
    <linearGradient
       id="linear-gradient-23"
       x1="88.699997"
       y1="-10.71"
       x2="179.8"
       y2="80.400002"
       xlink:href="#linear-gradient" />
    <linearGradient
       id="linear-gradient-24"
       x1="45.860001"
       y1="159.45"
       x2="167.21001"
       y2="38.099998"
       xlink:href="#linear-gradient-22" />
    <linearGradient
       id="linear-gradient-25"
       x1="80.07"
       y1="-2.0799999"
       x2="171.17"
       y2="89.029999"
       xlink:href="#linear-gradient" />
    <linearGradient
       id="linear-gradient-26"
       x1="54.619999"
       y1="168.22"
       x2="175.98"
       y2="46.869999"
       xlink:href="#linear-gradient-22" />
    <linearGradient
       xlink:href="#linear-gradient"
       id="linearGradient1"
       gradientUnits="userSpaceOnUse"
       x1="79.230003"
       y1="-1.24"
       x2="170.34"
       y2="89.860001" />
    <linearGradient
       xlink:href="#linear-gradient-22"
       id="linearGradient2"
       gradientUnits="userSpaceOnUse"
       x1="68.610001"
       y1="182.21001"
       x2="190.02"
       y2="60.799999" />
  </defs>
  <g
     style="isolation:isolate"
     id="g51"
     transform="translate(-53.553555,-18.5)">
    <g
       id="Layer_1"
       data-name="Layer 1">
      <path
         d="m 119.4,44.1 a 5.2,5.2 0 1 0 -5.2,-5.2 5.2,5.2 0 0 0 5.2,5.2 z"
         style="fill:url(#linearGradient1)"
         id="path14" />
      <path
         d="m 119.4,59.3 a 5.2,5.2 0 0 0 0,-10.4 5.2,5.2 0 0 0 0,10.4 z"
         style="fill:url(#linear-gradient-2)"
         id="path15" />
      <path
         d="m 119.4,74.4 a 5.2,5.2 0 1 0 0,-10.3 5.2,5.2 0 1 0 0,10.3 z"
         style="fill:url(#linear-gradient-3)"
         id="path16" />
      <path
         d="m 119.4,89.6 a 5.2,5.2 0 1 0 -5.2,-5.2 5.2,5.2 0 0 0 5.2,5.2 z"
         style="fill:url(#linear-gradient-4)"
         id="path17" />
      <path
         d="m 104.2,28.9 a 5.2,5.2 0 1 0 -5.1,-5.1 5.1,5.1 0 0 0 5.1,5.1 z"
         style="fill:url(#linear-gradient-5)"
         id="path18" />
      <path
         d="m 104.2,59.3 a 5.2,5.2 0 1 0 -5.1,-5.2 5.2,5.2 0 0 0 5.1,5.2 z"
         style="fill:url(#linear-gradient-6)"
         id="path19" />
      <path
         d="m 119.4,28.9 a 5.2,5.2 0 1 0 0,-10.3 5.2,5.2 0 1 0 0,10.3 z"
         style="fill:url(#linear-gradient-7)"
         id="path20" />
      <path
         d="m 134.6,59.3 a 5.2,5.2 0 1 0 -5.2,-5.2 5.1,5.1 0 0 0 5.2,5.2 z"
         style="fill:url(#linear-gradient-8)"
         id="path21" />
      <path
         d="m 134.6,44.1 a 5.2,5.2 0 1 0 -5.2,-5.2 5.1,5.1 0 0 0 5.2,5.2 z"
         style="fill:url(#linear-gradient-9)"
         id="path22" />
      <path
         d="m 134.6,89.6 a 5.2,5.2 0 1 0 -5.2,-5.2 5.1,5.1 0 0 0 5.2,5.2 z"
         style="fill:url(#linear-gradient-10)"
         id="path23" />
      <path
         d="m 134.6,74.4 a 5.2,5.2 0 1 0 -5.2,-5.1 5.1,5.1 0 0 0 5.2,5.1 z"
         style="fill:url(#linear-gradient-11)"
         id="path24" />
      <path
         d="m 104.2,44.1 a 5.2,5.2 0 1 0 -5.1,-5.2 5.2,5.2 0 0 0 5.1,5.2 z"
         style="fill:url(#linear-gradient-12)"
         id="path25" />
      <path
         d="m 73.9,44.1 a 5.2,5.2 0 1 0 -5.2,-5.2 5.2,5.2 0 0 0 5.2,5.2 z"
         style="fill:url(#linear-gradient-13)"
         id="path26" />
      <path
         d="m 149.7,64.1 a 5.2,5.2 0 0 0 0,10.3 h 1.1 a 26.6,26.6 0 0 0 2.8,-8.5 5.4,5.4 0 0 0 -3.9,-1.8 z"
         style="fill:url(#linear-gradient-14)"
         id="path27" />
      <path
         d="m 58.7,28.9 a 5.2,5.2 0 1 0 -5.1,-5.1 5.1,5.1 0 0 0 5.1,5.1 z"
         style="fill:url(#linear-gradient-15)"
         id="path28" />
      <path
         d="m 149.7,48.9 a 5.2,5.2 0 0 0 0,10.4 5.2,5.2 0 0 0 3.8,-1.7 26.7,26.7 0 0 0 -3,-8.6 z"
         style="fill:url(#linear-gradient-16)"
         id="path29" />
      <path
         d="m 89.1,28.9 a 5.2,5.2 0 1 0 -5.2,-5.1 5.1,5.1 0 0 0 5.2,5.1 z"
         style="fill:url(#linear-gradient-17)"
         id="path30" />
      <path
         d="m 89.1,44.1 a 5.2,5.2 0 1 0 0,-10.3 5.2,5.2 0 1 0 0,10.3 z"
         style="fill:url(#linear-gradient-18)"
         id="path31" />
      <path
         d="m 104.2,74.4 a 5.2,5.2 0 1 0 -5.1,-5.1 5.1,5.1 0 0 0 5.1,5.1 z"
         style="fill:url(#linear-gradient-19)"
         id="path32" />
      <path
         d="m 89.1,59.3 a 5.2,5.2 0 1 0 0,-10.4 5.2,5.2 0 1 0 0,10.4 z"
         style="fill:url(#linear-gradient-20)"
         id="path33" />
      <path
         d="m 73.9,28.9 a 5.2,5.2 0 1 0 -5.2,-5.1 5.1,5.1 0 0 0 5.2,5.1 z"
         style="fill:url(#linear-gradient-21)"
         id="path34" />
      <path
         d="M 183.7,80.8 154.2,51.2 a 5.3,5.3 0 0 0 -3.7,-2.2 5,5 0 0 1 3.9,2.8 5.9,5.9 0 0 1 0.5,2.3 4.8,4.8 0 0 1 -1.4,3.5 28.2,28.2 0 0 1 0.1,8.2 5.2,5.2 0 0 1 1.3,3.5 5.1,5.1 0 0 1 -4.1,5 29,29 0 0 1 -4.7,6.5 l -91,90.9 a 5.2,5.2 0 0 0 3.7,8.9 h 60.6 a 5.1,5.1 0 0 0 3.7,-1.5 l 60.6,-60.7 a 26.6,26.6 0 0 0 0,-37.6 z"
         style="fill:url(#linearGradient2)"
         id="path35" />
      <path
         d="m 150.5,49 a 26.7,26.7 0 0 1 3,8.6 4.8,4.8 0 0 0 1.4,-3.5 5.2,5.2 0 0 0 -4.4,-5.1 z"
         style="fill:url(#linear-gradient-23)"
         id="path36" />
      <path
         d="m 150.5,49 a 26.7,26.7 0 0 1 3,8.6 4.8,4.8 0 0 0 1.4,-3.5 5.2,5.2 0 0 0 -4.4,-5.1 z"
         style="fill:url(#linear-gradient-24)"
         id="path37" />
      <path
         d="m 154.9,69.3 a 5.2,5.2 0 0 0 -1.3,-3.5 26.6,26.6 0 0 1 -2.8,8.5 5.1,5.1 0 0 0 4.1,-5 z"
         style="fill:url(#linear-gradient-25)"
         id="path38" />
      <path
         d="m 154.9,69.3 a 5.2,5.2 0 0 0 -1.3,-3.5 26.6,26.6 0 0 1 -2.8,8.5 5.1,5.1 0 0 0 4.1,-5 z"
         style="fill:url(#linear-gradient-26)"
         id="path39" />
      <path
         style="font-weight:bold;font-size:53.3333px;white-space:pre;fill:#006dff;stroke-width:2.04227"
         d="m 275.33312,142.13861 h -19.75948 l -5.12652,-17.10582 h -27.47415 l -5.12651,17.10582 H 198.58469 L 225.9593,57.518834 h 21.99923 z m -29.51481,-32.62039 -9.10827,-30.347179 -9.10828,30.347179 z m 103.57557,6.70595 q 0,6.13761 -2.18997,10.96815 -2.14019,4.83057 -5.92287,8.01304 -4.37993,3.75078 -9.65577,5.342 -5.22606,1.59125 -13.28913,1.59125 h -32.3518 V 57.518834 h 28.76822 q 8.95896,0 13.09005,0.68196 4.18085,0.681959 8.26214,3.011992 4.23062,2.443685 6.27128,6.592269 2.09042,4.091757 2.09042,9.376934 0,6.137636 -2.83701,10.854527 -2.837,4.660043 -8.01328,7.274229 v 0.454632 q 7.26671,1.648073 11.49733,6.819593 4.28039,5.17153 4.28039,13.6392 z M 324.90605,81.444247 q 0,-2.102727 -0.94566,-4.205432 -0.8959,-2.102705 -3.23519,-3.125645 -2.09043,-0.909265 -5.22605,-0.966113 -3.08586,-0.113696 -8.71011,-0.113696 h -1.79179 V 90.93479 h 2.98632 q 4.52925,0 7.71465,-0.170436 3.18542,-0.170435 5.02698,-1.136613 2.58815,-1.307072 3.38449,-3.35295 0.79636,-2.102727 0.79636,-4.830544 z m 4.67858,34.438943 q 0,-4.03494 -1.39362,-6.19447 -1.34386,-2.21638 -4.62879,-3.29614 -2.23976,-0.73879 -6.17174,-0.79561 -3.93199,-0.0567 -8.21238,-0.0567 h -4.18085 v 21.0839 h 1.39362 q 8.06305,0 11.5471,-0.0567 3.48403,-0.0567 6.42059,-1.4776 2.98632,-1.42074 4.08131,-3.75077 1.14476,-2.38684 1.14476,-5.45566 z m 67.54062,27.90349 q -8.26217,0 -15.28001,-2.78466 -6.96808,-2.78467 -11.99506,-8.29717 -5.02696,-5.51253 -7.81421,-13.75285 -2.73746,-8.24034 -2.73746,-19.038039 0,-10.058893 2.63792,-18.242409 2.63792,-8.183515 7.66488,-14.036998 4.82789,-5.626156 11.94529,-8.694974 7.16718,-3.068819 15.62842,-3.068819 4.67856,0 8.41147,0.625134 3.78266,0.568307 6.96808,1.53442 3.33472,1.079766 6.02241,2.443685 2.73746,1.307071 4.77812,2.443685 v 20.515593 h -2.18998 q -1.39361,-1.36392 -3.5338,-3.239298 -2.09043,-1.875399 -4.77812,-3.693951 -2.73746,-1.818552 -5.92287,-3.068818 -3.1854,-1.250245 -6.81876,-1.250245 -4.03154,0 -7.6649,1.477572 -3.63336,1.420745 -6.71922,4.773717 -2.93655,3.239297 -4.77811,8.581322 -1.79179,5.342002 -1.79179,12.95721 0,7.956213 1.94111,13.298213 1.99087,5.34202 4.9772,8.41082 3.03609,3.12567 6.769,4.48959 3.73289,1.30707 7.36625,1.30707 3.48405,0 6.86854,-1.19342 3.43426,-1.19344 6.32105,-3.23932 2.43882,-1.64805 4.52925,-3.52345 2.09043,-1.87538 3.43426,-3.2393 h 1.99089 v 20.23146 q -2.78725,1.42075 -5.32561,2.67099 -2.53837,1.25027 -5.32561,2.15956 -3.63336,1.19342 -6.81876,1.81855 -3.18542,0.62513 -8.75987,0.62513 z"
         id="text51"
         aria-label="ABC" />
      <path
         d="m 466.12317,127.14074 q 0,3.63047 -1.23954,6.41055 -1.23955,2.78008 -3.33497,4.57896 -2.47909,2.15866 -5.4599,3.07444 -2.95131,0.9158 -7.52582,0.9158 H 432.98006 V 93.419996 h 13.01525 q 4.81061,0 7.20117,0.392481 2.39056,0.392481 4.57451,1.635336 2.42006,1.406403 3.51206,3.630467 1.09198,2.19135 1.09198,5.26579 0,3.46694 -1.59371,5.91994 -1.59371,2.42031 -4.24986,3.89212 v 0.26165 q 4.45645,1.01392 7.02409,4.35002 2.56762,3.30339 2.56762,8.37294 z m -9.82783,-21.94628 q 0,-1.76617 -0.53123,-2.97633 -0.53124,-1.21014 -1.71176,-1.96241 -1.38711,-0.883082 -3.36447,-1.079316 -1.97738,-0.22896 -4.89917,-0.22896 h -6.96506 V 113.0114 h 7.55532 q 2.74472,0 4.36793,-0.29438 1.6232,-0.32706 3.01033,-1.30826 1.38711,-0.98121 1.94785,-2.51844 0.59026,-1.56992 0.59026,-3.69586 z m 3.74815,22.20794 q 0,-2.94361 -0.79684,-4.67708 -0.79685,-1.73346 -2.89228,-2.94361 -1.41662,-0.81768 -3.45303,-1.04662 -2.00688,-0.26166 -4.89916,-0.26166 h -9.17853 v 18.1196 h 7.73239 q 3.8367,0 6.28628,-0.4252 2.44958,-0.45789 4.01377,-1.63533 1.65273,-1.27556 2.42006,-2.91092 0.76734,-1.63533 0.76734,-4.21918 z m 39.54744,14.71809 h -5.51892 v -3.89213 q -0.73782,0.55604 -2.0069,1.56995 -1.23954,0.98119 -2.42006,1.56992 -1.38712,0.75226 -3.1874,1.24285 -1.80029,0.52332 -4.22035,0.52332 -4.45649,0 -7.55535,-3.27069 -3.09886,-3.27068 -3.09886,-8.34024 0,-4.15378 1.59371,-6.70492 1.6232,-2.58383 4.60401,-4.05563 3.01033,-1.47181 7.2307,-1.99512 4.22036,-0.52332 9.0605,-0.78498 v -0.94849 q 0,-2.09324 -0.67881,-3.46692 -0.64928,-1.37369 -1.88882,-2.15865 -1.18052,-0.75227 -2.83324,-1.01392 -1.65275,-0.26165 -3.45303,-0.26165 -2.18398,0 -4.86966,0.65414 -2.68568,0.62143 -5.54845,1.83158 h -0.29513 v -6.24701 q 1.62322,-0.49061 4.69258,-1.07933 3.06935,-0.58872 6.05017,-0.58872 3.48253,0 6.05016,0.65414 2.59715,0.62143 4.48597,2.15866 1.85933,1.50451 2.83327,3.89211 0.97391,2.3876 0.97391,5.91993 z m -5.51892,-8.99438 v -10.17183 q -2.53812,0.16353 -5.99115,0.4906 -3.4235,0.32706 -5.43039,0.9485 -2.39054,0.75226 -3.8662,2.35489 -1.47565,1.56992 -1.47565,4.35001 0,3.13987 1.71174,4.7425 1.71177,1.56991 5.2238,1.56991 2.9218,0 5.34187,-1.24286 2.42007,-1.27555 4.48598,-3.04172 z m 43.76781,8.99438 h -5.54845 v -20.80155 q 0,-2.51844 -0.26562,-4.7098 -0.26562,-2.22407 -0.97393,-3.46693 -0.73782,-1.37368 -2.12493,-2.02782 -1.38712,-0.68684 -3.6006,-0.68684 -2.2725,0 -4.75159,1.24286 -2.47909,1.24286 -4.7516,3.17257 v 27.27751 h -5.54844 v -36.53355 h 5.54844 v 4.05564 q 2.59716,-2.38759 5.37136,-3.72857 2.77423,-1.341 5.69602,-1.341 5.34186,0 8.14559,3.56506 2.80375,3.56504 2.80375,10.26995 z m 40.6099,0 h -7.31922 l -13.22183,-15.99366 -3.60059,3.79401 v 12.19965 h -5.54845 V 91.228633 h 5.54845 v 32.641427 l 16.02557,-18.28312 h 6.99459 l -15.31726,16.87673 z"
         id="text52"
         style="font-size:67.1243px;fill:#006dff;stroke-width:0.852175"
         aria-label="Bank" />
    </g>
  </g>
</svg>
