<svg width="55" height="55" viewBox="0 0 55 55" fill="none" xmlns="http://www.w3.org/2000/svg">
<circle cx="27.5" cy="27.5" r="25" fill="white" stroke="#0335C5" stroke-width="5"/>
<path fill-rule="evenodd" clip-rule="evenodd" d="M27.5 5C15.0739 5 5 15.0739 5 27.5C5 39.9261 15.0739 50 27.5 50C39.9261 50 50 39.9261 50 27.5C50 15.0739 39.9261 5 27.5 5ZM37.2527 23.6955C37.4323 23.4902 37.569 23.2511 37.6548 22.9922C37.7406 22.7333 37.7738 22.4598 37.7524 22.1879C37.7309 21.916 37.6553 21.6512 37.53 21.4089C37.4047 21.1666 37.2322 20.9519 37.0227 20.7773C36.8132 20.6027 36.5709 20.4717 36.31 20.3922C36.0491 20.3126 35.7749 20.286 35.5036 20.314C35.2323 20.3419 34.9693 20.4238 34.7302 20.5549C34.491 20.686 34.2804 20.8636 34.1109 21.0773L25.3155 31.6298L20.7643 27.0766C20.3785 26.704 19.8619 26.4978 19.3255 26.5025C18.7892 26.5071 18.2762 26.7223 17.897 27.1015C17.5177 27.4808 17.3026 27.9938 17.2979 28.5301C17.2933 29.0664 17.4994 29.5831 17.872 29.9689L24.0084 36.1052C24.2094 36.3061 24.45 36.4629 24.7149 36.5656C24.9799 36.6683 25.2633 36.7147 25.5471 36.7018C25.831 36.6889 26.109 36.617 26.3636 36.4907C26.6181 36.3644 26.8435 36.1864 27.0255 35.9682L37.2527 23.6955Z" fill="#21D19F"/>
</svg>
