<svg width="45" height="46" viewBox="0 0 45 46" fill="none" xmlns="http://www.w3.org/2000/svg">
<path d="M22.5 5C17.7261 5 13.1477 6.89642 9.77208 10.2721C6.39642 13.6477 4.5 18.2261 4.5 23C4.5 27.7739 6.39642 32.3523 9.77208 35.7279C13.1477 39.1036 17.7261 41 22.5 41C27.2739 41 31.8523 39.1036 35.2279 35.7279C38.6036 32.3523 40.5 27.7739 40.5 23C40.5 18.2261 38.6036 13.6477 35.2279 10.2721C31.8523 6.89642 27.2739 5 22.5 5ZM0 23C0 10.5733 10.0733 0.5 22.5 0.5C34.9268 0.5 45 10.5733 45 23C45 35.4268 34.9268 45.5 22.5 45.5C10.0733 45.5 0 35.4268 0 23Z" fill="white"/>
<path d="M22.5 27.5C21.9033 27.5 21.331 27.2629 20.909 26.841C20.4871 26.419 20.25 25.8467 20.25 25.25V11.75C20.25 11.1533 20.4871 10.581 20.909 10.159C21.331 9.73705 21.9033 9.5 22.5 9.5C23.0967 9.5 23.669 9.73705 24.091 10.159C24.513 10.581 24.75 11.1533 24.75 11.75V25.25C24.75 25.8467 24.513 26.419 24.091 26.841C23.669 27.2629 23.0967 27.5 22.5 27.5ZM19.125 33.125C19.125 32.2299 19.4806 31.3714 20.1135 30.7385C20.7465 30.1056 21.6049 29.75 22.5 29.75C23.3951 29.75 24.2536 30.1056 24.8865 30.7385C25.5194 31.3714 25.875 32.2299 25.875 33.125C25.875 34.0201 25.5194 34.8785 24.8865 35.5115C24.2536 36.1444 23.3951 36.5 22.5 36.5C21.6049 36.5 20.7465 36.1444 20.1135 35.5115C19.4806 34.8785 19.125 34.0201 19.125 33.125Z" fill="white"/>
</svg>
