<svg width="168" height="31" viewBox="0 0 168 31" fill="none" xmlns="http://www.w3.org/2000/svg">
<path d="M3.44478 4.32195C3.44478 2.36216 5.0335 0.773438 6.99329 0.773438H29.3489C31.3087 0.773438 32.8975 2.36216 32.8975 4.32195V26.6776C32.8975 28.6374 31.3087 30.2261 29.3489 30.2261H6.99329C5.0335 30.2261 3.44478 28.6374 3.44478 26.6776V23.062V19.2411V11.9177V8.09681V4.32195Z" fill="#286DF5"/>
<path d="M28.9176 18.5235C28.9176 18.8313 28.6681 19.0807 28.3603 19.0807C28.0526 19.0807 27.8031 18.8313 27.8031 18.5235V12.4738C27.8031 12.166 28.0526 11.9166 28.3603 11.9166C28.6681 11.9166 28.9176 12.166 28.9176 12.4738V18.5235Z" fill="white"/>
<path d="M19.6264 12.4209C19.7129 12.4641 19.8427 12.4641 19.9293 12.4209C20.1024 12.3343 20.1889 12.0747 20.1024 11.9016C19.4533 10.5601 18.1118 9.69461 16.6837 9.69461C15.6884 9.69461 14.7364 10.1274 14.0008 10.863C13.3084 11.5987 12.8756 12.5507 12.8756 13.5893C12.8756 13.6758 12.9189 13.8056 12.9622 13.8489C13.0487 13.9355 13.1353 13.9787 13.2218 13.9787C13.4382 13.9787 13.6113 13.8056 13.6113 13.5893C13.6546 11.9016 15.0393 10.4735 16.6405 10.4735C17.7656 10.4735 18.8042 11.1659 19.3667 12.2478C19.4533 12.3343 19.5398 12.4209 19.6264 12.4209Z" fill="white"/>
<path d="M16.727 21.3332C18.0252 21.3332 19.2369 20.6408 19.9293 19.5157C20.3188 18.9098 20.4919 18.2174 20.4919 17.4818V13.9766C20.4919 13.7602 20.3188 13.5871 20.1024 13.5871C19.886 13.5871 19.7129 13.7602 19.7129 13.9766V17.4818C19.7129 18.0443 19.5398 18.6069 19.2369 19.1262C18.6743 20.0349 17.7223 20.5542 16.6837 20.5542C14.9961 20.5542 13.6546 19.1695 13.6546 17.4818V15.5345C13.6546 15.3181 13.4815 15.145 13.2651 15.145C13.0487 15.145 12.8756 15.3181 12.8756 15.5345V17.4818C12.9189 19.6022 14.6066 21.3332 16.727 21.3332Z" fill="white"/>
<path d="M11.7062 13.7155C11.7062 13.4559 11.7062 13.1963 11.7495 12.8933C11.7928 12.677 11.6197 12.4606 11.4466 12.4606H11.4033C11.3167 12.4606 11.2302 12.5039 11.1869 12.5471C11.1004 12.5904 11.0571 12.7202 11.0138 12.8068C10.9706 13.1097 10.9273 13.4126 10.9273 13.7588V17.5236C10.9273 20.7259 13.5237 23.3224 16.6827 23.3224C18.63 23.3224 20.4476 22.3271 21.4861 20.6826C21.6159 20.5096 21.5727 20.2499 21.3563 20.1201C21.2698 20.0768 21.1832 20.0335 21.0534 20.0768C20.9668 20.0768 20.8803 20.1634 20.7937 20.2499C19.885 21.678 18.3271 22.5434 16.6394 22.5434C13.8699 22.5434 11.6629 20.2932 11.6629 17.5236V13.7155H11.7062Z" fill="white"/>
<path d="M22.3961 18.3025C22.4394 18.0429 22.4394 17.7833 22.4394 17.4803V13.7155C22.4394 12.1576 21.8336 10.6431 20.7517 9.51793C19.6699 8.34953 18.1986 7.70042 16.684 7.70042C14.7799 7.70042 12.9624 8.69572 11.8806 10.3834C11.7507 10.5565 11.794 10.8161 12.0104 10.946C12.0969 10.9892 12.1835 11.0325 12.3133 10.9892C12.3998 10.9892 12.4864 10.9027 12.5729 10.8161C13.525 9.34483 15.0828 8.47935 16.7272 8.47935C19.4535 8.47935 21.7037 10.8594 21.7037 13.7155V17.4803C21.7037 17.6967 21.7037 17.9564 21.6605 18.1727C21.6172 18.3891 21.7903 18.6055 22.0067 18.6055C22.1798 18.6487 22.3961 18.4756 22.3961 18.3025Z" fill="white"/>
<path d="M9.37031 16.6593C9.58668 16.6593 9.75978 16.4862 9.75978 16.2698V13.7599C9.75978 9.82201 12.9188 6.48991 16.6836 6.48991H16.7269C20.1455 6.48991 23.1314 9.30272 23.6074 12.8512C23.6074 12.9377 23.694 13.0676 23.7373 13.1108C23.8238 13.1541 23.9104 13.1974 24.0402 13.1974C24.2566 13.1541 24.3864 12.981 24.3864 12.7646C24.17 10.8606 23.2613 9.08635 21.8765 7.78813C20.4484 6.44664 18.6309 5.71098 16.7702 5.71098C14.693 5.71098 12.7457 6.57646 11.2744 8.13432C9.84632 9.64891 9.02412 11.6828 9.02412 13.7599V16.2698C8.98084 16.4862 9.15394 16.6593 9.37031 16.6593Z" fill="white"/>
<path d="M24.0404 14.4116C23.824 14.4116 23.6509 14.5847 23.6509 14.8011V17.4408C23.6509 21.2922 20.5352 24.4512 16.7271 24.4512C13.1786 24.4512 10.1927 21.7682 9.84655 18.1765C9.84655 18.0899 9.80327 17.9601 9.71672 17.9168C9.63017 17.8736 9.54363 17.8303 9.45708 17.8303H9.41381C9.32726 17.8303 9.19744 17.8736 9.15416 17.9601C9.06761 18.0467 9.06761 18.1332 9.06761 18.263C9.28398 20.1671 10.1495 21.9413 11.5775 23.2395C13.0055 24.5378 14.8231 25.2734 16.7704 25.2734C21.0112 25.2734 24.4731 21.7682 24.4731 17.4841V14.8444C24.4299 14.5847 24.2568 14.4116 24.0404 14.4116Z" fill="white"/>
<path d="M16.6836 13.242C15.6883 13.242 14.9094 14.0642 14.9094 15.0595C14.9094 15.4922 15.0825 15.925 15.3421 16.2279L15.3854 16.2712V17.4396C15.3854 17.6559 15.5585 17.829 15.7749 17.829H17.6789C17.8953 17.829 18.0684 17.6559 18.0684 17.4396V16.2712L18.1116 16.2279C18.4146 15.8817 18.5444 15.4922 18.5444 15.0595C18.4578 14.0209 17.6356 13.242 16.6836 13.242ZM17.3327 15.8384C17.3327 15.8384 17.2029 15.925 17.2029 16.0548C17.2029 16.1846 17.2029 17.0501 17.2029 17.0501H16.0778C16.0778 17.0501 16.0778 16.2279 16.0778 16.0548C16.0778 15.925 15.9912 15.8384 15.9912 15.8384C15.7749 15.622 15.645 15.3624 15.645 15.0595C15.645 14.4969 16.121 14.0209 16.6836 14.0209C17.2462 14.0209 17.7222 14.4969 17.7222 15.0595C17.7222 15.3191 17.5924 15.622 17.3327 15.8384Z" fill="white"/>
<path d="M46.7455 24.4998V7.69978H58.7695V9.33178H48.5935V15.3318H55.2655V16.9398H48.5935V24.4998H46.7455Z" fill="#286DF5"/>
<path d="M61.3236 24.4998V7.69978H63.1716V24.4998H61.3236Z" fill="#286DF5"/>
<path d="M68.7263 22.8198H72.5183C73.4943 22.8198 74.3983 22.6518 75.2303 22.3158C76.0623 21.9798 76.7903 21.5078 77.4143 20.8998C78.0383 20.2918 78.5183 19.5798 78.8543 18.7638C79.2063 17.9478 79.3823 17.0598 79.3823 16.0998C79.3823 15.1398 79.2063 14.2518 78.8543 13.4358C78.5183 12.6198 78.0383 11.9078 77.4143 11.2998C76.7903 10.6918 76.0623 10.2198 75.2303 9.88378C74.3983 9.54778 73.4943 9.37978 72.5183 9.37978H68.7263V22.8198ZM66.8783 24.4998V7.69978H72.4223C73.7023 7.69978 74.8783 7.90778 75.9503 8.32378C77.0223 8.73978 77.9503 9.32378 78.7343 10.0758C79.5343 10.8278 80.1503 11.7158 80.5823 12.7398C81.0303 13.7638 81.2543 14.8838 81.2543 16.0998C81.2543 17.3158 81.0383 18.4358 80.6063 19.4598C80.1743 20.4838 79.5583 21.3718 78.7583 22.1238C77.9743 22.8758 77.0383 23.4598 75.9503 23.8758C74.8783 24.2918 73.7023 24.4998 72.4223 24.4998H66.8783Z" fill="#286DF5"/>
<path d="M92.0237 24.7638C90.8077 24.7638 89.6717 24.5478 88.6157 24.1158C87.5757 23.6678 86.6557 23.0518 85.8557 22.2678C85.0717 21.4678 84.4557 20.5478 84.0077 19.5078C83.5757 18.4518 83.3597 17.3158 83.3597 16.0998C83.3597 14.8838 83.5757 13.7558 84.0077 12.7158C84.4557 11.6598 85.0717 10.7398 85.8557 9.95578C86.6557 9.15578 87.5757 8.53978 88.6157 8.10778C89.6717 7.65978 90.8077 7.43578 92.0237 7.43578C93.2237 7.43578 94.3437 7.65978 95.3837 8.10778C96.4397 8.53978 97.3597 9.15578 98.1437 9.95578C98.9437 10.7398 99.5597 11.6598 99.9917 12.7158C100.44 13.7558 100.664 14.8838 100.664 16.0998C100.664 17.3158 100.44 18.4518 99.9917 19.5078C99.5597 20.5478 98.9437 21.4678 98.1437 22.2678C97.3597 23.0518 96.4397 23.6678 95.3837 24.1158C94.3437 24.5478 93.2237 24.7638 92.0237 24.7638ZM92.0237 23.0598C92.9837 23.0598 93.8717 22.8838 94.6877 22.5318C95.5037 22.1798 96.2157 21.6918 96.8237 21.0678C97.4477 20.4278 97.9277 19.6838 98.2637 18.8358C98.6157 17.9878 98.7917 17.0758 98.7917 16.0998C98.7917 15.1078 98.6157 14.1958 98.2637 13.3638C97.9277 12.5158 97.4477 11.7798 96.8237 11.1558C96.2157 10.5158 95.5037 10.0198 94.6877 9.66778C93.8717 9.31578 92.9837 9.13978 92.0237 9.13978C91.0637 9.13978 90.1677 9.31578 89.3357 9.66778C88.5197 10.0198 87.7997 10.5158 87.1757 11.1558C86.5677 11.7798 86.0877 12.5158 85.7357 13.3638C85.3997 14.1958 85.2317 15.0998 85.2317 16.0758C85.2317 17.0678 85.3997 17.9878 85.7357 18.8358C86.0877 19.6838 86.5677 20.4278 87.1757 21.0678C87.7997 21.6918 88.5197 22.1798 89.3357 22.5318C90.1677 22.8838 91.0637 23.0598 92.0237 23.0598Z" fill="#286DF5"/>
<path d="M113.446 24.4998L106.63 7.69978H110.398L115.534 20.9238L120.79 7.69978H124.39L117.478 24.4998H113.446Z" fill="#286DF5"/>
<path d="M128.337 24.7158C127.441 24.7158 126.649 24.5558 125.961 24.2358C125.273 23.8998 124.737 23.4438 124.353 22.8678C123.969 22.2918 123.777 21.6278 123.777 20.8758C123.777 19.6758 124.225 18.7478 125.121 18.0918C126.033 17.4198 127.281 17.0838 128.865 17.0838C129.953 17.0838 130.977 17.2518 131.937 17.5878V16.6758C131.937 15.9558 131.713 15.4118 131.265 15.0438C130.817 14.6758 130.161 14.4918 129.297 14.4918C128.769 14.4918 128.201 14.5798 127.593 14.7558C126.985 14.9158 126.281 15.1718 125.481 15.5238L124.281 13.0998C125.273 12.6518 126.217 12.3158 127.113 12.0918C128.025 11.8678 128.937 11.7558 129.849 11.7558C131.529 11.7558 132.833 12.1638 133.761 12.9798C134.705 13.7798 135.177 14.9158 135.177 16.3878V24.4998H131.937V23.6118C131.425 23.9958 130.873 24.2758 130.281 24.4518C129.689 24.6278 129.041 24.7158 128.337 24.7158ZM126.897 20.8038C126.897 21.2838 127.105 21.6678 127.521 21.9558C127.937 22.2278 128.489 22.3638 129.177 22.3638C129.721 22.3638 130.225 22.2998 130.689 22.1718C131.153 22.0278 131.569 21.8198 131.937 21.5478V19.7238C131.537 19.5638 131.121 19.4438 130.689 19.3638C130.257 19.2838 129.793 19.2438 129.297 19.2438C128.545 19.2438 127.953 19.3878 127.521 19.6758C127.105 19.9478 126.897 20.3238 126.897 20.8038Z" fill="#286DF5"/>
<path d="M142.696 24.7398C141.736 24.7398 140.88 24.5318 140.128 24.1158C139.392 23.6838 138.808 23.0918 138.376 22.3398C137.96 21.5878 137.752 20.7238 137.752 19.7478V11.9958H141.04V19.2678C141.04 20.0678 141.272 20.7078 141.736 21.1878C142.216 21.6678 142.856 21.9078 143.656 21.9078C144.2 21.9078 144.688 21.8038 145.12 21.5958C145.568 21.3718 145.936 21.0598 146.224 20.6598V11.9958H149.512V24.4998H146.224V23.4918C145.264 24.3238 144.088 24.7398 142.696 24.7398Z" fill="#286DF5"/>
<path d="M152.375 24.4998V7.69978L155.663 7.14778V24.4998H152.375Z" fill="#286DF5"/>
<path d="M164.462 24.6918C163.07 24.6918 162.014 24.3798 161.294 23.7558C160.59 23.1158 160.238 22.1878 160.238 20.9718V14.7318H157.67V11.9958H160.238V8.80378L163.526 8.05978V11.9958H167.102V14.7318H163.526V20.2998C163.526 20.8758 163.654 21.2918 163.91 21.5478C164.166 21.7878 164.614 21.9078 165.254 21.9078C165.574 21.9078 165.862 21.8918 166.118 21.8598C166.39 21.8118 166.686 21.7318 167.006 21.6198V24.3318C166.67 24.4438 166.254 24.5318 165.758 24.5958C165.262 24.6598 164.83 24.6918 164.462 24.6918Z" fill="#286DF5"/>
<path fill-rule="evenodd" clip-rule="evenodd" d="M3.44478 11.9177H6.21928C6.70922 11.9177 7.10641 11.5205 7.10641 11.0306V8.98394C7.10641 8.49399 6.70922 8.09681 6.21928 8.09681H3.44478V11.9177Z" fill="#286DF5"/>
<path d="M0.897461 8.98394V11.0306C0.897461 11.5205 1.29464 11.9177 1.78459 11.9177H3.44478V8.09681H1.78459C1.29464 8.09681 0.897461 8.49399 0.897461 8.98394Z" fill="#286DF5"/>
<path fill-rule="evenodd" clip-rule="evenodd" d="M3.44478 23.062H6.21928C6.70922 23.062 7.10641 22.6648 7.10641 22.1748V20.1282C7.10641 19.6382 6.70922 19.2411 6.21928 19.2411H3.44478V23.062Z" fill="#286DF5"/>
<path d="M0.897461 20.1282V22.1748C0.897461 22.6648 1.29464 23.062 1.78459 23.062H3.44478V19.2411H1.78459C1.29464 19.2411 0.897461 19.6382 0.897461 20.1282Z" fill="#286DF5"/>
</svg>
