<svg width="20" height="20" viewBox="0 0 20 20" fill="none" xmlns="http://www.w3.org/2000/svg">
<path d="M9.66667 11.3333C11.9679 11.3333 13.8333 9.46785 13.8333 7.16667C13.8333 4.86548 11.9679 3 9.66667 3C7.36548 3 5.5 4.86548 5.5 7.16667C5.5 9.46785 7.36548 11.3333 9.66667 11.3333Z" fill="#C4C4C4" stroke="#615E5E" stroke-width="2" stroke-linecap="round" stroke-linejoin="round"/>
<path d="M16.3333 17.9987C16.3333 16.2306 15.631 14.5349 14.3807 13.2847C13.1305 12.0344 11.4348 11.332 9.66667 11.332C7.89856 11.332 6.20286 12.0344 4.95262 13.2847C3.70238 14.5349 3 16.2306 3 17.9987" fill="#C4C4C4"/>
<path d="M16.3333 17.9987C16.3333 16.2306 15.631 14.5349 14.3807 13.2847C13.1305 12.0344 11.4348 11.332 9.66667 11.332C7.89856 11.332 6.20286 12.0344 4.95262 13.2847C3.70238 14.5349 3 16.2306 3 17.9987" stroke="#615E5E" stroke-width="2" stroke-linecap="round" stroke-linejoin="round"/>
<path d="M9.66667 11.332C7.89856 11.332 6.20286 12.0344 4.95262 13.2847C3.70238 14.5349 3 16.2306 3 17.9987H16.3333C16.3333 16.2306 15.631 14.5349 14.3807 13.2847C13.1305 12.0344 11.4348 11.332 9.66667 11.332Z" fill="#C4C4C4" stroke="#615E5E" stroke-width="2" stroke-linecap="round" stroke-linejoin="round"/>
</svg>
