<svg width="20" height="20" viewBox="0 0 20 20" fill="none" xmlns="http://www.w3.org/2000/svg">
<path d="M16.6561 11.6041C15.6868 11.6425 14.8699 10.8879 14.8315 9.91856C14.7931 8.94927 15.5478 8.1324 16.5171 8.09402C17.4864 8.05565 18.3032 8.8103 18.3416 9.7796C18.38 10.7489 17.6253 11.5658 16.6561 11.6041Z" fill="#615E5E"/>
<path d="M4.13535 18.9986C3.16605 19.037 2.34918 18.2823 2.3108 17.313C2.27243 16.3437 3.02708 15.5269 3.99638 15.4885C4.96567 15.4501 5.78254 16.2048 5.82092 17.1741C5.85929 18.1433 5.10464 18.9602 4.13535 18.9986Z" fill="#615E5E"/>
<path d="M3.48293 4.51151C2.51363 4.54989 1.69676 3.79523 1.65838 2.82594C1.62001 1.85665 2.37466 1.03978 3.34396 1.0014C4.31325 0.963026 5.13012 1.71768 5.1685 2.68697C5.20687 3.65626 4.45222 4.47314 3.48293 4.51151Z" fill="#615E5E"/>
<path fill-rule="evenodd" clip-rule="evenodd" d="M4.45798 16.5747L15.0113 9.91164L3.96424 4.10372L4.45798 16.5747ZM15.5884 10.8256C16.292 10.3814 16.2508 9.3421 15.5143 8.95488L4.46724 3.14697C3.73073 2.75975 2.85124 3.31504 2.88416 4.14648L3.3779 16.6175C3.41082 17.4489 4.33146 17.933 5.03505 17.4887L15.5884 10.8256Z" fill="#615E5E"/>
<path fill-rule="evenodd" clip-rule="evenodd" d="M8.18631 7.25976C7.53506 7.25976 7.00712 7.7877 7.00712 8.43895C7.00712 9.0902 7.53506 9.61814 8.18631 9.61814C8.83756 9.61814 9.36551 9.0902 9.36551 8.43895C9.36551 7.7877 8.83756 7.25976 8.18631 7.25976ZM5.43487 8.43895C5.43487 6.91936 6.66673 5.6875 8.18631 5.6875C9.70589 5.6875 10.9378 6.91936 10.9378 8.43895C10.9378 9.95853 9.70589 11.1904 8.18631 11.1904C6.66673 11.1904 5.43487 9.95853 5.43487 8.43895Z" fill="#615E5E"/>
<path fill-rule="evenodd" clip-rule="evenodd" d="M5.5488 13.5488H10.8238C10.4856 12.4122 9.43274 11.5835 8.18631 11.5835C6.93988 11.5835 5.88705 12.4122 5.5488 13.5488ZM3.86261 14.3349C3.86261 11.947 5.79838 10.0112 8.18631 10.0112C10.5742 10.0112 12.51 11.947 12.51 14.3349C12.51 14.7691 12.1581 15.121 11.7239 15.121H4.64874C4.21457 15.121 3.86261 14.7691 3.86261 14.3349Z" fill="#615E5E"/>
</svg>
