<svg width="264" height="457" viewBox="0 0 264 457" fill="none" xmlns="http://www.w3.org/2000/svg">
    <g clip-path="url(#clip0_774_9872)">
        <path d="M264 -0.300781H0V456.699H264V-0.300781Z" fill="#0A74FF" />
        <path d="M264 0H0V457H264V0Z" fill="#0A74FF" />
        <path d="M264.7 151.801L265.2 304.301L132.5 381.001L132 228.501L264.7 151.801Z" fill="#0062FF" />
        <path d="M264.7 151.8L132 228.5L-1.19995 152.7L131.5 76L264.7 151.8Z" fill="#005CFF" />
        <path d="M132 228.499L132.5 380.999L-0.699951 305.199L-1.19995 152.699L132 228.499Z" fill="#0055FF" />
        <path d="M48.0001 277.098L47.6001 180.498L131.7 131.898L132 228.498L48.0001 277.098Z" fill="#0062FF" />
        <path d="M48 277.1L132 228.5L216.4 276.5L132.3 325.1L48 277.1Z" fill="#005CFF" />
        <path d="M132 228.498L131.7 131.898L216 179.898L216.4 276.498L132 228.498Z" fill="#0055FF" />
        <path d="M132 -75.5V76.5L0.5 152.5V0.5L132 -75.5Z" fill="#0062FF" />
        <path d="M132 -75.5L0.5 0.5L-131 -75.5L0.5 -151.5L132 -75.5Z" fill="#005CFF" />
        <path d="M0.5 0.5V152.5L-131 76.5V-75.5L0.5 0.5Z" fill="#0055FF" />
        <path d="M-82.8 48.5992V-47.7008L0.499954 -95.8008V0.499222L-82.8 48.5992Z" fill="#0062FF" />
        <path d="M-82.8 48.6L0.499954 0.5L83.8 48.6L0.499954 96.8L-82.8 48.6Z" fill="#005CFF" />
        <path d="M0.5 0.499222V-95.8008L83.8 -47.7008V48.5992L0.5 0.499222Z" fill="#0055FF" />
        <path d="M395 -75.5V76.5L263.5 152.5V0.5L395 -75.5Z" fill="#0062FF" />
        <path d="M395 -75.5L263.5 0.5L132 -75.5L263.5 -151.5L395 -75.5Z" fill="#005CFF" />
        <path d="M263.5 0.5V152.5L132 76.5V-75.5L263.5 0.5Z" fill="#0055FF" />
        <path d="M180.2 48.5992V-47.7008L263.5 -95.8008V0.499222L180.2 48.5992Z" fill="#0062FF" />
        <path d="M180.2 48.6L263.5 0.5L346.8 48.6L263.5 96.8L180.2 48.6Z" fill="#005CFF" />
        <path d="M263.5 0.499222V-95.8008L346.8 -47.7008V48.5992L263.5 0.499222Z" fill="#0055FF" />
        <path d="M132 380.5V532.5L0.5 608.5V456.5L132 380.5Z" fill="#0062FF" />
        <path d="M132 380.5L0.5 456.5L-131 380.5L0.5 304.5L132 380.5Z" fill="#005CFF" />
        <path d="M0.5 456.5V608.5L-131 532.5V380.5L0.5 456.5Z" fill="#0055FF" />
        <path d="M-82.8 504.699V408.299L0.499954 360.199V456.499L-82.8 504.699Z" fill="#0062FF" />
        <path d="M-82.8 504.7L0.499954 456.5L83.8 504.7L0.499954 552.8L-82.8 504.7Z" fill="#005CFF" />
        <path d="M0.5 456.499V360.199L83.8 408.299V504.699L0.5 456.499Z" fill="#0055FF" />
        <path d="M395 380.5V532.5L263.5 608.5V456.5L395 380.5Z" fill="#0062FF" />
        <path d="M395 380.5L263.5 456.5L132 380.5L263.5 304.5L395 380.5Z" fill="#005CFF" />
        <path d="M263.5 456.5V608.5L132 532.5V380.5L263.5 456.5Z" fill="#0055FF" />
        <path d="M180.2 504.699V408.299L263.5 360.199V456.499L180.2 504.699Z" fill="#0062FF" />
        <path d="M180.2 504.7L263.5 456.5L346.8 504.7L263.5 552.8L180.2 504.7Z" fill="#005CFF" />
        <path d="M263.5 456.499V360.199L346.8 408.299V504.699L263.5 456.499Z" fill="#0055FF" />
    </g>
    <defs>
        <clipPath id="clip0_774_9872">
            <rect width="264" height="457" fill="white" />
        </clipPath>
    </defs>
</svg>