<?xml version="1.0" encoding="utf-8"?>
<!-- Generator: Adobe Illustrator 26.0.3, SVG Export Plug-In . SVG Version: 6.00 Build 0)  -->
<svg version="1.1" id="Layer_1" xmlns="http://www.w3.org/2000/svg" xmlns:xlink="http://www.w3.org/1999/xlink" x="0px" y="0px"
	 viewBox="0 0 264 457" style="enable-background:new 0 0 264 457;" xml:space="preserve">
<style type="text/css">
	.st0{fill:#0A74FF;}
	.st1{clip-path:url(#SVGID_00000178202478967243452970000011779547672748835242_);}
	.st2{fill:#0062FF;}
	.st3{fill:#005CFF;}
	.st4{fill:#0055FF;}
</style>
<rect y="-0.3" class="st0" width="264" height="457"/>
<g>
	<g>
		<defs>
			<rect id="SVGID_1_" y="-0.3" width="264" height="457"/>
		</defs>
		<clipPath id="SVGID_00000135657899807094130270000007778351446915542415_">
			<use xlink:href="#SVGID_1_"  style="overflow:visible;"/>
		</clipPath>
		<g style="clip-path:url(#SVGID_00000135657899807094130270000007778351446915542415_);">
			<rect class="st0" width="264" height="457"/>
			<polygon class="st2" points="264.7,151.8 265.2,304.3 132.5,381 132,228.5 			"/>
			<polygon class="st3" points="264.7,151.8 132,228.5 -1.2,152.7 131.5,76 			"/>
			<polygon class="st4" points="132,228.5 132.5,381 -0.7,305.2 -1.2,152.7 			"/>
			<polygon class="st2" points="48,277.1 47.6,180.5 131.7,131.9 132,228.5 			"/>
			<polygon class="st3" points="48,277.1 132,228.5 216.4,276.5 132.3,325.1 			"/>
			<polygon class="st4" points="132,228.5 131.7,131.9 216,179.9 216.4,276.5 			"/>
			<polygon class="st2" points="132,-75.5 132,76.5 0.5,152.5 0.5,0.5 			"/>
			<polygon class="st3" points="132,-75.5 0.5,0.5 -131,-75.5 0.5,-151.5 			"/>
			<polygon class="st4" points="0.5,0.5 0.5,152.5 -131,76.5 -131,-75.5 			"/>
			<polygon class="st2" points="-82.8,48.6 -82.8,-47.7 0.5,-95.8 0.5,0.5 			"/>
			<polygon class="st3" points="-82.8,48.6 0.5,0.5 83.8,48.6 0.5,96.8 			"/>
			<polygon class="st4" points="0.5,0.5 0.5,-95.8 83.8,-47.7 83.8,48.6 			"/>
			<polygon class="st2" points="395,-75.5 395,76.5 263.5,152.5 263.5,0.5 			"/>
			<polygon class="st3" points="395,-75.5 263.5,0.5 132,-75.5 263.5,-151.5 			"/>
			<polygon class="st4" points="263.5,0.5 263.5,152.5 132,76.5 132,-75.5 			"/>
			<polygon class="st2" points="180.2,48.6 180.2,-47.7 263.5,-95.8 263.5,0.5 			"/>
			<polygon class="st3" points="180.2,48.6 263.5,0.5 346.8,48.6 263.5,96.8 			"/>
			<polygon class="st4" points="263.5,0.5 263.5,-95.8 346.8,-47.7 346.8,48.6 			"/>
			<polygon class="st2" points="132,380.5 132,532.5 0.5,608.5 0.5,456.5 			"/>
			<polygon class="st3" points="132,380.5 0.5,456.5 -131,380.5 0.5,304.5 			"/>
			<polygon class="st4" points="0.5,456.5 0.5,608.5 -131,532.5 -131,380.5 			"/>
			<polygon class="st2" points="-82.8,504.7 -82.8,408.3 0.5,360.2 0.5,456.5 			"/>
			<polygon class="st3" points="-82.8,504.7 0.5,456.5 83.8,504.7 0.5,552.8 			"/>
			<polygon class="st4" points="0.5,456.5 0.5,360.2 83.8,408.3 83.8,504.7 			"/>
			<polygon class="st2" points="395,380.5 395,532.5 263.5,608.5 263.5,456.5 			"/>
			<polygon class="st3" points="395,380.5 263.5,456.5 132,380.5 263.5,304.5 			"/>
			<polygon class="st4" points="263.5,456.5 263.5,608.5 132,532.5 132,380.5 			"/>
			<polygon class="st2" points="180.2,504.7 180.2,408.3 263.5,360.2 263.5,456.5 			"/>
			<polygon class="st3" points="180.2,504.7 263.5,456.5 346.8,504.7 263.5,552.8 			"/>
			<polygon class="st4" points="263.5,456.5 263.5,360.2 346.8,408.3 346.8,504.7 			"/>
		</g>
	</g>
</g>
</svg>
