<svg width="30" height="28" viewBox="0 0 30 28" fill="none" xmlns="http://www.w3.org/2000/svg">
<path d="M2.7289 4.10495V6.90795H1.77624C1.07139 6.90795 0.5 7.47934 0.5 8.18419V9.97499C0.5 10.6798 1.07139 11.2512 1.77624 11.2512H2.7289V16.6592H1.77624C1.07139 16.6592 0.5 17.2306 0.5 17.9354V19.7262C0.5 20.4311 1.07139 21.0025 1.77624 21.0025H2.7289V23.6661C2.7289 25.6571 4.34289 27.2711 6.33385 27.2711H25.895C27.886 27.2711 29.5 25.6571 29.5 23.6661V4.10495C29.5 2.11399 27.886 0.5 25.895 0.5H6.33385C4.34289 0.5 2.7289 2.11399 2.7289 4.10495Z" fill="url(#paint0_linear_766_19288)" stroke="white"/>
<rect x="25.5175" y="17.0195" width="0.975123" height="6.26865" rx="0.487562" transform="rotate(-180 25.5175 17.0195)" fill="white"/>
<path d="M17.3879 11.1902C17.4636 11.228 17.5772 11.228 17.6529 11.1902C17.8044 11.1144 17.8801 10.8872 17.8044 10.7358C17.2364 9.56198 16.0626 8.80469 14.8131 8.80469C13.9422 8.80469 13.1091 9.18333 12.4654 9.82703C11.8596 10.4707 11.481 11.3038 11.481 12.2125C11.481 12.2882 11.5188 12.4018 11.5567 12.4397C11.6324 12.5154 11.7081 12.5533 11.7839 12.5533C11.9732 12.5533 12.1247 12.4018 12.1247 12.2125C12.1625 10.7358 13.3742 9.48625 14.7752 9.48625C15.7597 9.48625 16.6684 10.0921 17.1607 11.0387C17.2364 11.1144 17.3121 11.1902 17.3879 11.1902Z" fill="white"/>
<path d="M14.8509 18.9887C15.9869 18.9887 17.0471 18.3829 17.6529 17.3984C17.9937 16.8683 18.1451 16.2625 18.1451 15.6188V12.5517C18.1451 12.3624 17.9937 12.2109 17.8044 12.2109C17.615 12.2109 17.4636 12.3624 17.4636 12.5517V15.6188C17.4636 16.111 17.3121 16.6032 17.0471 17.0576C16.5548 17.8528 15.7218 18.3072 14.8131 18.3072C13.3363 18.3072 12.1625 17.0955 12.1625 15.6188V13.9148C12.1625 13.7255 12.0111 13.5741 11.8217 13.5741C11.6324 13.5741 11.481 13.7255 11.481 13.9148V15.6188C11.5188 17.4741 12.9955 18.9887 14.8509 18.9887Z" fill="white"/>
<path d="M10.4576 12.3246C10.4576 12.0975 10.4576 11.8703 10.4954 11.6052C10.5333 11.4159 10.3818 11.2266 10.2304 11.2266H10.1925C10.1168 11.2266 10.0411 11.2644 10.0032 11.3023C9.92746 11.3402 9.8896 11.4538 9.85173 11.5295C9.81387 11.7945 9.776 12.0596 9.776 12.3625V15.6567C9.776 18.4587 12.0479 20.7306 14.812 20.7306C16.5159 20.7306 18.1062 19.8597 19.015 18.4209C19.1286 18.2694 19.0907 18.0422 18.9014 17.9286C18.8257 17.8908 18.7499 17.8529 18.6363 17.8908C18.5606 17.8908 18.4849 17.9665 18.4092 18.0422C17.614 19.2917 16.2509 20.049 14.7741 20.049C12.3508 20.049 10.4197 18.0801 10.4197 15.6567V12.3246H10.4576Z" fill="white"/>
<path d="M19.8112 16.3394C19.8491 16.1122 19.8491 15.885 19.8491 15.6199V12.3257C19.8491 10.9626 19.319 9.6373 18.3724 8.65282C17.4257 7.63047 16.1383 7.0625 14.8131 7.0625C13.147 7.0625 11.5567 7.93339 10.6101 9.41011C10.4965 9.56157 10.5344 9.78876 10.7237 9.90235C10.7994 9.94022 10.8752 9.97808 10.9887 9.94022C11.0645 9.94022 11.1402 9.86449 11.2159 9.78876C12.049 8.50136 13.4121 7.74406 14.8509 7.74406C17.2364 7.74406 19.2054 9.82662 19.2054 12.3257V15.6199C19.2054 15.8092 19.2054 16.0364 19.1675 16.2258C19.1297 16.4151 19.2811 16.6044 19.4704 16.6044C19.6219 16.6423 19.8112 16.4908 19.8112 16.3394Z" fill="white"/>
<path d="M8.41368 14.9001C8.603 14.9001 8.75446 14.7486 8.75446 14.5593V12.3632C8.75446 8.91746 11.5186 6.00188 14.8128 6.00188H14.8507C17.842 6.00188 20.4547 8.46308 20.8712 11.568C20.8712 11.6437 20.9469 11.7573 20.9848 11.7952C21.0605 11.833 21.1362 11.8709 21.2498 11.8709C21.4391 11.833 21.5527 11.6816 21.5527 11.4923C21.3634 9.82621 20.5683 8.27376 19.3566 7.13782C18.107 5.96401 16.5167 5.32031 14.8885 5.32031C13.071 5.32031 11.3671 6.07761 10.0797 7.44074C8.83019 8.766 8.11076 10.5456 8.11076 12.3632V14.5593C8.0729 14.7486 8.22435 14.9001 8.41368 14.9001Z" fill="white"/>
<path d="M21.2501 12.9336C21.0608 12.9336 20.9093 13.0851 20.9093 13.2744V15.5841C20.9093 18.9541 18.1831 21.7182 14.851 21.7182C11.7461 21.7182 9.13341 19.3706 8.83049 16.2278C8.83049 16.1521 8.79263 16.0385 8.7169 16.0006C8.64117 15.9628 8.56544 15.9249 8.48971 15.9249H8.45184C8.37611 15.9249 8.26252 15.9628 8.22466 16.0385C8.14893 16.1142 8.14893 16.19 8.14893 16.3036C8.33825 17.9696 9.09554 19.5221 10.3451 20.658C11.5946 21.7939 13.1849 22.4376 14.8888 22.4376C18.5996 22.4376 21.6288 19.3706 21.6288 15.622V13.3122C21.5909 13.0851 21.4394 12.9336 21.2501 12.9336Z" fill="white"/>
<path d="M14.8128 11.9102C13.9419 11.9102 13.2603 12.6296 13.2603 13.5005C13.2603 13.8791 13.4118 14.2578 13.639 14.5228L13.6768 14.5607V15.583C13.6768 15.7724 13.8283 15.9238 14.0176 15.9238H14.8506H15.6837C15.873 15.9238 16.0244 15.7724 16.0244 15.583V14.5607L16.0623 14.5228C16.3274 14.2199 16.441 13.8791 16.441 13.5005C16.3652 12.5917 15.6458 11.9102 14.8128 11.9102ZM15.3807 14.182C15.3807 14.182 15.2671 14.2578 15.2671 14.3714C15.2671 14.485 15.2671 15.2423 15.2671 15.2423H14.7749H14.2827C14.2827 15.2423 14.2827 14.5228 14.2827 14.3714C14.2827 14.2578 14.2069 14.182 14.2069 14.182C14.0176 13.9927 13.904 13.7655 13.904 13.5005C13.904 13.0082 14.3205 12.5917 14.8128 12.5917C15.305 12.5917 15.7215 13.0082 15.7215 13.5005C15.7215 13.7277 15.6079 13.9927 15.3807 14.182Z" fill="white"/>
<defs>
<linearGradient id="paint0_linear_766_19288" x1="1" y1="1" x2="28.9446" y2="26.7711" gradientUnits="userSpaceOnUse">
<stop stop-color="#2669F0"/>
<stop offset="1" stop-color="#0335C5"/>
</linearGradient>
</defs>
</svg>
