<svg width="87" height="24" viewBox="0 0 87 24" fill="none" xmlns="http://www.w3.org/2000/svg">
    <path d="M23.2889 5.04297L25.4871 5.04297L25.4871 16.4056L32.1314 16.4056L32.1314 18.5295L23.2889 18.5295L23.2889 5.04297Z" fill="white" />
    <path d="M38.0764 18.7427C37.327 18.7427 36.6776 18.5834 36.0781 18.3179C35.4786 18.0525 34.929 17.6808 34.4794 17.2029C34.0298 16.7251 33.6801 16.1941 33.4303 15.5038C33.1805 14.8667 33.0306 14.1764 33.0306 13.4862L33.0306 13.4331C33.0306 12.6897 33.1805 11.9995 33.4303 11.3623C33.6801 10.7251 34.0298 10.1411 34.4794 9.66321C34.929 9.18534 35.4786 8.81366 36.0781 8.49509C36.6776 8.2296 37.377 8.07031 38.1263 8.07031C38.8757 8.07031 39.5251 8.2296 40.1746 8.49509C40.7741 8.76057 41.3236 9.13224 41.7732 9.61011C42.2229 10.088 42.5726 10.672 42.8223 11.3092C43.0721 11.9464 43.222 12.6366 43.222 13.38L43.222 13.4331C43.222 14.1764 43.0721 14.8136 42.8223 15.4507C42.5726 16.0879 42.2229 16.672 41.7732 17.1498C41.3236 17.6277 40.7741 17.9994 40.1746 18.3179C39.4752 18.5834 38.8257 18.7427 38.0764 18.7427ZM38.1263 16.7251C38.5759 16.7251 38.9756 16.6189 39.3253 16.4596C39.675 16.3003 39.9748 16.0348 40.2245 15.7693C40.4743 15.4507 40.6742 15.1322 40.824 14.7605C40.9739 14.3888 41.0239 13.964 41.0239 13.5393L41.0239 13.4862C41.0239 13.0614 40.9739 12.6366 40.824 12.2118C40.6742 11.8402 40.4743 11.4685 40.2245 11.1499C39.9748 10.8313 39.675 10.6189 39.3253 10.4597C38.9756 10.3004 38.5759 10.1942 38.1263 10.1942C37.6767 10.1942 37.277 10.3004 36.9273 10.4597C36.5776 10.6189 36.2779 10.8844 36.0281 11.1499C35.7783 11.4154 35.5785 11.7871 35.4286 12.1587C35.2787 12.5304 35.2288 12.9552 35.2288 13.4331L35.2288 13.4862C35.2288 13.9109 35.2787 14.3357 35.4286 14.7605C35.5785 15.1322 35.7783 15.5038 36.0281 15.8224C36.2779 16.141 36.5776 16.3534 36.9273 16.5127C37.277 16.6189 37.6767 16.7251 38.1263 16.7251Z" fill="white" />
    <path d="M48.9671 21.6083C47.3684 21.6083 45.9696 21.1836 44.6707 20.3871L45.47 18.6349C45.9696 18.9535 46.5192 19.219 47.0687 19.4314C47.6182 19.6438 48.2177 19.6969 48.8672 19.6969C49.8663 19.6969 50.6157 19.4314 51.1153 18.9004C51.6148 18.3695 51.9146 17.573 51.9146 16.5642L51.9146 15.7677C51.5149 16.2987 51.0653 16.7766 50.5158 17.0951C49.9662 17.4668 49.3168 17.6261 48.5175 17.6261C47.9679 17.6261 47.4184 17.5199 46.8689 17.3075C46.3693 17.0951 45.8697 16.7766 45.47 16.3518C45.0704 15.927 44.7207 15.4491 44.5208 14.8651C44.2711 14.281 44.1711 13.5908 44.1711 12.8474L44.1711 12.7943C44.1711 12.051 44.2711 11.3607 44.5208 10.7766C44.7706 10.1926 45.0704 9.66162 45.47 9.28994C45.8697 8.86517 46.3193 8.59969 46.8689 8.3342C47.4184 8.12182 47.918 8.01562 48.4675 8.01562C49.2668 8.01562 49.9662 8.17491 50.4658 8.54659C51.0153 8.86517 51.465 9.28994 51.8147 9.76781L51.8147 8.22801L54.0128 8.22801L54.0128 16.2987C54.0128 17.9978 53.6131 19.2721 52.8138 20.1216C52.3642 20.5995 51.8147 20.9181 51.1652 21.1305C50.6157 21.5022 49.8164 21.6083 48.9671 21.6083ZM49.1169 15.7146C49.4667 15.7146 49.8663 15.6615 50.216 15.5022C50.5657 15.343 50.8655 15.1837 51.1153 14.9182C51.365 14.6527 51.5649 14.3872 51.7147 14.0155C51.8646 13.697 51.9645 13.3253 51.9645 12.9005L51.9645 12.8474C51.9645 12.4226 51.8646 12.051 51.7147 11.6793C51.5649 11.3607 51.365 11.0421 51.1153 10.7766C50.8655 10.5112 50.5657 10.3519 50.216 10.1926C49.8663 10.0333 49.5166 9.9802 49.1169 9.9802C48.7173 9.9802 48.3676 10.0333 48.0678 10.1926C47.7181 10.3519 47.4683 10.5112 47.2186 10.7766C46.9688 11.0421 46.7689 11.3076 46.6191 11.6793C46.4692 11.9979 46.4192 12.4226 46.4192 12.8474L46.4192 12.9005C46.4192 13.3253 46.4692 13.697 46.6191 14.0686C46.7689 14.3872 46.9688 14.7058 47.2186 14.9713C47.4683 15.2368 47.7681 15.396 48.0678 15.5553C48.4175 15.6615 48.7672 15.7146 49.1169 15.7146Z" fill="white" />
    <path d="M56.2606 8.33203L58.4588 8.33203L58.4588 18.5266L56.2606 18.5266L56.2606 8.33203Z" fill="white" />
    <path d="M60.5572 8.3358L62.7553 8.3358L62.7553 9.92869C62.9052 9.66321 63.105 9.45082 63.2549 9.23844C63.4547 9.02605 63.6545 8.81366 63.9043 8.65437C64.1541 8.49509 64.4039 8.3358 64.7036 8.2296C65.0034 8.12341 65.3531 8.07031 65.7028 8.07031C66.8019 8.07031 67.6012 8.44199 68.2007 9.13224C68.8002 9.8225 69.0999 10.7782 69.0999 11.9995L69.0999 18.4772L66.9018 18.4772L66.9018 12.7428C66.9018 11.9464 66.702 11.3623 66.3523 10.8844C66.0025 10.4597 65.503 10.2473 64.8535 10.2473C64.2041 10.2473 63.7045 10.4597 63.3048 10.8844C62.9052 11.3092 62.7053 11.9464 62.7053 12.7428L62.7053 18.4772L60.5072 18.4772L60.5072 8.3358L60.5572 8.3358Z" fill="white" />
    <path d="M71.7477 5.04297L73.1964 5.04297L73.1964 18.5295L71.7477 18.5295L71.7477 5.04297Z" fill="white" />
    <path d="M75.8444 5.04297L80.2406 5.04297C84.2372 5.04297 86.9849 7.96328 86.9849 11.7331L86.9849 11.7862C86.9849 15.6092 84.2372 18.5295 80.2406 18.5295L75.8444 18.5295L75.8444 5.04297ZM80.2406 17.149C83.4379 17.149 85.4862 14.8127 85.4862 11.8393L85.4862 11.7862C85.4862 8.81282 83.4379 6.42348 80.2406 6.42348L77.2432 6.42348L77.2432 17.0959L80.2406 17.0959L80.2406 17.149Z" fill="white" />
    <path d="M56.1593 4.72266L58.5073 4.72266L58.5073 6.89962L56.1593 6.89962L56.1593 4.72266ZM56.2592 8.43942L58.4574 8.43942L58.4574 18.4747L56.2592 18.4747L56.2592 8.43942Z" fill="white" />
    <path d="M12.2468 8.2279C12.3467 8.28099 12.4966 8.28099 12.5965 8.2279C12.7963 8.1217 12.8962 7.80312 12.7963 7.59074C12.0469 5.94474 10.4982 4.88281 8.84964 4.88281C7.70062 4.88281 6.60155 5.41378 5.75227 6.31642C4.95295 7.21906 4.45337 8.38718 4.45337 9.6615C4.45337 9.7677 4.50333 9.92699 4.55328 9.98008C4.6532 10.0863 4.75312 10.1394 4.85303 10.1394C5.10282 10.1394 5.30265 9.92698 5.30265 9.6615C5.35261 7.59074 6.95125 5.83855 8.79969 5.83855C10.0986 5.83855 11.2976 6.6881 11.947 8.01551C12.0469 8.1217 12.1468 8.2279 12.2468 8.2279Z" fill="white" />
    <path d="M8.89961 19.1683C10.3983 19.1683 11.7972 18.3188 12.5965 16.9383C13.0461 16.1949 13.2459 15.3454 13.2459 14.4428L13.2459 10.1419C13.2459 9.87645 13.0461 9.66406 12.7963 9.66406C12.5465 9.66406 12.3467 9.87645 12.3467 10.1419L12.3467 14.4428C12.3467 15.133 12.1469 15.8233 11.7972 16.4604C11.1477 17.5755 10.0486 18.2126 8.84966 18.2126C6.9013 18.2126 5.35261 16.5135 5.35261 14.4428L5.35261 12.0534C5.35261 11.7879 5.15278 11.5755 4.90299 11.5755C4.6532 11.5755 4.45337 11.7879 4.45337 12.0534L4.45337 14.4428C4.50333 17.0445 6.45168 19.1683 8.89961 19.1683Z" fill="white" />
    <path d="M3.10468 9.82105C3.10468 9.50247 3.10468 9.18389 3.15464 8.81222C3.2046 8.54673 3.00477 8.28125 2.80494 8.28125L2.75498 8.28125C2.65506 8.28125 2.55515 8.33435 2.50519 8.38744C2.40528 8.44054 2.35532 8.59983 2.30536 8.70602C2.2554 9.0777 2.20544 9.44937 2.20544 9.87415L2.20544 14.4935C2.20544 18.4227 5.20291 21.6085 8.84982 21.6085C11.0979 21.6085 13.1961 20.3873 14.3951 18.3696C14.545 18.1572 14.495 17.8386 14.2453 17.6793C14.1453 17.6262 14.0454 17.5731 13.8956 17.6262C13.7956 17.6262 13.6957 17.7324 13.5958 17.8386C12.5467 19.5908 10.7482 20.6528 8.79986 20.6528C5.60257 20.6528 3.05473 17.8917 3.05473 14.4935L3.05473 9.82105L3.10468 9.82105Z" fill="white" />
    <path d="M15.4449 15.4501C15.4948 15.1315 15.4948 14.8129 15.4948 14.4412L15.4948 9.82183C15.4948 7.91035 14.7954 6.05197 13.5465 4.67146C12.2975 3.23785 10.599 2.44141 8.85044 2.44141C6.6523 2.44141 4.55407 3.66263 3.30513 5.73339C3.15526 5.94578 3.20521 6.26436 3.455 6.42365C3.55492 6.47675 3.65483 6.52984 3.80471 6.47675C3.90462 6.47675 4.00454 6.37055 4.10445 6.26436C5.20352 4.45908 7.002 3.39714 8.90039 3.39714C12.0477 3.39714 14.6455 6.31746 14.6455 9.82183L14.6455 14.4412C14.6455 14.7067 14.6455 15.0253 14.5956 15.2908C14.5456 15.5563 14.7454 15.8217 14.9952 15.8217C15.1951 15.8748 15.4449 15.6625 15.4449 15.4501Z" fill="white" />
    <path d="M0.407368 13.4334C0.657156 13.4334 0.856987 13.221 0.856987 12.9556L0.856987 9.87596C0.856987 5.04417 4.5039 0.955738 8.85021 0.955738L8.90017 0.955738C12.8468 0.955738 16.2939 4.40702 16.8434 8.76093C16.8434 8.86713 16.9434 9.02642 16.9933 9.07951C17.0932 9.13261 17.1931 9.18571 17.343 9.18571C17.5928 9.13261 17.7427 8.92022 17.7427 8.65474C17.4929 6.31849 16.4438 4.14153 14.8451 2.54864C13.1965 0.902642 11.0983 -8.31531e-09 8.95013 -6.7058e-09C6.55216 -4.90915e-09 4.30407 1.06193 2.6055 2.97341C0.956902 4.83179 0.00770653 7.32733 0.00770652 9.87596L0.00770652 12.9556C-0.0422511 13.221 0.157579 13.4334 0.407368 13.4334Z" fill="white" />
    <path d="M17.3432 10.6719C17.0934 10.6719 16.8936 10.8843 16.8936 11.1497L16.8936 14.3886C16.8936 19.1142 13.2966 22.9903 8.90037 22.9903C4.80384 22.9903 1.35676 19.6983 0.9571 15.2913C0.9571 15.1851 0.907142 15.0258 0.807227 14.9727C0.707311 14.9196 0.607396 14.8665 0.50748 14.8665L0.457523 14.8665C0.357607 14.8665 0.207734 14.9196 0.157777 15.0258C0.0578613 15.132 0.0578613 15.2382 0.0578613 15.3975C0.30765 17.7337 1.3068 19.9107 2.95541 21.5036C4.60401 23.0965 6.70223 23.9991 8.95033 23.9991C13.8462 23.9991 17.8428 19.6983 17.8428 14.4417L17.8428 11.2028C17.7928 10.8843 17.593 10.6719 17.3432 10.6719Z" fill="white" />
    <path d="M8.85099 9.23828C7.70197 9.23828 6.80273 10.2471 6.80273 11.4683C6.80273 11.9993 7.00256 12.5303 7.30231 12.9019L7.35227 12.955L7.35227 14.3886C7.35227 14.6541 7.5521 14.8665 7.80189 14.8665L8.90095 14.8665L10 14.8665C10.2498 14.8665 10.4496 14.6541 10.4496 14.3886L10.4496 12.955L10.4996 12.9019C10.8493 12.4772 10.9992 11.9993 10.9992 11.4683C10.8993 10.194 9.95006 9.23828 8.85099 9.23828ZM9.60036 12.4241C9.60036 12.4241 9.45048 12.5303 9.45048 12.6896C9.45048 12.8488 9.45048 13.9108 9.45048 13.9108L8.80104 13.9108L8.15159 13.9108C8.15159 13.9108 8.15159 12.9019 8.15159 12.6896C8.15159 12.5303 8.05167 12.4241 8.05167 12.4241C7.80189 12.1586 7.65201 11.84 7.65201 11.4683C7.65201 10.7781 8.20155 10.194 8.85099 10.194C9.50044 10.194 10.05 10.7781 10.05 11.4683C10.05 11.7869 9.9001 12.1586 9.60036 12.4241Z" fill="white" />
</svg>