<?xml version="1.0" encoding="UTF-8" standalone="no"?>
<svg
   width="168"
   height="31"
   viewBox="0 0 168 31"
   fill="none"
   version="1.1"
   id="svg1755"
   xmlns="http://www.w3.org/2000/svg"
   >
  <defs
     id="defs1759">
    <rect
       x="38.754238"
       y="7.6355934"
       width="127.78814"
       height="20.169493"
       id="rect1018" />
  </defs>
  <path
     d="m 3.44478,4.32195 c 0,-1.95979 1.58872,-3.548512 3.54851,-3.548512 H 29.3489 c 1.9598,0 3.5486,1.588722 3.5486,3.548512 V 26.6776 c 0,1.9598 -1.5888,3.5485 -3.5486,3.5485 H 6.99329 c -1.95979,0 -3.54851,-1.5887 -3.54851,-3.5485 V 23.062 19.2411 11.9177 8.09681 Z"
     fill="#286df5"
     id="path1711" />
  <path
     d="m 28.9176,18.5235 c 0,0.3078 -0.2495,0.5572 -0.5573,0.5572 -0.3077,0 -0.5572,-0.2494 -0.5572,-0.5572 v -6.0497 c 0,-0.3078 0.2495,-0.5572 0.5572,-0.5572 0.3078,0 0.5573,0.2494 0.5573,0.5572 z"
     fill="#ffffff"
     id="path1713" />
  <path
     d="m 19.6264,12.4209 c 0.0865,0.0432 0.2163,0.0432 0.3029,0 0.1731,-0.0866 0.2596,-0.3462 0.1731,-0.5193 -0.6491,-1.3415 -1.9906,-2.20699 -3.4187,-2.20699 -0.9953,0 -1.9473,0.43279 -2.6829,1.16839 -0.6924,0.7357 -1.1252,1.6877 -1.1252,2.7263 0,0.0865 0.0433,0.2163 0.0866,0.2596 0.0865,0.0866 0.1731,0.1298 0.2596,0.1298 0.2164,0 0.3895,-0.1731 0.3895,-0.3894 0.0433,-1.6877 1.428,-3.1158 3.0292,-3.1158 1.1251,0 2.1637,0.6924 2.7262,1.7743 0.0866,0.0865 0.1731,0.1731 0.2597,0.1731 z"
     fill="#ffffff"
     id="path1715" />
  <path
     d="m 16.727,21.3332 c 1.2982,0 2.5099,-0.6924 3.2023,-1.8175 0.3895,-0.6059 0.5626,-1.2983 0.5626,-2.0339 v -3.5052 c 0,-0.2164 -0.1731,-0.3895 -0.3895,-0.3895 -0.2164,0 -0.3895,0.1731 -0.3895,0.3895 v 3.5052 c 0,0.5625 -0.1731,1.1251 -0.476,1.6444 -0.5626,0.9087 -1.5146,1.428 -2.5532,1.428 -1.6876,0 -3.0291,-1.3847 -3.0291,-3.0724 v -1.9473 c 0,-0.2164 -0.1731,-0.3895 -0.3895,-0.3895 -0.2164,0 -0.3895,0.1731 -0.3895,0.3895 v 1.9473 c 0.0433,2.1204 1.731,3.8514 3.8514,3.8514 z"
     fill="#ffffff"
     id="path1717" />
  <path
     d="m 11.7062,13.7155 c 0,-0.2596 0,-0.5192 0.0433,-0.8222 0.0433,-0.2163 -0.1298,-0.4327 -0.3029,-0.4327 h -0.0433 c -0.0866,0 -0.1731,0.0433 -0.2164,0.0865 -0.0865,0.0433 -0.1298,0.1731 -0.1731,0.2597 -0.0432,0.3029 -0.0865,0.6058 -0.0865,0.952 v 3.7648 c 0,3.2023 2.5964,5.7988 5.7554,5.7988 1.9473,0 3.7649,-0.9953 4.8034,-2.6398 0.1298,-0.173 0.0866,-0.4327 -0.1298,-0.5625 -0.0865,-0.0433 -0.1731,-0.0866 -0.3029,-0.0433 -0.0866,0 -0.1731,0.0866 -0.2597,0.1731 -0.9087,1.4281 -2.4666,2.2935 -4.1543,2.2935 -2.7695,0 -4.9765,-2.2502 -4.9765,-5.0198 v -3.8081 z"
     fill="#ffffff"
     id="path1719" />
  <path
     d="m 22.3961,18.3025 c 0.0433,-0.2596 0.0433,-0.5192 0.0433,-0.8222 v -3.7648 c 0,-1.5579 -0.6058,-3.0724 -1.6877,-4.19757 -1.0818,-1.1684 -2.5531,-1.81751 -4.0677,-1.81751 -1.9041,0 -3.7216,0.9953 -4.8034,2.68298 -0.1299,0.1731 -0.0866,0.4327 0.1298,0.5626 0.0865,0.0432 0.1731,0.0865 0.3029,0.0432 0.0865,0 0.1731,-0.0865 0.2596,-0.1731 0.9521,-1.47127 2.5099,-2.33675 4.1543,-2.33675 2.7263,0 4.9765,2.38005 4.9765,5.23615 v 3.7648 c 0,0.2164 0,0.4761 -0.0432,0.6924 -0.0433,0.2164 0.1298,0.4328 0.3462,0.4328 0.1731,0.0432 0.3894,-0.1299 0.3894,-0.303 z"
     fill="#ffffff"
     id="path1721" />
  <path
     d="m 9.37031,16.6593 c 0.21637,0 0.38947,-0.1731 0.38947,-0.3895 v -2.5099 c 0,-3.93789 3.15902,-7.26999 6.92382,-7.26999 h 0.0433 c 3.4186,0 6.4045,2.81281 6.8805,6.36129 0,0.0865 0.0866,0.2164 0.1299,0.2596 0.0865,0.0433 0.1731,0.0866 0.3029,0.0866 0.2164,-0.0433 0.3462,-0.2164 0.3462,-0.4328 C 24.17,10.8606 23.2613,9.08635 21.8765,7.78813 20.4484,6.44664 18.6309,5.71098 16.7702,5.71098 c -2.0772,0 -4.0245,0.86548 -5.4958,2.42334 C 9.84632,9.64891 9.02412,11.6828 9.02412,13.7599 v 2.5099 c -0.04328,0.2164 0.12982,0.3895 0.34619,0.3895 z"
     fill="#ffffff"
     id="path1723" />
  <path
     d="m 24.0404,14.4116 c -0.2164,0 -0.3895,0.1731 -0.3895,0.3895 v 2.6397 c 0,3.8514 -3.1157,7.0104 -6.9238,7.0104 -3.5485,0 -6.5344,-2.683 -6.88055,-6.2747 0,-0.0866 -0.04328,-0.2164 -0.12983,-0.2597 C 9.63017,17.8736 9.54363,17.8303 9.45708,17.8303 H 9.41381 c -0.08655,0 -0.21637,0.0433 -0.25965,0.1298 -0.08655,0.0866 -0.08655,0.1731 -0.08655,0.3029 0.21637,1.9041 1.08189,3.6783 2.50989,4.9765 1.428,1.2983 3.2456,2.0339 5.1929,2.0339 4.2408,0 7.7027,-3.5052 7.7027,-7.7893 v -2.6397 c -0.0432,-0.2597 -0.2163,-0.4328 -0.4327,-0.4328 z"
     fill="#ffffff"
     id="path1725" />
  <path
     d="m 16.6836,13.242 c -0.9953,0 -1.7742,0.8222 -1.7742,1.8175 0,0.4327 0.1731,0.8655 0.4327,1.1684 l 0.0433,0.0433 v 1.1684 c 0,0.2163 0.1731,0.3894 0.3895,0.3894 h 1.904 c 0.2164,0 0.3895,-0.1731 0.3895,-0.3894 v -1.1684 l 0.0432,-0.0433 c 0.303,-0.3462 0.4328,-0.7357 0.4328,-1.1684 -0.0866,-1.0386 -0.9088,-1.8175 -1.8608,-1.8175 z m 0.6491,2.5964 c 0,0 -0.1298,0.0866 -0.1298,0.2164 0,0.1298 0,0.9953 0,0.9953 h -1.1251 c 0,0 0,-0.8222 0,-0.9953 0,-0.1298 -0.0866,-0.2164 -0.0866,-0.2164 -0.2163,-0.2164 -0.3462,-0.476 -0.3462,-0.7789 0,-0.5626 0.476,-1.0386 1.0386,-1.0386 0.5626,0 1.0386,0.476 1.0386,1.0386 0,0.2596 -0.1298,0.5625 -0.3895,0.7789 z"
     fill="#ffffff"
     id="path1727" />
  <path
     fill-rule="evenodd"
     clip-rule="evenodd"
     d="m 3.44478,11.9177 h 2.7745 c 0.48994,0 0.88713,-0.3972 0.88713,-0.8871 V 8.98394 c 0,-0.48995 -0.39719,-0.88713 -0.88713,-0.88713 h -2.7745 z"
     fill="#286df5"
     id="path1747" />
  <path
     d="m 0.897461,8.98394 v 2.04666 c 0,0.4899 0.397179,0.8871 0.887129,0.8871 H 3.44478 V 8.09681 H 1.78459 c -0.48995,0 -0.887129,0.39718 -0.887129,0.88713 z"
     fill="#286df5"
     id="path1749" />
  <path
     fill-rule="evenodd"
     clip-rule="evenodd"
     d="m 3.44478,23.062 h 2.7745 c 0.48994,0 0.88713,-0.3972 0.88713,-0.8872 v -2.0466 c 0,-0.49 -0.39719,-0.8871 -0.88713,-0.8871 h -2.7745 z"
     fill="#286df5"
     id="path1751" />
  <path
     d="m 0.897461,20.1282 v 2.0466 c 0,0.49 0.397179,0.8872 0.887129,0.8872 H 3.44478 V 19.2411 H 1.78459 c -0.48995,0 -0.887129,0.3971 -0.887129,0.8871 z"
     fill="#286df5"
     id="path1753" />
  <g
     aria-label="LOGINID Wallet"
     transform="matrix(1.2716581,0,0,1.8107921,-13.716177,-10.204412)"
     id="text1016"
     style="white-space:pre;shape-inside:url(#rect1018);fill:#2f80ed;stroke:#2f80ed;stroke-width:0.309767">
    <path
       d="M 46.160156,18.582729 H 39.867187 V 9.8581201 h 2.25 v 7.0371089 h 4.042969 z"
       style="font-weight:bold;-inkscape-font-specification:'sans-serif Bold'"
       id="path1126" />
    <path
       d="m 55.998047,14.223354 q 0,2.085938 -1.195313,3.316407 -1.195312,1.224609 -3.304687,1.224609 -2.103516,0 -3.298828,-1.224609 -1.195313,-1.230469 -1.195313,-3.316407 0,-2.103515 1.195313,-3.322265 1.195312,-1.2246096 3.298828,-1.2246096 2.097656,0 3.298828,1.2246096 1.201172,1.21875 1.201172,3.322265 z m -2.982422,2.208985 q 0.328125,-0.398438 0.486328,-0.9375 0.158203,-0.544922 0.158203,-1.277344 0,-0.785156 -0.18164,-1.335937 -0.181641,-0.550782 -0.47461,-0.890625 -0.298828,-0.351563 -0.691406,-0.509766 -0.386719,-0.158203 -0.808594,-0.158203 -0.427734,0 -0.808594,0.152344 -0.375,0.152343 -0.691406,0.503906 -0.292969,0.328125 -0.480469,0.908203 -0.18164,0.574219 -0.18164,1.335937 0,0.779297 0.175781,1.330079 0.181641,0.544921 0.474609,0.890625 0.292969,0.345703 0.685547,0.509765 0.392578,0.164063 0.826172,0.164063 0.433594,0 0.826172,-0.164063 0.392578,-0.169922 0.685547,-0.521484 z"
       style="font-weight:bold;-inkscape-font-specification:'sans-serif Bold'"
       id="path1128" />
    <path
       d="m 65.431641,18.084683 q -0.585938,0.228515 -1.552735,0.457031 -0.966797,0.222656 -1.927734,0.222656 -2.226563,0 -3.486328,-1.207031 -1.259766,-1.212891 -1.259766,-3.345703 0,-2.033203 1.271484,-3.275391 1.271485,-1.2480468 3.544922,-1.2480468 0.861328,0 1.640625,0.1582031 0.779297,0.1523438 1.734375,0.6152347 v 2.044922 h -0.251953 q -0.164062,-0.123047 -0.480469,-0.345704 -0.316406,-0.228515 -0.609375,-0.386718 -0.339843,-0.1875 -0.796875,-0.322266 -0.451171,-0.134766 -0.960937,-0.134766 -0.597656,0 -1.083984,0.175782 -0.486329,0.175781 -0.873047,0.539062 -0.369141,0.351563 -0.585938,0.896485 -0.210937,0.539062 -0.210937,1.248046 0,1.447266 0.767578,2.214844 0.767578,0.767578 2.267578,0.767578 0.128906,0 0.28125,-0.0059 0.158203,-0.0059 0.287109,-0.01758 V 15.424526 H 61.40625 v -1.646484 h 4.025391 z"
       style="font-weight:bold;-inkscape-font-specification:'sans-serif Bold'"
       id="path1130" />
    <path
       d="m 72.164062,18.582729 h -5.109375 v -1.546875 h 1.429688 V 11.404995 H 67.054687 V 9.8581201 h 5.109375 v 1.5468749 h -1.429687 v 5.630859 h 1.429687 z"
       style="font-weight:bold;-inkscape-font-specification:'sans-serif Bold'"
       id="path1132" />
    <path
       d="m 81.931641,18.582729 h -2.167969 l -3.703125,-5.988281 v 5.988281 h -2.0625 V 9.8581201 H 76.6875 l 3.181641,4.9980469 V 9.8581201 h 2.0625 z"
       style="font-weight:bold;-inkscape-font-specification:'sans-serif Bold'"
       id="path1134" />
    <path
       d="m 88.875,18.582729 h -5.109375 v -1.546875 h 1.429687 V 11.404995 H 83.765625 V 9.8581201 H 88.875 v 1.5468749 h -1.429688 v 5.630859 H 88.875 Z"
       style="font-weight:bold;-inkscape-font-specification:'sans-serif Bold'"
       id="path1136" />
    <path
       d="m 98.953125,14.229214 q 0,1.21875 -0.556641,2.185547 -0.55664,0.960937 -1.40625,1.476562 -0.638672,0.386719 -1.40039,0.539063 -0.761719,0.152343 -1.804688,0.152343 H 90.708984 V 9.8581201 h 3.164063 q 1.066406,0 1.839844,0.1816409 0.773437,0.175781 1.300781,0.503906 0.902344,0.550781 1.417969,1.488281 0.521484,0.931641 0.521484,2.197266 z m -2.326172,-0.01758 q 0,-0.861328 -0.316406,-1.470703 Q 96,12.125698 95.320312,11.779995 q -0.345703,-0.169922 -0.708984,-0.228516 -0.357422,-0.06445 -1.083984,-0.06445 h -0.56836 v 5.460938 h 0.56836 q 0.802734,0 1.177734,-0.07031 0.375,-0.07617 0.732422,-0.269531 0.615234,-0.351562 0.902344,-0.9375 0.287109,-0.591797 0.287109,-1.458984 z"
       style="font-weight:bold;-inkscape-font-specification:'sans-serif Bold'"
       id="path1138" />
    <path
       d="m 115.10156,9.8581201 -2.26758,8.7246089 h -1.30664 l -1.83398,-7.242187 -1.79297,7.242187 h -1.27734 l -2.3086,-8.7246089 h 1.18946 l 1.83398,7.2539059 1.80469,-7.2539059 h 1.17773 l 1.82227,7.3242189 1.82226,-7.3242189 z"
       id="path1140" />
    <path
       d="m 121.22461,18.582729 h -1.0957 v -0.697265 q -0.14649,0.09961 -0.39844,0.28125 -0.24609,0.175781 -0.48047,0.28125 -0.27539,0.134765 -0.63281,0.222656 -0.35742,0.09375 -0.83789,0.09375 -0.88477,0 -1.5,-0.585937 -0.61524,-0.585938 -0.61524,-1.494141 0,-0.744141 0.31641,-1.201172 0.32226,-0.462891 0.91406,-0.726562 0.59766,-0.263672 1.43555,-0.357422 0.83789,-0.09375 1.79883,-0.140625 v -0.169922 q 0,-0.375 -0.13477,-0.621094 -0.12891,-0.246094 -0.375,-0.386719 -0.23437,-0.134765 -0.5625,-0.18164 -0.32812,-0.04687 -0.68555,-0.04687 -0.43359,0 -0.96679,0.117187 -0.53321,0.111328 -1.10157,0.328125 h -0.0586 v -1.11914 q 0.32227,-0.08789 0.93164,-0.19336 0.60938,-0.105469 1.20117,-0.105469 0.69141,0 1.20118,0.117188 0.51562,0.111328 0.89062,0.386719 0.36914,0.269531 0.5625,0.697265 0.19336,0.427735 0.19336,1.060547 z m -1.0957,-1.611328 v -1.822265 q -0.50391,0.0293 -1.18946,0.08789 -0.67968,0.05859 -1.07812,0.169922 -0.47461,0.134766 -0.76758,0.421875 -0.29297,0.28125 -0.29297,0.779297 0,0.5625 0.33985,0.849609 0.33984,0.28125 1.0371,0.28125 0.58008,0 1.06055,-0.222656 0.48047,-0.228515 0.89063,-0.544922 z"
       id="path1142" />
    <path
       d="m 124.45898,18.582729 h -1.10156 V 9.4655419 h 1.10156 z"
       id="path1144" />
    <path
       d="m 127.75195,18.582729 h -1.10156 V 9.4655419 h 1.10156 z"
       id="path1146" />
    <path
       d="m 135.41016,15.424526 h -4.82227 q 0,0.603516 0.18164,1.054688 0.18164,0.445312 0.49805,0.732422 0.30469,0.28125 0.7207,0.421875 0.42188,0.140625 0.92578,0.140625 0.66797,0 1.3418,-0.263672 0.67969,-0.269531 0.9668,-0.527344 h 0.0586 v 1.201172 q -0.55664,0.234375 -1.13672,0.392578 -0.58008,0.158203 -1.21875,0.158203 -1.62891,0 -2.54297,-0.878906 -0.91406,-0.884766 -0.91406,-2.507813 0,-1.605468 0.87305,-2.548828 0.8789,-0.943359 2.30859,-0.943359 1.32422,0 2.03906,0.773437 0.72071,0.773438 0.72071,2.197266 z m -1.07227,-0.84375 q -0.006,-0.867187 -0.43945,-1.341797 -0.42774,-0.474609 -1.30664,-0.474609 -0.88477,0 -1.41211,0.521484 -0.52149,0.521485 -0.5918,1.294922 z"
       id="path1148" />
    <path
       d="m 140.47852,18.524136 q -0.31055,0.08203 -0.67969,0.134765 -0.36328,0.05273 -0.65039,0.05273 -1.00196,0 -1.52344,-0.539063 -0.52148,-0.539062 -0.52148,-1.728515 v -3.480469 h -0.74415 v -0.925781 h 0.74415 v -1.88086 h 1.10156 v 1.88086 h 2.27344 v 0.925781 h -2.27344 v 2.982422 q 0,0.515625 0.0234,0.808593 0.0234,0.28711 0.16406,0.539063 0.1289,0.234375 0.35156,0.345703 0.22852,0.105469 0.69141,0.105469 0.26953,0 0.5625,-0.07617 0.29297,-0.08203 0.42187,-0.134766 h 0.0586 z"
       id="path1150" />
  </g>
</svg>
