<svg width="159" height="30" viewBox="0 0 159 30" fill="none" xmlns="http://www.w3.org/2000/svg">
<path d="M3.38348 4.33844C3.38348 2.46916 4.89882 0.953814 6.7681 0.953814H28.0912C29.9605 0.953814 31.4758 2.46916 31.4758 4.33844V25.6616C31.4758 27.5308 29.9605 29.0462 28.0912 29.0462H6.7681C4.89882 29.0462 3.38348 27.5308 3.38348 25.6616V4.33844Z" fill="#286DF5"/>
<path fill-rule="evenodd" clip-rule="evenodd" d="M3.38348 4.33844C3.38348 2.46916 4.89882 0.953814 6.7681 0.953814H28.0912C29.9605 0.953814 31.4758 2.46916 31.4758 4.33844V25.6616C31.4758 27.5308 29.9605 29.0462 28.0912 29.0462H6.7681C4.89882 29.0462 3.38348 27.5308 3.38348 25.6616V22.2129H1.79997C1.33265 22.2129 0.953814 21.8341 0.953814 21.3667V19.4146C0.953814 18.9473 1.33265 18.5685 1.79997 18.5685H3.38348V11.5834H1.79997C1.33265 11.5834 0.953814 11.2045 0.953814 10.7372V8.7851C0.953814 8.31778 1.33265 7.93894 1.79997 7.93894H3.38348V4.33844ZM2.42966 6.98513V4.33844C2.42966 1.94238 4.37205 0 6.7681 0H28.0912C30.4873 0 32.4297 1.94238 32.4297 4.33844V25.6616C32.4297 28.0576 30.4873 30 28.0912 30H6.7681C4.37205 30 2.42966 28.0576 2.42966 25.6616V23.1667H1.79997C0.805873 23.1667 0 22.3608 0 21.3667V19.4146C0 18.4205 0.805876 17.6147 1.79997 17.6147H2.42966V12.5372H1.79997C0.805873 12.5372 0 11.7313 0 10.7372V8.7851C0 7.791 0.805875 6.98513 1.79997 6.98513H2.42966Z" fill="white"/>
<path d="M27.6798 17.8841C27.6798 18.1776 27.4418 18.4156 27.1483 18.4156C26.8548 18.4156 26.6168 18.1776 26.6168 17.8841V12.1138C26.6168 11.8202 26.8548 11.5823 27.1483 11.5823C27.4418 11.5823 27.6798 11.8202 27.6798 12.1138V17.8841Z" fill="white"/>
<path d="M18.8177 12.0633C18.9003 12.1046 19.0241 12.1046 19.1066 12.0633C19.2717 11.9807 19.3543 11.7331 19.2717 11.568C18.6526 10.2885 17.3731 9.46295 16.011 9.46295C15.0617 9.46295 14.1536 9.87571 13.4519 10.5774C12.7915 11.2791 12.3788 12.1871 12.3788 13.1777C12.3788 13.2603 12.42 13.3841 12.4613 13.4254C12.5439 13.5079 12.6264 13.5492 12.709 13.5492C12.9153 13.5492 13.0804 13.3841 13.0804 13.1777C13.1217 11.568 14.4425 10.2059 15.9697 10.2059C17.0429 10.2059 18.0335 10.8663 18.57 11.8982C18.6526 11.9807 18.7352 12.0633 18.8177 12.0633Z" fill="white"/>
<path d="M16.0523 20.564C17.2905 20.564 18.4462 19.9036 19.1066 18.8304C19.4781 18.2525 19.6432 17.5921 19.6432 16.8905V13.5472C19.6432 13.3408 19.4781 13.1757 19.2717 13.1757C19.0654 13.1757 18.9003 13.3408 18.9003 13.5472V16.8905C18.9003 17.427 18.7352 17.9636 18.4462 18.4589C17.9096 19.3257 17.0016 19.821 16.011 19.821C14.4012 19.821 13.1217 18.5002 13.1217 16.8905V15.0331C13.1217 14.8267 12.9566 14.6616 12.7502 14.6616C12.5439 14.6616 12.3788 14.8267 12.3788 15.0331V16.8905C12.42 18.9129 14.0298 20.564 16.0523 20.564Z" fill="white"/>
<path d="M11.2633 13.2982C11.2633 13.0505 11.2633 12.8029 11.3046 12.5139C11.3459 12.3076 11.1808 12.1012 11.0157 12.1012H10.9744C10.8919 12.1012 10.8093 12.1425 10.768 12.1837C10.6855 12.225 10.6442 12.3488 10.6029 12.4314C10.5617 12.7203 10.5204 13.0092 10.5204 13.3394V16.9304C10.5204 19.9848 12.9969 22.4613 16.01 22.4613C17.8674 22.4613 19.601 21.512 20.5916 19.9435C20.7154 19.7784 20.6741 19.5307 20.4677 19.4069C20.3852 19.3656 20.3026 19.3244 20.1788 19.3656C20.0963 19.3656 20.0137 19.4482 19.9312 19.5307C19.0644 20.8928 17.5785 21.7183 15.9687 21.7183C13.3271 21.7183 11.2221 19.572 11.2221 16.9304V13.2982H11.2633Z" fill="white"/>
<path d="M21.4595 17.6733C21.5008 17.4257 21.5008 17.178 21.5008 16.8891V13.2981C21.5008 11.8122 20.923 10.3676 19.8911 9.29443C18.8592 8.17999 17.4558 7.56087 16.0112 7.56087C14.1951 7.56087 12.4615 8.5102 11.4296 10.1199C11.3058 10.285 11.3471 10.5327 11.5535 10.6565C11.636 10.6978 11.7186 10.7391 11.8424 10.6978C11.9249 10.6978 12.0075 10.6152 12.09 10.5327C12.9981 9.12933 14.484 8.30382 16.0525 8.30382C18.6528 8.30382 20.7991 10.574 20.7991 13.2981V16.8891C20.7991 17.0955 20.7991 17.3431 20.7579 17.5495C20.7166 17.7559 20.8817 17.9622 21.0881 17.9622C21.2532 18.0035 21.4595 17.8384 21.4595 17.6733Z" fill="white"/>
<path d="M9.03533 16.106C9.24171 16.106 9.40681 15.9409 9.40681 15.7345V13.3405C9.40681 9.58446 12.4199 6.40626 16.0109 6.40626H16.0521C19.3129 6.40626 22.1609 9.08916 22.6149 12.4737C22.6149 12.5563 22.6975 12.6801 22.7387 12.7214C22.8213 12.7627 22.9038 12.8039 23.0277 12.8039C23.234 12.7627 23.3579 12.5976 23.3579 12.3912C23.1515 10.5751 22.2847 8.88278 20.9639 7.64452C19.6018 6.36499 17.8682 5.66331 16.0934 5.66331C14.1122 5.66331 12.2548 6.48881 10.8514 7.97473C9.48936 9.41936 8.70513 11.3593 8.70513 13.3405V15.7345C8.66385 15.9409 8.82896 16.106 9.03533 16.106Z" fill="white"/>
<path d="M23.0279 13.9621C22.8215 13.9621 22.6564 14.1272 22.6564 14.3336V16.8514C22.6564 20.5249 19.6846 23.538 16.0523 23.538C12.6678 23.538 9.81977 20.9789 9.48957 17.5531C9.48957 17.4705 9.4483 17.3467 9.36575 17.3054C9.28319 17.2641 9.20064 17.2229 9.11809 17.2229H9.07682C8.99427 17.2229 8.87044 17.2641 8.82917 17.3467C8.74662 17.4292 8.74662 17.5118 8.74662 17.6356C8.95299 19.4517 9.7785 21.144 11.1406 22.3823C12.5027 23.6205 14.2362 24.3222 16.0936 24.3222C20.1386 24.3222 23.4406 20.9789 23.4406 16.8927V14.3749C23.3993 14.1272 23.2342 13.9621 23.0279 13.9621Z" fill="white"/>
<path d="M16.0109 12.8465C15.0615 12.8465 14.3186 13.6307 14.3186 14.58C14.3186 14.9928 14.4837 15.4055 14.7313 15.6945L14.7726 15.7357V16.8502C14.7726 17.0566 14.9377 17.2217 15.1441 17.2217H16.9602C17.1666 17.2217 17.3317 17.0566 17.3317 16.8502V15.7357L17.3729 15.6945C17.6619 15.3643 17.7857 14.9928 17.7857 14.58C17.7031 13.5894 16.9189 12.8465 16.0109 12.8465ZM16.63 15.323C16.63 15.323 16.5062 15.4055 16.5062 15.5294C16.5062 15.6532 16.5062 16.4787 16.5062 16.4787H15.433C15.433 16.4787 15.433 15.6945 15.433 15.5294C15.433 15.4055 15.3504 15.323 15.3504 15.323C15.1441 15.1166 15.0202 14.869 15.0202 14.58C15.0202 14.0435 15.4743 13.5894 16.0109 13.5894C16.5474 13.5894 17.0015 14.0435 17.0015 14.58C17.0015 14.8277 16.8776 15.1166 16.63 15.323Z" fill="white"/>
<path fill-rule="evenodd" clip-rule="evenodd" d="M3.38348 11.5834H6.02983C6.49715 11.5834 6.87599 11.2045 6.87599 10.7372V8.7851C6.87599 8.31778 6.49715 7.93894 6.02983 7.93894H3.38348V11.5834Z" fill="#286DF5"/>
<path d="M3.38348 11.5834V7.93894H1.79997C1.33265 7.93894 0.953814 8.31778 0.953814 8.7851V10.7372C0.953814 11.2045 1.33265 11.5834 1.79997 11.5834H3.38348Z" fill="#286DF5"/>
<path fill-rule="evenodd" clip-rule="evenodd" d="M3.38348 22.2129H6.02983C6.49715 22.2129 6.87599 21.8341 6.87599 21.3667V19.4146C6.87599 18.9473 6.49715 18.5685 6.02983 18.5685H3.38348V22.2129Z" fill="#286DF5"/>
<path d="M3.38348 22.2129V18.5685H1.79997C1.33265 18.5685 0.953814 18.9473 0.953814 19.4146V21.3667C0.953814 21.8341 1.33265 22.2129 1.79997 22.2129H3.38348Z" fill="#286DF5"/>
<path d="M43.8754 23.1494V7.12531H55.3441V8.68194H45.6381V14.4048H52.0019V15.9386H45.6381V23.1494H43.8754Z" fill="white"/>
<path d="M57.7802 23.1494V7.12531H59.5429V23.1494H57.7802Z" fill="white"/>
<path d="M64.841 21.547H68.4579C69.3888 21.547 70.2511 21.3867 71.0446 21.0663C71.8382 20.7458 72.5326 20.2956 73.1278 19.7157C73.7229 19.1357 74.1808 18.4566 74.5012 17.6783C74.837 16.9 75.0049 16.053 75.0049 15.1373C75.0049 14.2217 74.837 13.3747 74.5012 12.5964C74.1808 11.8181 73.7229 11.139 73.1278 10.559C72.5326 9.97913 71.8382 9.52892 71.0446 9.20844C70.2511 8.88796 69.3888 8.72772 68.4579 8.72772H64.841V21.547ZM63.0784 23.1494V7.12531H68.3663C69.5872 7.12531 70.7089 7.32371 71.7314 7.72049C72.7539 8.11728 73.639 8.67431 74.3868 9.39158C75.1498 10.1088 75.7374 10.9558 76.1494 11.9325C76.5768 12.9092 76.7904 13.9775 76.7904 15.1373C76.7904 16.2972 76.5844 17.3655 76.1723 18.3422C75.7603 19.3189 75.1727 20.1659 74.4097 20.8831C73.6619 21.6004 72.7691 22.1574 71.7314 22.5542C70.7089 22.951 69.5872 23.1494 68.3663 23.1494H63.0784Z" fill="white"/>
<path d="M87.0624 23.4012C85.9026 23.4012 84.8191 23.1952 83.8118 22.7831C82.8199 22.3558 81.9424 21.7683 81.1793 21.0205C80.4315 20.2574 79.844 19.3799 79.4167 18.3879C79.0046 17.3807 78.7986 16.2972 78.7986 15.1373C78.7986 13.9775 79.0046 12.9016 79.4167 11.9096C79.844 10.9024 80.4315 10.0249 81.1793 9.27712C81.9424 8.51407 82.8199 7.92652 83.8118 7.51447C84.8191 7.08716 85.9026 6.87351 87.0624 6.87351C88.207 6.87351 89.2753 7.08716 90.2673 7.51447C91.2745 7.92652 92.152 8.51407 92.8998 9.27712C93.6628 10.0249 94.2504 10.9024 94.6624 11.9096C95.0897 12.9016 95.3034 13.9775 95.3034 15.1373C95.3034 16.2972 95.0897 17.3807 94.6624 18.3879C94.2504 19.3799 93.6628 20.2574 92.8998 21.0205C92.152 21.7683 91.2745 22.3558 90.2673 22.7831C89.2753 23.1952 88.207 23.4012 87.0624 23.4012ZM87.0624 21.7759C87.9781 21.7759 88.8251 21.608 89.6034 21.2723C90.3817 20.9365 91.0608 20.4711 91.6407 19.8759C92.2359 19.2655 92.6938 18.5558 93.0142 17.747C93.35 16.9382 93.5178 16.0683 93.5178 15.1373C93.5178 14.1912 93.35 13.3213 93.0142 12.5277C92.6938 11.7189 92.2359 11.0169 91.6407 10.4217C91.0608 9.81125 90.3817 9.33816 89.6034 9.00242C88.8251 8.66668 87.9781 8.49881 87.0624 8.49881C86.1468 8.49881 85.2922 8.66668 84.4986 9.00242C83.7203 9.33816 83.0335 9.81125 82.4384 10.4217C81.8584 11.0169 81.4006 11.7189 81.0649 12.5277C80.7444 13.3213 80.5841 14.1835 80.5841 15.1145C80.5841 16.0606 80.7444 16.9382 81.0649 17.747C81.4006 18.5558 81.8584 19.2655 82.4384 19.8759C83.0335 20.4711 83.7203 20.9365 84.4986 21.2723C85.2922 21.608 86.1468 21.7759 87.0624 21.7759Z" fill="white"/>
<path d="M107.495 23.1494L100.994 7.12531H104.588L109.486 19.7385L114.5 7.12531H117.933L111.341 23.1494H107.495Z" fill="white"/>
<path d="M121.698 23.3554C120.844 23.3554 120.088 23.2028 119.432 22.8976C118.776 22.5771 118.265 22.1422 117.898 21.5928C117.532 21.0434 117.349 20.41 117.349 19.6928C117.349 18.5482 117.776 17.663 118.631 17.0373C119.501 16.3964 120.691 16.0759 122.202 16.0759C123.24 16.0759 124.216 16.2361 125.132 16.5566V15.6867C125.132 15 124.918 14.4811 124.491 14.1301C124.064 13.7791 123.438 13.6036 122.614 13.6036C122.11 13.6036 121.569 13.6876 120.989 13.8554C120.409 14.008 119.737 14.2522 118.974 14.588L117.83 12.2759C118.776 11.8486 119.676 11.5281 120.531 11.3145C121.401 11.1008 122.271 10.994 123.141 10.994C124.743 10.994 125.987 11.3831 126.872 12.1615C127.772 12.9245 128.222 14.008 128.222 15.412V23.1494H125.132V22.3024C124.644 22.6687 124.117 22.9357 123.553 23.1036C122.988 23.2715 122.37 23.3554 121.698 23.3554ZM120.325 19.6241C120.325 20.0819 120.523 20.4482 120.92 20.7229C121.317 20.9823 121.843 21.112 122.5 21.112C123.018 21.112 123.499 21.051 123.942 20.9289C124.384 20.7916 124.781 20.5932 125.132 20.3337V18.594C124.751 18.4414 124.354 18.3269 123.942 18.2506C123.53 18.1743 123.087 18.1361 122.614 18.1361C121.897 18.1361 121.332 18.2735 120.92 18.5482C120.523 18.8076 120.325 19.1663 120.325 19.6241Z" fill="white"/>
<path d="M135.395 23.3783C134.479 23.3783 133.662 23.1799 132.945 22.7831C132.243 22.3711 131.686 21.8064 131.274 21.0891C130.877 20.3719 130.679 19.5478 130.679 18.6169V11.2229H133.815V18.159C133.815 18.9221 134.036 19.5325 134.479 19.9904C134.937 20.4482 135.547 20.6771 136.31 20.6771C136.829 20.6771 137.294 20.5779 137.707 20.3795C138.134 20.1659 138.485 19.8683 138.76 19.4867V11.2229H141.896V23.1494H138.76V22.1879C137.844 22.9815 136.722 23.3783 135.395 23.3783Z" fill="white"/>
<path d="M144.626 23.1494V7.12531L147.762 6.59881V23.1494H144.626Z" fill="white"/>
<path d="M156.155 23.3325C154.827 23.3325 153.82 23.0349 153.133 22.4397C152.462 21.8293 152.126 20.9442 152.126 19.7843V13.8325H149.677V11.2229H152.126V8.17832L155.262 7.46869V11.2229H158.673V13.8325H155.262V19.1434C155.262 19.6928 155.384 20.0896 155.629 20.3337C155.873 20.5626 156.3 20.6771 156.911 20.6771C157.216 20.6771 157.49 20.6618 157.735 20.6313C157.994 20.5855 158.276 20.5092 158.582 20.4024V22.9891C158.261 23.096 157.864 23.1799 157.391 23.241C156.918 23.302 156.506 23.3325 156.155 23.3325Z" fill="white"/>
</svg>
