<svg viewBox="0 0 80 29" xmlns="http://www.w3.org/2000/svg" xml:space="preserve" style="fill-rule:evenodd;clip-rule:evenodd;stroke-linejoin:round;stroke-miterlimit:2">
    <path style="fill:none" d="M-79.92 0h79.2v28.8h-79.2zM0 0h79.2v28.8H0z"/>
    <path d="M8.422 12.175H7.391a.55.55 0 0 1-.551-.551v-1.271c0-.305.246-.552.551-.552h1.031V7.457c0-1.218.987-2.205 2.204-2.205h13.887c1.217 0 2.204.987 2.204 2.205v13.886a2.205 2.205 0 0 1-2.204 2.205H10.626a2.205 2.205 0 0 1-2.204-2.205v-2.246H7.391a.55.55 0 0 1-.551-.551v-1.271a.55.55 0 0 1 .551-.551h1.031v-4.549Zm5.132 1.117c0-.162 0-.323.027-.511.026-.134-.081-.269-.189-.269h-.026a.206.206 0 0 0-.135.054c-.054.027-.081.107-.107.161-.027.188-.054.376-.054.592v2.338c0 1.989 1.613 3.602 3.575 3.602 1.21 0 2.339-.618 2.984-1.64.08-.107.054-.268-.081-.349-.054-.027-.107-.054-.188-.027-.054 0-.108.054-.161.108a3.057 3.057 0 0 1-2.581 1.424c-1.72 0-3.091-1.397-3.091-3.118v-2.365h.027Zm3.092-.294c-.619 0-1.103.51-1.103 1.129 0 .268.108.537.269.725l.027.027v.726c0 .134.108.242.242.242h1.183a.242.242 0 0 0 .242-.242v-.726l.027-.027a1.06 1.06 0 0 0 .268-.725c-.053-.646-.564-1.129-1.155-1.129Zm.403 1.612s-.081.054-.081.135v.618h-.699v-.618c0-.081-.054-.135-.054-.135a.672.672 0 0 1-.215-.483c0-.35.296-.646.646-.646.349 0 .645.296.645.646a.65.65 0 0 1-.242.483Zm4.166-.886a.242.242 0 0 0-.242.242v1.64c0 2.392-1.935 4.354-4.3 4.354a4.29 4.29 0 0 1-4.274-3.897c0-.054-.027-.135-.081-.162-.054-.026-.108-.053-.161-.053h-.027c-.054 0-.135.027-.162.08-.053.054-.053.108-.053.188a4.907 4.907 0 0 0 1.559 3.092 4.77 4.77 0 0 0 3.225 1.263c2.635 0 4.785-2.177 4.785-4.838v-1.64c-.027-.161-.134-.269-.269-.269Zm-2.741-1.237a.228.228 0 0 0 .188 0c.107-.053.161-.215.107-.322-.403-.833-1.236-1.371-2.123-1.371-.619 0-1.21.269-1.667.726-.43.457-.699 1.048-.699 1.693a.29.29 0 0 0 .054.162c.054.053.107.08.161.08a.24.24 0 0 0 .242-.242c.027-1.048.887-1.935 1.882-1.935.699 0 1.344.43 1.693 1.102.054.054.108.107.162.107Zm5.771 3.791V12.52a.346.346 0 0 0-.692 0v3.758a.346.346 0 0 0 .692 0Zm-7.573 1.746c.807 0 1.56-.431 1.99-1.129a2.3 2.3 0 0 0 .349-1.264v-2.177a.24.24 0 0 0-.242-.242.24.24 0 0 0-.242.242v2.177c0 .35-.107.699-.295 1.022a1.85 1.85 0 0 1-1.586.887c-1.049 0-1.882-.86-1.882-1.909v-1.209a.24.24 0 0 0-.242-.242.24.24 0 0 0-.242.242v1.209c.027 1.317 1.075 2.393 2.392 2.393Zm3.522-1.883c.027-.161.027-.323.027-.511v-2.338c0-.968-.376-1.909-1.048-2.608a3.45 3.45 0 0 0-2.527-1.129c-1.183 0-2.312.618-2.984 1.667-.081.107-.054.269.081.349.053.027.107.054.188.027.054 0 .107-.054.161-.107.591-.914 1.559-1.452 2.581-1.452 1.693 0 3.091 1.479 3.091 3.253v2.338c0 .135 0 .296-.027.43a.228.228 0 0 0 .215.269c.108.027.242-.08.242-.188Zm-8.091-1.021a.24.24 0 0 0 .242-.242v-1.559c0-2.446 1.962-4.516 4.301-4.516h.026c2.124 0 3.979 1.748 4.274 3.952 0 .053.054.134.081.161.054.027.108.054.188.054a.262.262 0 0 0 .215-.269 5.037 5.037 0 0 0-1.559-3.091c-.887-.834-2.016-1.291-3.172-1.291-1.29 0-2.5.538-3.414 1.506a5.13 5.13 0 0 0-1.397 3.494v1.559c-.027.135.08.242.215.242Z" style="fill:#fff"/>
    <path d="m32.918 16.093-2.889-8.832h2.12l2.51 7.823H33.6l2.624-7.823h1.893l2.523 7.823h-1.022l2.574-7.823h1.956l-2.89 8.832h-2.195L36.83 9.229h.58l-2.296 6.864h-2.196ZM48.804 16.093v-1.325l-.127-.29v-2.372c0-.42-.128-.748-.384-.984-.257-.236-.65-.353-1.18-.353a3.41 3.41 0 0 0-1.066.17 2.824 2.824 0 0 0-.89.461l-.706-1.376c.37-.26.816-.462 1.337-.605a5.992 5.992 0 0 1 1.59-.215c1.035 0 1.838.244 2.41.732.572.488.858 1.249.858 2.284v3.873h-1.842Zm-2.07.101c-.53 0-.984-.09-1.362-.271a2.072 2.072 0 0 1-.871-.738 1.88 1.88 0 0 1-.303-1.047c0-.404.099-.757.297-1.06.197-.303.511-.541.94-.713.429-.173.988-.259 1.678-.259h1.804v1.148h-1.59c-.462 0-.78.076-.952.227a.724.724 0 0 0-.259.568c0 .253.099.452.297.6.197.147.469.22.813.22.329 0 .623-.077.884-.233.26-.156.45-.385.567-.688l.303.909a1.76 1.76 0 0 1-.782.997c-.379.227-.866.34-1.464.34ZM52.425 6.731h1.968v9.362h-1.968zM56.223 6.731h1.968v9.362h-1.968zM63.389 16.194c-.773 0-1.453-.151-2.037-.454a3.35 3.35 0 0 1-1.357-1.243c-.319-.526-.479-1.125-.479-1.798 0-.681.158-1.285.473-1.81a3.358 3.358 0 0 1 1.293-1.237c.547-.299 1.165-.448 1.855-.448a3.79 3.79 0 0 1 1.798.423c.534.282.957.685 1.268 1.211.311.526.467 1.155.467 1.886 0 .076-.004.162-.013.259a11.26 11.26 0 0 1-.025.271h-5.514v-1.148h4.48l-.758.341c0-.353-.071-.66-.214-.921a1.565 1.565 0 0 0-.593-.612 1.723 1.723 0 0 0-.883-.221 1.76 1.76 0 0 0-.89.221 1.543 1.543 0 0 0-.599.618 1.95 1.95 0 0 0-.215.94v.303c0 .37.082.696.246.978.164.282.396.496.694.643.299.147.65.221 1.054.221.362 0 .679-.055.953-.164a2.31 2.31 0 0 0 .75-.492l1.048 1.135a3.049 3.049 0 0 1-1.174.814c-.471.19-1.014.284-1.628.284ZM70.758 16.194c-.799 0-1.422-.204-1.867-.612-.446-.408-.669-1.015-.669-1.823V7.804h1.968v5.93c0 .286.076.507.227.662.152.156.358.234.619.234.311 0 .576-.084.795-.253l.529 1.388a2.16 2.16 0 0 1-.725.322 3.577 3.577 0 0 1-.877.107Zm-3.583-5.223V9.456h4.706v1.515h-4.706ZM44.371 21.062v-3.508h1.644c.421 0 .741.082.962.248.22.165.331.386.331.664a.849.849 0 0 1-.131.478.874.874 0 0 1-.348.306 1.05 1.05 0 0 1-.474.108l.091-.181c.197 0 .374.036.531.108a.88.88 0 0 1 .373.313.898.898 0 0 1 .138.511.816.816 0 0 1-.346.702c-.23.167-.573.251-1.027.251h-1.744Zm.651-.512h1.053c.244 0 .431-.04.561-.12.13-.08.195-.209.195-.386 0-.173-.065-.301-.195-.383-.13-.082-.317-.123-.561-.123h-1.103v-.506h.972c.228 0 .402-.04.524-.12a.403.403 0 0 0 .183-.361c0-.164-.061-.286-.183-.366-.122-.08-.296-.12-.524-.12h-.922v2.485ZM48.345 22.069c-.13 0-.261-.022-.391-.065a.94.94 0 0 1-.326-.181l.251-.461a.762.762 0 0 0 .215.136c.081.033.162.05.246.05a.433.433 0 0 0 .276-.085.78.78 0 0 0 .195-.286l.155-.351.05-.075 1.013-2.365h.601l-1.253 2.891a1.722 1.722 0 0 1-.278.476.844.844 0 0 1-.341.246 1.19 1.19 0 0 1-.413.07Zm.551-.912-1.208-2.771h.652l.982 2.31-.426.461ZM52.464 21.062v-3.508h.652v2.956h1.834v.552h-2.486ZM56.584 21.097c-.274 0-.518-.06-.732-.178a1.328 1.328 0 0 1-.692-1.195 1.313 1.313 0 0 1 .692-1.193c.214-.117.458-.176.732-.176.277 0 .523.059.739.176.215.117.384.277.506.481.122.204.183.441.183.712a1.314 1.314 0 0 1-.689 1.195 1.516 1.516 0 0 1-.739.178Zm0-.537c.153 0 .29-.033.411-.1a.713.713 0 0 0 .283-.29.932.932 0 0 0 .102-.446.928.928 0 0 0-.102-.449.72.72 0 0 0-.283-.288.823.823 0 0 0-.406-.1.818.818 0 0 0-.409.1.74.74 0 0 0-.283.288.906.906 0 0 0-.105.449c0 .17.035.319.105.446.07.127.165.223.283.29.119.067.253.1.404.1ZM59.826 22.069c-.247 0-.489-.033-.724-.098a1.537 1.537 0 0 1-.579-.283l.281-.471c.117.097.264.175.443.233.179.058.36.088.544.088.294 0 .509-.068.646-.203.137-.136.206-.339.206-.609v-.476l.05-.607-.02-.606v-.651h.596v2.27c0 .484-.123.841-.371 1.07-.247.228-.604.343-1.072.343Zm-.08-1.128c-.254 0-.484-.054-.689-.163a1.22 1.22 0 0 1-.664-1.135c0-.257.059-.482.178-.676.118-.194.28-.344.486-.451.205-.107.435-.161.689-.161.227 0 .431.046.611.136.181.09.325.23.434.421.108.19.162.434.162.731 0 .298-.054.542-.162.735a1.034 1.034 0 0 1-.434.426c-.18.091-.384.137-.611.137Zm.095-.531a.88.88 0 0 0 .421-.098.709.709 0 0 0 .288-.27.76.76 0 0 0 .103-.399.759.759 0 0 0-.103-.398.68.68 0 0 0-.288-.266.94.94 0 0 0-.421-.092.96.96 0 0 0-.424.092.68.68 0 0 0-.29.266.759.759 0 0 0-.103.398.76.76 0 0 0 .103.399.708.708 0 0 0 .29.27.898.898 0 0 0 .424.098ZM62.091 21.062v-2.676h.626v2.676h-.626Zm.316-3.117a.393.393 0 0 1-.288-.111.354.354 0 0 1-.113-.265c0-.107.037-.197.113-.268a.399.399 0 0 1 .288-.108c.117 0 .213.034.288.103a.334.334 0 0 1 .113.258.38.38 0 0 1-.401.391ZM65.058 18.355c.214 0 .405.042.574.126a.918.918 0 0 1 .398.383c.097.172.145.394.145.664v1.534h-.626v-1.454c0-.237-.056-.414-.168-.531-.112-.117-.268-.175-.469-.175a.82.82 0 0 0-.39.09.616.616 0 0 0-.264.268.977.977 0 0 0-.092.449v1.353h-.627v-2.676h.597v.721l-.106-.22a.95.95 0 0 1 .409-.394c.179-.092.385-.138.619-.138ZM66.912 17.554h.992v3.508h-.992zM68.611 21.062v-3.508h1.659c.387 0 .728.071 1.022.215.294.144.524.346.689.607.165.26.248.571.248.932 0 .357-.083.667-.248.929a1.654 1.654 0 0 1-.689.609 2.297 2.297 0 0 1-1.022.216h-1.659Zm.992-.792h.626c.201 0 .376-.038.524-.113a.811.811 0 0 0 .348-.331c.084-.145.126-.318.126-.518a1.02 1.02 0 0 0-.126-.522.822.822 0 0 0-.348-.328 1.147 1.147 0 0 0-.524-.113h-.626v1.925Z" style="fill:#fff;fill-rule:nonzero"/>
    <path style="fill:none" d="M-79.92 29.28h79.2v28.8h-79.2zM0 29.28h79.2v28.8H0z"/>
</svg>
