<?xml version="1.0" encoding="UTF-8" standalone="no"?>
<svg
   width="159"
   height="30"
   viewBox="0 0 159 30"
   fill="none"
   version="1.1"
   id="svg1859"
>
  <defs
     id="defs1863">
    <rect
       x="38.754238"
       y="7.6355934"
       width="127.78814"
       height="20.169493"
       id="rect1018" />
  </defs>
  <path
     d="m 3.38348,4.33844 c 0,-1.86928 1.51534,-3.384626 3.38462,-3.384626 h 21.3231 c 1.8693,0 3.3846,1.515346 3.3846,3.384626 V 25.6616 c 0,1.8692 -1.5153,3.3846 -3.3846,3.3846 H 6.7681 c -1.86928,0 -3.38462,-1.5154 -3.38462,-3.3846 z"
     fill="#286df5"
     id="path1813" />
  <path
     fill-rule="evenodd"
     clip-rule="evenodd"
     d="m 3.38348,4.33844 c 0,-1.86928 1.51534,-3.384626 3.38462,-3.384626 h 21.3231 c 1.8693,0 3.3846,1.515346 3.3846,3.384626 V 25.6616 c 0,1.8692 -1.5153,3.3846 -3.3846,3.3846 H 6.7681 c -1.86928,0 -3.38462,-1.5154 -3.38462,-3.3846 V 22.2129 H 1.79997 c -0.46732,0 -0.846156,-0.3788 -0.846156,-0.8462 v -1.9521 c 0,-0.4673 0.378836,-0.8461 0.846156,-0.8461 H 3.38348 V 11.5834 H 1.79997 c -0.46732,0 -0.846156,-0.3789 -0.846156,-0.8462 V 8.7851 c 0,-0.46732 0.378836,-0.84616 0.846156,-0.84616 H 3.38348 Z M 2.42966,6.98513 V 4.33844 C 2.42966,1.94238 4.37205,0 6.7681,0 h 21.3231 c 2.3961,0 4.3385,1.94238 4.3385,4.33844 V 25.6616 C 32.4297,28.0576 30.4873,30 28.0912,30 H 6.7681 C 4.37205,30 2.42966,28.0576 2.42966,25.6616 V 23.1667 H 1.79997 C 0.805873,23.1667 0,22.3608 0,21.3667 V 19.4146 C 0,18.4205 0.805876,17.6147 1.79997,17.6147 H 2.42966 V 12.5372 H 1.79997 C 0.805873,12.5372 0,11.7313 0,10.7372 V 8.7851 C 0,7.791 0.805875,6.98513 1.79997,6.98513 Z"
     fill="#ffffff"
     id="path1815" />
  <path
     d="m 27.6798,17.8841 c 0,0.2935 -0.238,0.5315 -0.5315,0.5315 -0.2935,0 -0.5315,-0.238 -0.5315,-0.5315 v -5.7703 c 0,-0.2936 0.238,-0.5315 0.5315,-0.5315 0.2935,0 0.5315,0.2379 0.5315,0.5315 z"
     fill="#ffffff"
     id="path1817" />
  <path
     d="m 18.8177,12.0633 c 0.0826,0.0413 0.2064,0.0413 0.2889,0 0.1651,-0.0826 0.2477,-0.3302 0.1651,-0.4953 -0.6191,-1.2795 -1.8986,-2.10505 -3.2607,-2.10505 -0.9493,0 -1.8574,0.41276 -2.5591,1.11445 -0.6604,0.7017 -1.0731,1.6097 -1.0731,2.6003 0,0.0826 0.0412,0.2064 0.0825,0.2477 0.0826,0.0825 0.1651,0.1238 0.2477,0.1238 0.2063,0 0.3714,-0.1651 0.3714,-0.3715 0.0413,-1.6097 1.3621,-2.9718 2.8893,-2.9718 1.0732,0 2.0638,0.6604 2.6003,1.6923 0.0826,0.0825 0.1652,0.1651 0.2477,0.1651 z"
     fill="#ffffff"
     id="path1819" />
  <path
     d="m 16.0523,20.564 c 1.2382,0 2.3939,-0.6604 3.0543,-1.7336 0.3715,-0.5779 0.5366,-1.2383 0.5366,-1.9399 v -3.3433 c 0,-0.2064 -0.1651,-0.3715 -0.3715,-0.3715 -0.2063,0 -0.3714,0.1651 -0.3714,0.3715 v 3.3433 c 0,0.5365 -0.1651,1.0731 -0.4541,1.5684 -0.5366,0.8668 -1.4446,1.3621 -2.4352,1.3621 -1.6098,0 -2.8893,-1.3208 -2.8893,-2.9305 v -1.8574 c 0,-0.2064 -0.1651,-0.3715 -0.3715,-0.3715 -0.2063,0 -0.3714,0.1651 -0.3714,0.3715 v 1.8574 c 0.0412,2.0224 1.651,3.6735 3.6735,3.6735 z"
     fill="#ffffff"
     id="path1821" />
  <path
     d="m 11.2633,13.2982 c 0,-0.2477 0,-0.4953 0.0413,-0.7843 0.0413,-0.2063 -0.1238,-0.4127 -0.2889,-0.4127 h -0.0413 c -0.0825,0 -0.1651,0.0413 -0.2064,0.0825 -0.0825,0.0413 -0.1238,0.1651 -0.1651,0.2477 -0.0412,0.2889 -0.0825,0.5778 -0.0825,0.908 v 3.591 c 0,3.0544 2.4765,5.5309 5.4896,5.5309 1.8574,0 3.591,-0.9493 4.5816,-2.5178 0.1238,-0.1651 0.0825,-0.4128 -0.1239,-0.5366 -0.0825,-0.0413 -0.1651,-0.0825 -0.2889,-0.0413 -0.0825,0 -0.1651,0.0826 -0.2476,0.1651 -0.8668,1.3621 -2.3527,2.1876 -3.9625,2.1876 -2.6416,0 -4.7466,-2.1463 -4.7466,-4.7879 v -3.6322 z"
     fill="#ffffff"
     id="path1823" />
  <path
     d="m 21.4595,17.6733 c 0.0413,-0.2476 0.0413,-0.4953 0.0413,-0.7842 v -3.591 c 0,-1.4859 -0.5778,-2.9305 -1.6097,-4.00367 -1.0319,-1.11444 -2.4353,-1.73356 -3.8799,-1.73356 -1.8161,0 -3.5497,0.94933 -4.5816,2.55903 -0.1238,0.1651 -0.0825,0.4128 0.1239,0.5366 0.0825,0.0413 0.1651,0.0826 0.2889,0.0413 0.0825,0 0.1651,-0.0826 0.2476,-0.1651 0.9081,-1.40337 2.394,-2.22888 3.9625,-2.22888 2.6003,0 4.7466,2.27018 4.7466,4.99428 v 3.591 c 0,0.2064 0,0.454 -0.0412,0.6604 -0.0413,0.2064 0.1238,0.4127 0.3302,0.4127 0.1651,0.0413 0.3714,-0.1238 0.3714,-0.2889 z"
     fill="#ffffff"
     id="path1825" />
  <path
     d="m 9.03533,16.106 c 0.20638,0 0.37148,-0.1651 0.37148,-0.3715 v -2.394 c 0,-3.75604 3.01309,-6.93424 6.60409,-6.93424 h 0.0412 c 3.2608,0 6.1088,2.6829 6.5628,6.06744 0,0.0826 0.0826,0.2064 0.1238,0.2477 0.0826,0.0413 0.1651,0.0825 0.289,0.0825 0.2063,-0.0412 0.3302,-0.2063 0.3302,-0.4127 -0.2064,-1.8161 -1.0732,-3.50842 -2.394,-4.74668 -1.3621,-1.27953 -3.0957,-1.98121 -4.8705,-1.98121 -1.9812,0 -3.8386,0.8255 -5.242,2.31142 C 9.48936,9.41936 8.70513,11.3593 8.70513,13.3405 v 2.394 c -0.04128,0.2064 0.12383,0.3715 0.3302,0.3715 z"
     fill="#ffffff"
     id="path1827" />
  <path
     d="m 23.0279,13.9621 c -0.2064,0 -0.3715,0.1651 -0.3715,0.3715 v 2.5178 c 0,3.6735 -2.9718,6.6866 -6.6041,6.6866 -3.3845,0 -6.23253,-2.5591 -6.56273,-5.9849 0,-0.0826 -0.04127,-0.2064 -0.12382,-0.2477 C 9.28319,17.2641 9.20064,17.2229 9.11809,17.2229 H 9.07682 c -0.08255,0 -0.20638,0.0412 -0.24765,0.1238 -0.08255,0.0825 -0.08255,0.1651 -0.08255,0.2889 0.20637,1.8161 1.03188,3.5084 2.39398,4.7467 1.3621,1.2382 3.0956,1.9399 4.953,1.9399 4.045,0 7.347,-3.3433 7.347,-7.4295 v -2.5178 c -0.0413,-0.2477 -0.2064,-0.4128 -0.4127,-0.4128 z"
     fill="#ffffff"
     id="path1829" />
  <path
     d="m 16.0109,12.8465 c -0.9494,0 -1.6923,0.7842 -1.6923,1.7335 0,0.4128 0.1651,0.8255 0.4127,1.1145 l 0.0413,0.0412 v 1.1145 c 0,0.2064 0.1651,0.3715 0.3715,0.3715 h 1.8161 c 0.2064,0 0.3715,-0.1651 0.3715,-0.3715 v -1.1145 l 0.0412,-0.0412 c 0.289,-0.3302 0.4128,-0.7017 0.4128,-1.1145 -0.0826,-0.9906 -0.8668,-1.7335 -1.7748,-1.7335 z M 16.63,15.323 c 0,0 -0.1238,0.0825 -0.1238,0.2064 0,0.1238 0,0.9493 0,0.9493 H 15.433 c 0,0 0,-0.7842 0,-0.9493 0,-0.1239 -0.0826,-0.2064 -0.0826,-0.2064 -0.2063,-0.2064 -0.3302,-0.454 -0.3302,-0.743 0,-0.5365 0.4541,-0.9906 0.9907,-0.9906 0.5365,0 0.9906,0.4541 0.9906,0.9906 0,0.2477 -0.1239,0.5366 -0.3715,0.743 z"
     fill="#ffffff"
     id="path1831" />
  <path
     fill-rule="evenodd"
     clip-rule="evenodd"
     d="m 3.38348,11.5834 h 2.64635 c 0.46732,0 0.84616,-0.3789 0.84616,-0.8462 V 8.7851 c 0,-0.46732 -0.37884,-0.84616 -0.84616,-0.84616 H 3.38348 Z"
     fill="#286df5"
     id="path1833" />
  <path
     d="M 3.38348,11.5834 V 7.93894 H 1.79997 c -0.46732,0 -0.846156,0.37884 -0.846156,0.84616 v 1.9521 c 0,0.4673 0.378836,0.8462 0.846156,0.8462 z"
     fill="#286df5"
     id="path1835" />
  <path
     fill-rule="evenodd"
     clip-rule="evenodd"
     d="m 3.38348,22.2129 h 2.64635 c 0.46732,0 0.84616,-0.3788 0.84616,-0.8462 v -1.9521 c 0,-0.4673 -0.37884,-0.8461 -0.84616,-0.8461 H 3.38348 Z"
     fill="#286df5"
     id="path1837" />
  <path
     d="M 3.38348,22.2129 V 18.5685 H 1.79997 c -0.46732,0 -0.846156,0.3788 -0.846156,0.8461 v 1.9521 c 0,0.4674 0.378836,0.8462 0.846156,0.8462 z"
     fill="#286df5"
     id="path1839" />
  <g
     aria-label="LOGINID Wallet"
     transform="matrix(1.1973174,0,0,1.4273021,-12.618132,-4.3373738)"
     id="text1016"
     style="white-space:pre;shape-inside:url(#rect1018);fill:#ffffff;stroke:#ffffff;stroke-width:0.309767">
    <path
       d="M 46.160156,18.582729 H 39.867187 V 9.8581201 h 2.25 v 7.0371089 h 4.042969 z"
       style="font-weight:bold;-inkscape-font-specification:'sans-serif Bold'"
       id="path1785" />
    <path
       d="m 55.998047,14.223354 q 0,2.085938 -1.195313,3.316407 -1.195312,1.224609 -3.304687,1.224609 -2.103516,0 -3.298828,-1.224609 -1.195313,-1.230469 -1.195313,-3.316407 0,-2.103515 1.195313,-3.322265 1.195312,-1.2246096 3.298828,-1.2246096 2.097656,0 3.298828,1.2246096 1.201172,1.21875 1.201172,3.322265 z m -2.982422,2.208985 q 0.328125,-0.398438 0.486328,-0.9375 0.158203,-0.544922 0.158203,-1.277344 0,-0.785156 -0.18164,-1.335937 -0.181641,-0.550782 -0.47461,-0.890625 -0.298828,-0.351563 -0.691406,-0.509766 -0.386719,-0.158203 -0.808594,-0.158203 -0.427734,0 -0.808594,0.152344 -0.375,0.152343 -0.691406,0.503906 -0.292969,0.328125 -0.480469,0.908203 -0.18164,0.574219 -0.18164,1.335937 0,0.779297 0.175781,1.330079 0.181641,0.544921 0.474609,0.890625 0.292969,0.345703 0.685547,0.509765 0.392578,0.164063 0.826172,0.164063 0.433594,0 0.826172,-0.164063 0.392578,-0.169922 0.685547,-0.521484 z"
       style="font-weight:bold;-inkscape-font-specification:'sans-serif Bold'"
       id="path1787" />
    <path
       d="m 65.431641,18.084683 q -0.585938,0.228515 -1.552735,0.457031 -0.966797,0.222656 -1.927734,0.222656 -2.226563,0 -3.486328,-1.207031 -1.259766,-1.212891 -1.259766,-3.345703 0,-2.033203 1.271484,-3.275391 1.271485,-1.2480468 3.544922,-1.2480468 0.861328,0 1.640625,0.1582031 0.779297,0.1523438 1.734375,0.6152347 v 2.044922 h -0.251953 q -0.164062,-0.123047 -0.480469,-0.345704 -0.316406,-0.228515 -0.609375,-0.386718 -0.339843,-0.1875 -0.796875,-0.322266 -0.451171,-0.134766 -0.960937,-0.134766 -0.597656,0 -1.083984,0.175782 -0.486329,0.175781 -0.873047,0.539062 -0.369141,0.351563 -0.585938,0.896485 -0.210937,0.539062 -0.210937,1.248046 0,1.447266 0.767578,2.214844 0.767578,0.767578 2.267578,0.767578 0.128906,0 0.28125,-0.0059 0.158203,-0.0059 0.287109,-0.01758 V 15.424526 H 61.40625 v -1.646484 h 4.025391 z"
       style="font-weight:bold;-inkscape-font-specification:'sans-serif Bold'"
       id="path1789" />
    <path
       d="m 72.164062,18.582729 h -5.109375 v -1.546875 h 1.429688 V 11.404995 H 67.054687 V 9.8581201 h 5.109375 v 1.5468749 h -1.429687 v 5.630859 h 1.429687 z"
       style="font-weight:bold;-inkscape-font-specification:'sans-serif Bold'"
       id="path1791" />
    <path
       d="m 81.931641,18.582729 h -2.167969 l -3.703125,-5.988281 v 5.988281 h -2.0625 V 9.8581201 H 76.6875 l 3.181641,4.9980469 V 9.8581201 h 2.0625 z"
       style="font-weight:bold;-inkscape-font-specification:'sans-serif Bold'"
       id="path1793" />
    <path
       d="m 88.875,18.582729 h -5.109375 v -1.546875 h 1.429687 V 11.404995 H 83.765625 V 9.8581201 H 88.875 v 1.5468749 h -1.429688 v 5.630859 H 88.875 Z"
       style="font-weight:bold;-inkscape-font-specification:'sans-serif Bold'"
       id="path1795" />
    <path
       d="m 98.953125,14.229214 q 0,1.21875 -0.556641,2.185547 -0.55664,0.960937 -1.40625,1.476562 -0.638672,0.386719 -1.40039,0.539063 -0.761719,0.152343 -1.804688,0.152343 H 90.708984 V 9.8581201 h 3.164063 q 1.066406,0 1.839844,0.1816409 0.773437,0.175781 1.300781,0.503906 0.902344,0.550781 1.417969,1.488281 0.521484,0.931641 0.521484,2.197266 z m -2.326172,-0.01758 q 0,-0.861328 -0.316406,-1.470703 Q 96,12.125698 95.320312,11.779995 q -0.345703,-0.169922 -0.708984,-0.228516 -0.357422,-0.06445 -1.083984,-0.06445 h -0.56836 v 5.460938 h 0.56836 q 0.802734,0 1.177734,-0.07031 0.375,-0.07617 0.732422,-0.269531 0.615234,-0.351562 0.902344,-0.9375 0.287109,-0.591797 0.287109,-1.458984 z"
       style="font-weight:bold;-inkscape-font-specification:'sans-serif Bold'"
       id="path1797" />
    <path
       d="m 115.10156,9.8581201 -2.26758,8.7246089 h -1.30664 l -1.83398,-7.242187 -1.79297,7.242187 h -1.27734 l -2.3086,-8.7246089 h 1.18946 l 1.83398,7.2539059 1.80469,-7.2539059 h 1.17773 l 1.82227,7.3242189 1.82226,-7.3242189 z"
       id="path1799" />
    <path
       d="m 121.22461,18.582729 h -1.0957 v -0.697265 q -0.14649,0.09961 -0.39844,0.28125 -0.24609,0.175781 -0.48047,0.28125 -0.27539,0.134765 -0.63281,0.222656 -0.35742,0.09375 -0.83789,0.09375 -0.88477,0 -1.5,-0.585937 -0.61524,-0.585938 -0.61524,-1.494141 0,-0.744141 0.31641,-1.201172 0.32226,-0.462891 0.91406,-0.726562 0.59766,-0.263672 1.43555,-0.357422 0.83789,-0.09375 1.79883,-0.140625 v -0.169922 q 0,-0.375 -0.13477,-0.621094 -0.12891,-0.246094 -0.375,-0.386719 -0.23437,-0.134765 -0.5625,-0.18164 -0.32812,-0.04687 -0.68555,-0.04687 -0.43359,0 -0.96679,0.117187 -0.53321,0.111328 -1.10157,0.328125 h -0.0586 v -1.11914 q 0.32227,-0.08789 0.93164,-0.19336 0.60938,-0.105469 1.20117,-0.105469 0.69141,0 1.20118,0.117188 0.51562,0.111328 0.89062,0.386719 0.36914,0.269531 0.5625,0.697265 0.19336,0.427735 0.19336,1.060547 z m -1.0957,-1.611328 v -1.822265 q -0.50391,0.0293 -1.18946,0.08789 -0.67968,0.05859 -1.07812,0.169922 -0.47461,0.134766 -0.76758,0.421875 -0.29297,0.28125 -0.29297,0.779297 0,0.5625 0.33985,0.849609 0.33984,0.28125 1.0371,0.28125 0.58008,0 1.06055,-0.222656 0.48047,-0.228515 0.89063,-0.544922 z"
       id="path1801" />
    <path
       d="m 124.45898,18.582729 h -1.10156 V 9.4655419 h 1.10156 z"
       id="path1803" />
    <path
       d="m 127.75195,18.582729 h -1.10156 V 9.4655419 h 1.10156 z"
       id="path1805" />
    <path
       d="m 135.41016,15.424526 h -4.82227 q 0,0.603516 0.18164,1.054688 0.18164,0.445312 0.49805,0.732422 0.30469,0.28125 0.7207,0.421875 0.42188,0.140625 0.92578,0.140625 0.66797,0 1.3418,-0.263672 0.67969,-0.269531 0.9668,-0.527344 h 0.0586 v 1.201172 q -0.55664,0.234375 -1.13672,0.392578 -0.58008,0.158203 -1.21875,0.158203 -1.62891,0 -2.54297,-0.878906 -0.91406,-0.884766 -0.91406,-2.507813 0,-1.605468 0.87305,-2.548828 0.8789,-0.943359 2.30859,-0.943359 1.32422,0 2.03906,0.773437 0.72071,0.773438 0.72071,2.197266 z m -1.07227,-0.84375 q -0.006,-0.867187 -0.43945,-1.341797 -0.42774,-0.474609 -1.30664,-0.474609 -0.88477,0 -1.41211,0.521484 -0.52149,0.521485 -0.5918,1.294922 z"
       id="path1807" />
    <path
       d="m 140.47852,18.524136 q -0.31055,0.08203 -0.67969,0.134765 -0.36328,0.05273 -0.65039,0.05273 -1.00196,0 -1.52344,-0.539063 -0.52148,-0.539062 -0.52148,-1.728515 v -3.480469 h -0.74415 v -0.925781 h 0.74415 v -1.88086 h 1.10156 v 1.88086 h 2.27344 v 0.925781 h -2.27344 v 2.982422 q 0,0.515625 0.0234,0.808593 0.0234,0.28711 0.16406,0.539063 0.1289,0.234375 0.35156,0.345703 0.22852,0.105469 0.69141,0.105469 0.26953,0 0.5625,-0.07617 0.29297,-0.08203 0.42187,-0.134766 h 0.0586 z"
       id="path1809" />
  </g>
</svg>
