<svg width="173" height="34" viewBox="0 0 173 34" fill="none" xmlns="http://www.w3.org/2000/svg">
    <path d="M2.7289 7.21823V10.0212H1.77624C1.07139 10.0212 0.5 10.5926 0.5 11.2975V13.0883C0.5 13.7931 1.07139 14.3645 1.77624 14.3645H2.7289V19.7725H1.77624C1.07139 19.7725 0.5 20.3438 0.5 21.0487V22.8395C0.5 23.5443 1.07139 24.1157 1.77624 24.1157H2.7289V26.7794C2.7289 28.7704 4.34289 30.3844 6.33385 30.3844H25.895C27.886 30.3844 29.5 28.7704 29.5 26.7794V7.21823C29.5 5.22727 27.886 3.61328 25.895 3.61328H6.33385C4.34289 3.61328 2.7289 5.22727 2.7289 7.21823Z" fill="url(#paint0_linear_796_10002)" stroke="white" />
    <rect x="25.5176" y="20.1328" width="0.975123" height="6.26865" rx="0.487562" transform="rotate(-180 25.5176 20.1328)" fill="white" />
    <path d="M17.3879 14.3034C17.4636 14.3413 17.5772 14.3413 17.6529 14.3034C17.8044 14.2277 17.8801 14.0005 17.8044 13.8491C17.2364 12.6753 16.0626 11.918 14.8131 11.918C13.9422 11.918 13.1091 12.2966 12.4654 12.9403C11.8596 13.584 11.481 14.417 11.481 15.3258C11.481 15.4015 11.5188 15.5151 11.5567 15.553C11.6324 15.6287 11.7081 15.6666 11.7839 15.6666C11.9732 15.6666 12.1247 15.5151 12.1247 15.3258C12.1625 13.8491 13.3742 12.5995 14.7752 12.5995C15.7597 12.5995 16.6684 13.2054 17.1607 14.152C17.2364 14.2277 17.3121 14.3034 17.3879 14.3034Z" fill="white" />
    <path d="M14.8509 22.102C15.9869 22.102 17.0471 21.4962 17.6529 20.5117C17.9937 19.9816 18.1451 19.3757 18.1451 18.732V15.665C18.1451 15.4757 17.9937 15.3242 17.8044 15.3242C17.615 15.3242 17.4636 15.4757 17.4636 15.665V18.732C17.4636 19.2243 17.3121 19.7165 17.0471 20.1709C16.5548 20.9661 15.7218 21.4204 14.8131 21.4204C13.3363 21.4204 12.1625 20.2088 12.1625 18.732V17.0281C12.1625 16.8388 12.0111 16.6873 11.8217 16.6873C11.6324 16.6873 11.481 16.8388 11.481 17.0281V18.732C11.5188 20.5874 12.9955 22.102 14.8509 22.102Z" fill="white" />
    <path d="M10.4577 15.4379C10.4577 15.2107 10.4577 14.9835 10.4956 14.7185C10.5334 14.5292 10.382 14.3398 10.2305 14.3398H10.1926C10.1169 14.3398 10.0412 14.3777 10.0033 14.4156C9.92758 14.4534 9.88972 14.567 9.85185 14.6428C9.81399 14.9078 9.77612 15.1729 9.77612 15.4758V18.77C9.77612 21.572 12.048 23.8439 14.8121 23.8439C16.516 23.8439 18.1064 22.973 19.0151 21.5341C19.1287 21.3827 19.0908 21.1555 18.9015 21.0419C18.8258 21.004 18.7501 20.9662 18.6365 21.004C18.5607 21.004 18.485 21.0798 18.4093 21.1555C17.6141 22.405 16.251 23.1623 14.7743 23.1623C12.3509 23.1623 10.4198 21.1934 10.4198 18.77V15.4379H10.4577Z" fill="white" />
    <path d="M19.8113 19.4526C19.8492 19.2254 19.8492 18.9983 19.8492 18.7332V15.439C19.8492 14.0758 19.319 12.7506 18.3724 11.7661C17.4258 10.7438 16.1384 10.1758 14.8131 10.1758C13.1471 10.1758 11.5568 11.0467 10.6102 12.5234C10.4966 12.6749 10.5344 12.902 10.7238 13.0156C10.7995 13.0535 10.8752 13.0914 10.9888 13.0535C11.0645 13.0535 11.1403 12.9778 11.216 12.902C12.049 11.6146 13.4122 10.8573 14.851 10.8573C17.2365 10.8573 19.2055 12.9399 19.2055 15.439V18.7332C19.2055 18.9225 19.2055 19.1497 19.1676 19.339C19.1297 19.5284 19.2812 19.7177 19.4705 19.7177C19.622 19.7556 19.8113 19.6041 19.8113 19.4526Z" fill="white" />
    <path d="M8.41374 18.0134C8.60306 18.0134 8.75452 17.8619 8.75452 17.6726V15.4764C8.75452 12.0307 11.5186 9.11516 14.8129 9.11516H14.8507C17.8421 9.11516 20.4547 11.5764 20.8712 14.6813C20.8712 14.757 20.947 14.8706 20.9848 14.9085C21.0606 14.9463 21.1363 14.9842 21.2499 14.9842C21.4392 14.9463 21.5528 14.7949 21.5528 14.6055C21.3635 12.9395 20.5683 11.387 19.3566 10.2511C18.1071 9.07729 16.5168 8.43359 14.8886 8.43359C13.0711 8.43359 11.3672 9.19089 10.0798 10.554C8.83025 11.8793 8.11082 13.6589 8.11082 15.4764V17.6726C8.07296 17.8619 8.22442 18.0134 8.41374 18.0134Z" fill="white" />
    <path d="M21.2501 16.0469C21.0608 16.0469 20.9093 16.1983 20.9093 16.3877V18.6974C20.9093 22.0674 18.1831 24.8315 14.851 24.8315C11.7461 24.8315 9.13341 22.4839 8.83049 19.3411C8.83049 19.2654 8.79263 19.1518 8.7169 19.1139C8.64117 19.0761 8.56544 19.0382 8.48971 19.0382H8.45184C8.37611 19.0382 8.26252 19.0761 8.22466 19.1518C8.14893 19.2275 8.14893 19.3032 8.14893 19.4168C8.33825 21.0829 9.09554 22.6353 10.3451 23.7713C11.5946 24.9072 13.1849 25.5509 14.8888 25.5509C18.5996 25.5509 21.6288 22.4839 21.6288 18.7353V16.4255C21.5909 16.1983 21.4394 16.0469 21.2501 16.0469Z" fill="white" />
    <path d="M14.8128 15.0234C13.9419 15.0234 13.2604 15.7429 13.2604 16.6138C13.2604 16.9924 13.4118 17.3711 13.639 17.6361L13.6769 17.674V18.6963C13.6769 18.8856 13.8283 19.0371 14.0177 19.0371H14.8507H15.6837C15.873 19.0371 16.0245 18.8856 16.0245 18.6963V17.674L16.0624 17.6361C16.3274 17.3332 16.441 16.9924 16.441 16.6138C16.3653 15.705 15.6459 15.0234 14.8128 15.0234ZM15.3808 17.2953C15.3808 17.2953 15.2672 17.3711 15.2672 17.4846C15.2672 17.5982 15.2672 18.3555 15.2672 18.3555H14.775H14.2827C14.2827 18.3555 14.2827 17.6361 14.2827 17.4846C14.2827 17.3711 14.207 17.2953 14.207 17.2953C14.0177 17.106 13.9041 16.8788 13.9041 16.6138C13.9041 16.1215 14.3206 15.705 14.8128 15.705C15.3051 15.705 15.7216 16.1215 15.7216 16.6138C15.7216 16.8409 15.608 17.106 15.3808 17.2953Z" fill="white" />
    <path d="M45.9492 7.09375V27H43.3105V7.09375H45.9492ZM54.2891 16.0488V18.209H45.375V16.0488H54.2891ZM55.6426 7.09375V9.25391H45.375V7.09375H55.6426ZM61.6172 7.09375V27H58.9785V7.09375H61.6172ZM71.8027 27H67.6465L67.6738 24.8535H71.8027C73.2246 24.8535 74.4095 24.5573 75.3574 23.9648C76.3053 23.3633 77.0163 22.5247 77.4902 21.4492C77.9733 20.3646 78.2148 19.0977 78.2148 17.6484V16.4316C78.2148 15.2923 78.0781 14.2806 77.8047 13.3965C77.5312 12.5033 77.1302 11.7513 76.6016 11.1406C76.0729 10.5208 75.4258 10.0514 74.6602 9.73242C73.9036 9.41341 73.0332 9.25391 72.0488 9.25391H67.5645V7.09375H72.0488C73.3522 7.09375 74.5417 7.3125 75.6172 7.75C76.6927 8.17839 77.6178 8.80273 78.3926 9.62305C79.1764 10.4342 79.778 11.4186 80.1973 12.5762C80.6165 13.7246 80.8262 15.0189 80.8262 16.459V17.6484C80.8262 19.0885 80.6165 20.3874 80.1973 21.5449C79.778 22.6934 79.1719 23.6732 78.3789 24.4844C77.5951 25.2956 76.6471 25.9199 75.5352 26.3574C74.4323 26.7858 73.1882 27 71.8027 27ZM69.0547 7.09375V27H66.416V7.09375H69.0547ZM100.117 16.418V17.6758C100.117 19.1706 99.9303 20.5104 99.5566 21.6953C99.1829 22.8802 98.6452 23.8874 97.9434 24.7168C97.2415 25.5462 96.3984 26.1797 95.4141 26.6172C94.4388 27.0547 93.3451 27.2734 92.1328 27.2734C90.957 27.2734 89.877 27.0547 88.8926 26.6172C87.9173 26.1797 87.0697 25.5462 86.3496 24.7168C85.6387 23.8874 85.0872 22.8802 84.6953 21.6953C84.3034 20.5104 84.1074 19.1706 84.1074 17.6758V16.418C84.1074 14.9232 84.2988 13.5879 84.6816 12.4121C85.0736 11.2272 85.625 10.2201 86.3359 9.39062C87.0469 8.55208 87.89 7.91406 88.8652 7.47656C89.8496 7.03906 90.9297 6.82031 92.1055 6.82031C93.3177 6.82031 94.4115 7.03906 95.3867 7.47656C96.3711 7.91406 97.2142 8.55208 97.916 9.39062C98.627 10.2201 99.1693 11.2272 99.543 12.4121C99.9258 13.5879 100.117 14.9232 100.117 16.418ZM97.5059 17.6758V16.3906C97.5059 15.2057 97.3828 14.1576 97.1367 13.2461C96.8997 12.3346 96.5488 11.569 96.084 10.9492C95.6191 10.3294 95.0495 9.86003 94.375 9.54102C93.7096 9.22201 92.9531 9.0625 92.1055 9.0625C91.2852 9.0625 90.5423 9.22201 89.877 9.54102C89.2207 9.86003 88.6556 10.3294 88.1816 10.9492C87.7168 11.569 87.3568 12.3346 87.1016 13.2461C86.8464 14.1576 86.7188 15.2057 86.7188 16.3906V17.6758C86.7188 18.8698 86.8464 19.9271 87.1016 20.8477C87.3568 21.7591 87.7214 22.5293 88.1953 23.1582C88.6784 23.778 89.248 24.2474 89.9043 24.5664C90.5697 24.8854 91.3125 25.0449 92.1328 25.0449C92.9896 25.0449 93.7507 24.8854 94.416 24.5664C95.0814 24.2474 95.6419 23.778 96.0977 23.1582C96.5625 22.5293 96.9134 21.7591 97.1504 20.8477C97.3874 19.9271 97.5059 18.8698 97.5059 17.6758ZM117.439 23.9785L123.305 7.09375H126.162L118.793 27H116.756L117.439 23.9785ZM111.957 7.09375L117.768 23.9785L118.492 27H116.455L109.1 7.09375H111.957ZM136.553 24.4707V16.8555C136.553 16.2721 136.434 15.7663 136.197 15.3379C135.969 14.9004 135.623 14.5632 135.158 14.3262C134.693 14.0892 134.119 13.9707 133.436 13.9707C132.798 13.9707 132.237 14.0801 131.754 14.2988C131.28 14.5176 130.906 14.8047 130.633 15.1602C130.368 15.5156 130.236 15.8984 130.236 16.3086H127.707C127.707 15.7799 127.844 15.2559 128.117 14.7363C128.391 14.2168 128.783 13.7474 129.293 13.3281C129.812 12.8997 130.432 12.5625 131.152 12.3164C131.882 12.0612 132.693 11.9336 133.586 11.9336C134.661 11.9336 135.609 12.1159 136.43 12.4805C137.259 12.8451 137.906 13.3965 138.371 14.1348C138.845 14.8639 139.082 15.7799 139.082 16.8828V23.7734C139.082 24.2656 139.123 24.7897 139.205 25.3457C139.296 25.9017 139.428 26.3802 139.602 26.7812V27H136.963C136.835 26.7083 136.735 26.321 136.662 25.8379C136.589 25.3457 136.553 24.89 136.553 24.4707ZM136.99 18.0312L137.018 19.8086H134.461C133.741 19.8086 133.098 19.8678 132.533 19.9863C131.968 20.0957 131.494 20.2643 131.111 20.4922C130.729 20.7201 130.437 21.0072 130.236 21.3535C130.036 21.6908 129.936 22.0872 129.936 22.543C129.936 23.0078 130.04 23.4316 130.25 23.8145C130.46 24.1973 130.774 24.5026 131.193 24.7305C131.622 24.9492 132.146 25.0586 132.766 25.0586C133.54 25.0586 134.224 24.8945 134.816 24.5664C135.409 24.2383 135.878 23.8372 136.225 23.3633C136.58 22.8893 136.771 22.429 136.799 21.9824L137.879 23.1992C137.815 23.582 137.642 24.0059 137.359 24.4707C137.077 24.9355 136.699 25.3822 136.225 25.8105C135.76 26.2298 135.204 26.5807 134.557 26.8633C133.919 27.1367 133.199 27.2734 132.396 27.2734C131.394 27.2734 130.514 27.0775 129.758 26.6855C129.01 26.2936 128.427 25.7695 128.008 25.1133C127.598 24.4479 127.393 23.7051 127.393 22.8848C127.393 22.0918 127.548 21.3945 127.857 20.793C128.167 20.1823 128.614 19.6764 129.197 19.2754C129.781 18.8652 130.482 18.5553 131.303 18.3457C132.123 18.1361 133.039 18.0312 134.051 18.0312H136.99ZM152.111 23.582V12.207H154.654V27H152.234L152.111 23.582ZM152.59 20.4648L153.643 20.4375C153.643 21.4219 153.538 22.3333 153.328 23.1719C153.128 24.0013 152.799 24.7214 152.344 25.332C151.888 25.9427 151.291 26.4212 150.553 26.7676C149.814 27.1048 148.917 27.2734 147.859 27.2734C147.139 27.2734 146.479 27.1686 145.877 26.959C145.285 26.7493 144.774 26.4258 144.346 25.9883C143.917 25.5508 143.585 24.9811 143.348 24.2793C143.12 23.5775 143.006 22.7344 143.006 21.75V12.207H145.535V21.7773C145.535 22.4427 145.608 22.9941 145.754 23.4316C145.909 23.86 146.114 24.2018 146.369 24.457C146.633 24.7031 146.925 24.8763 147.244 24.9766C147.572 25.0768 147.91 25.127 148.256 25.127C149.331 25.127 150.184 24.9219 150.812 24.5117C151.441 24.0924 151.893 23.5319 152.166 22.8301C152.449 22.1191 152.59 21.3307 152.59 20.4648ZM161.258 6V27H158.715V6H161.258ZM171.512 12.207V14.1484H163.514V12.207H171.512ZM166.221 8.61133H168.75V23.3359C168.75 23.8372 168.827 24.2155 168.982 24.4707C169.137 24.7259 169.338 24.8945 169.584 24.9766C169.83 25.0586 170.094 25.0996 170.377 25.0996C170.587 25.0996 170.805 25.0814 171.033 25.0449C171.27 24.9993 171.448 24.9629 171.566 24.9355L171.58 27C171.38 27.0638 171.115 27.123 170.787 27.1777C170.468 27.2415 170.081 27.2734 169.625 27.2734C169.005 27.2734 168.436 27.1504 167.916 26.9043C167.396 26.6582 166.982 26.248 166.672 25.6738C166.371 25.0905 166.221 24.3066 166.221 23.3223V8.61133Z" fill="#2F80ED" />
    <defs>
        <linearGradient id="paint0_linear_796_10002" x1="1" y1="4.11328" x2="28.9446" y2="29.8844" gradientUnits="userSpaceOnUse">
            <stop stop-color="#2669F0" />
            <stop offset="1" stop-color="#0335C5" />
        </linearGradient>
    </defs>
</svg>