<?xml version="1.0" encoding="UTF-8" standalone="no"?>
<svg
   width="159"
   height="30"
   viewBox="0 0 159 30"
   fill="none"
   version="1.1"
   id="svg1859"
   xmlns="http://www.w3.org/2000/svg"
   >
  <defs
     id="defs1863" />
  <g
     id="g5128"
     transform="matrix(0.87073549,0,0,0.83614857,1.1754035,2.7865568)">
    <path
       d="m 3.38348,4.33844 c 0,-1.86928 1.51534,-3.384626 3.38462,-3.384626 h 21.3231 c 1.8693,0 3.3846,1.515346 3.3846,3.384626 V 25.6616 c 0,1.8692 -1.5153,3.3846 -3.3846,3.3846 H 6.7681 c -1.86928,0 -3.38462,-1.5154 -3.38462,-3.3846 z"
       fill="#286df5"
       id="path1813" />
    <path
       d="m 27.6798,17.8841 c 0,0.2935 -0.238,0.5315 -0.5315,0.5315 -0.2935,0 -0.5315,-0.238 -0.5315,-0.5315 v -5.7703 c 0,-0.2936 0.238,-0.5315 0.5315,-0.5315 0.2935,0 0.5315,0.2379 0.5315,0.5315 z"
       fill="#ffffff"
       id="path1817" />
    <path
       d="m 18.8177,12.0633 c 0.0826,0.0413 0.2064,0.0413 0.2889,0 0.1651,-0.0826 0.2477,-0.3302 0.1651,-0.4953 -0.6191,-1.2795 -1.8986,-2.10505 -3.2607,-2.10505 -0.9493,0 -1.8574,0.41276 -2.5591,1.11445 -0.6604,0.7017 -1.0731,1.6097 -1.0731,2.6003 0,0.0826 0.0412,0.2064 0.0825,0.2477 0.0826,0.0825 0.1651,0.1238 0.2477,0.1238 0.2063,0 0.3714,-0.1651 0.3714,-0.3715 0.0413,-1.6097 1.3621,-2.9718 2.8893,-2.9718 1.0732,0 2.0638,0.6604 2.6003,1.6923 0.0826,0.0825 0.1652,0.1651 0.2477,0.1651 z"
       fill="#ffffff"
       id="path1819" />
    <path
       d="m 16.0523,20.564 c 1.2382,0 2.3939,-0.6604 3.0543,-1.7336 0.3715,-0.5779 0.5366,-1.2383 0.5366,-1.9399 v -3.3433 c 0,-0.2064 -0.1651,-0.3715 -0.3715,-0.3715 -0.2063,0 -0.3714,0.1651 -0.3714,0.3715 v 3.3433 c 0,0.5365 -0.1651,1.0731 -0.4541,1.5684 -0.5366,0.8668 -1.4446,1.3621 -2.4352,1.3621 -1.6098,0 -2.8893,-1.3208 -2.8893,-2.9305 v -1.8574 c 0,-0.2064 -0.1651,-0.3715 -0.3715,-0.3715 -0.2063,0 -0.3714,0.1651 -0.3714,0.3715 v 1.8574 c 0.0412,2.0224 1.651,3.6735 3.6735,3.6735 z"
       fill="#ffffff"
       id="path1821" />
    <path
       d="m 11.2633,13.2982 c 0,-0.2477 0,-0.4953 0.0413,-0.7843 0.0413,-0.2063 -0.1238,-0.4127 -0.2889,-0.4127 h -0.0413 c -0.0825,0 -0.1651,0.0413 -0.2064,0.0825 -0.0825,0.0413 -0.1238,0.1651 -0.1651,0.2477 -0.0412,0.2889 -0.0825,0.5778 -0.0825,0.908 v 3.591 c 0,3.0544 2.4765,5.5309 5.4896,5.5309 1.8574,0 3.591,-0.9493 4.5816,-2.5178 0.1238,-0.1651 0.0825,-0.4128 -0.1239,-0.5366 -0.0825,-0.0413 -0.1651,-0.0825 -0.2889,-0.0413 -0.0825,0 -0.1651,0.0826 -0.2476,0.1651 -0.8668,1.3621 -2.3527,2.1876 -3.9625,2.1876 -2.6416,0 -4.7466,-2.1463 -4.7466,-4.7879 v -3.6322 z"
       fill="#ffffff"
       id="path1823" />
    <path
       d="m 21.4595,17.6733 c 0.0413,-0.2476 0.0413,-0.4953 0.0413,-0.7842 v -3.591 c 0,-1.4859 -0.5778,-2.9305 -1.6097,-4.00367 -1.0319,-1.11444 -2.4353,-1.73356 -3.8799,-1.73356 -1.8161,0 -3.5497,0.94933 -4.5816,2.55903 -0.1238,0.1651 -0.0825,0.4128 0.1239,0.5366 0.0825,0.0413 0.1651,0.0826 0.2889,0.0413 0.0825,0 0.1651,-0.0826 0.2476,-0.1651 0.9081,-1.40337 2.394,-2.22888 3.9625,-2.22888 2.6003,0 4.7466,2.27018 4.7466,4.99428 v 3.591 c 0,0.2064 0,0.454 -0.0412,0.6604 -0.0413,0.2064 0.1238,0.4127 0.3302,0.4127 0.1651,0.0413 0.3714,-0.1238 0.3714,-0.2889 z"
       fill="#ffffff"
       id="path1825" />
    <path
       d="m 9.03533,16.106 c 0.20638,0 0.37148,-0.1651 0.37148,-0.3715 v -2.394 c 0,-3.75604 3.01309,-6.93424 6.60409,-6.93424 h 0.0412 c 3.2608,0 6.1088,2.6829 6.5628,6.06744 0,0.0826 0.0826,0.2064 0.1238,0.2477 0.0826,0.0413 0.1651,0.0825 0.289,0.0825 0.2063,-0.0412 0.3302,-0.2063 0.3302,-0.4127 -0.2064,-1.8161 -1.0732,-3.50842 -2.394,-4.74668 -1.3621,-1.27953 -3.0957,-1.98121 -4.8705,-1.98121 -1.9812,0 -3.8386,0.8255 -5.242,2.31142 C 9.48936,9.41936 8.70513,11.3593 8.70513,13.3405 v 2.394 c -0.04128,0.2064 0.12383,0.3715 0.3302,0.3715 z"
       fill="#ffffff"
       id="path1827" />
    <path
       d="m 23.0279,13.9621 c -0.2064,0 -0.3715,0.1651 -0.3715,0.3715 v 2.5178 c 0,3.6735 -2.9718,6.6866 -6.6041,6.6866 -3.3845,0 -6.23253,-2.5591 -6.56273,-5.9849 0,-0.0826 -0.04127,-0.2064 -0.12382,-0.2477 C 9.28319,17.2641 9.20064,17.2229 9.11809,17.2229 H 9.07682 c -0.08255,0 -0.20638,0.0412 -0.24765,0.1238 -0.08255,0.0825 -0.08255,0.1651 -0.08255,0.2889 0.20637,1.8161 1.03188,3.5084 2.39398,4.7467 1.3621,1.2382 3.0956,1.9399 4.953,1.9399 4.045,0 7.347,-3.3433 7.347,-7.4295 v -2.5178 c -0.0413,-0.2477 -0.2064,-0.4128 -0.4127,-0.4128 z"
       fill="#ffffff"
       id="path1829" />
    <path
       d="m 16.0109,12.8465 c -0.9494,0 -1.6923,0.7842 -1.6923,1.7335 0,0.4128 0.1651,0.8255 0.4127,1.1145 l 0.0413,0.0412 v 1.1145 c 0,0.2064 0.1651,0.3715 0.3715,0.3715 h 1.8161 c 0.2064,0 0.3715,-0.1651 0.3715,-0.3715 v -1.1145 l 0.0412,-0.0412 c 0.289,-0.3302 0.4128,-0.7017 0.4128,-1.1145 -0.0826,-0.9906 -0.8668,-1.7335 -1.7748,-1.7335 z M 16.63,15.323 c 0,0 -0.1238,0.0825 -0.1238,0.2064 0,0.1238 0,0.9493 0,0.9493 H 15.433 c 0,0 0,-0.7842 0,-0.9493 0,-0.1239 -0.0826,-0.2064 -0.0826,-0.2064 -0.2063,-0.2064 -0.3302,-0.454 -0.3302,-0.743 0,-0.5365 0.4541,-0.9906 0.9907,-0.9906 0.5365,0 0.9906,0.4541 0.9906,0.9906 0,0.2477 -0.1239,0.5366 -0.3715,0.743 z"
       fill="#ffffff"
       id="path1831" />
    <path
       fill-rule="evenodd"
       clip-rule="evenodd"
       d="m 3.38348,11.5834 h 2.64635 c 0.46732,0 0.84616,-0.3789 0.84616,-0.8462 V 8.7851 c 0,-0.46732 -0.37884,-0.84616 -0.84616,-0.84616 H 3.38348 Z"
       fill="#286df5"
       id="path1833" />
    <path
       d="M 3.38348,11.5834 V 7.93894 H 1.79997 c -0.46732,0 -0.846156,0.37884 -0.846156,0.84616 v 1.9521 c 0,0.4673 0.378836,0.8462 0.846156,0.8462 z"
       fill="#286df5"
       id="path1835" />
    <path
       fill-rule="evenodd"
       clip-rule="evenodd"
       d="m 3.38348,22.2129 h 2.64635 c 0.46732,0 0.84616,-0.3788 0.84616,-0.8462 v -1.9521 c 0,-0.4673 -0.37884,-0.8461 -0.84616,-0.8461 H 3.38348 Z"
       fill="#286df5"
       id="path1837" />
    <path
       d="M 3.38348,22.2129 V 18.5685 H 1.79997 c -0.46732,0 -0.846156,0.3788 -0.846156,0.8461 v 1.9521 c 0,0.4674 0.378836,0.8462 0.846156,0.8462 z"
       fill="#286df5"
       id="path1839" />
  </g>
  <g
     id="g3895"
     transform="matrix(0.99245502,0,0,1.0000926,-2.3737023,-0.53289604)"
     style="fill:#ffffff;stroke:#ffffff;stroke-opacity:1">
    <path
       d="m 94.191461,21.57856 h -6.43604 V 19.255334 H 89.55633 V 10.798441 H 87.755421 V 8.4752146 h 6.43604 V 10.798441 H 92.39055 v 8.456893 h 1.800911 z"
       style="font-weight:bold;-inkscape-font-specification:'sans-serif Bold';white-space:pre;fill:#ffffff;stroke:#ffffff;stroke-width:0.426068;stroke-opacity:1"
       id="path1136" />
    <path
       d="m 106.8864,15.040088 q 0,1.830421 -0.70117,3.282437 -0.70117,1.443215 -1.77139,2.217624 -0.8045,0.580807 -1.764,0.80961 -0.95951,0.228801 -2.27329,0.228801 H 96.50164 V 8.4752146 h 3.98563 q 1.3433,0 2.31756,0.2728035 0.97426,0.2640026 1.63854,0.756808 1.13664,0.8272089 1.78614,2.2352249 0.65689,1.399216 0.65689,3.300037 z m -2.93017,-0.0264 q 0,-1.293614 -0.39856,-2.208824 -0.39118,-0.924009 -1.24735,-1.443214 -0.43547,-0.255203 -0.89307,-0.343205 -0.45023,-0.0968 -1.36545,-0.0968 h -0.71594 v 8.201692 h 0.71594 q 1.01117,0 1.48354,-0.105597 0.47237,-0.114399 0.9226,-0.404804 0.77498,-0.528005 1.13664,-1.408016 0.36165,-0.88881 0.36165,-2.191224 z"
       style="font-weight:bold;-inkscape-font-specification:'sans-serif Bold';white-space:pre;fill:#ffffff;stroke:#ffffff;stroke-width:0.426068;stroke-opacity:1"
       id="path1138" />
    <path
       d="M 128.42386,8.3362568 125.5675,21.439602 h -1.64592 l -2.31018,-10.87692 -2.25852,10.87692 h -1.609 L 114.83584,8.3362568 h 1.49831 l 2.31018,10.8945212 2.27328,-10.8945212 h 1.48353 l 2.29543,11.0001232 2.29542,-11.0001232 z"
       id="path1140"
       style="white-space:pre;fill:#ffffff;stroke:#ffffff;stroke-width:0.426068;stroke-opacity:1" />
    <path
       d="m 136.13678,21.439602 h -1.3802 v -1.047211 q -0.18453,0.149603 -0.5019,0.422405 -0.30999,0.264003 -0.60522,0.422405 -0.3469,0.202401 -0.79712,0.334403 -0.45023,0.140802 -1.05545,0.140802 -1.11451,0 -1.88948,-0.880009 -0.77499,-0.880011 -0.77499,-2.244026 0,-1.117613 0.39856,-1.80402 0.40594,-0.695209 1.1514,-1.091212 0.75285,-0.396004 1.8083,-0.536806 1.05545,-0.140801 2.2659,-0.211202 v -0.255203 q 0,-0.563206 -0.16976,-0.932811 -0.16239,-0.369604 -0.47237,-0.580807 -0.29523,-0.202401 -0.70856,-0.272802 -0.41332,-0.07039 -0.86355,-0.07039 -0.54618,0 -1.21782,0.176001 -0.67166,0.167202 -1.3876,0.492806 h -0.0738 v -1.680818 q 0.40595,-0.132001 1.17355,-0.290404 0.7676,-0.158403 1.51305,-0.158403 0.87094,0 1.51307,0.176003 0.64951,0.167202 1.12188,0.580807 0.46499,0.404804 0.70855,1.047211 0.24357,0.642408 0.24357,1.592818 z m -1.3802,-2.420027 v -2.736829 q -0.63475,0.04401 -1.49831,0.132 -0.85616,0.088 -1.35806,0.255203 -0.59784,0.202403 -0.96688,0.633607 -0.36904,0.422405 -0.36904,1.170414 0,0.844809 0.42809,1.276013 0.42808,0.422405 1.30639,0.422405 0.7307,0 1.33592,-0.334403 0.60523,-0.343203 1.12189,-0.81841 z"
       id="path1142"
       style="white-space:pre;fill:#ffffff;stroke:#ffffff;stroke-width:0.426068;stroke-opacity:1" />
    <path
       d="m 140.21097,21.439602 h -1.38759 V 7.7466502 h 1.38759 z"
       id="path1144"
       style="white-space:pre;fill:#ffffff;stroke:#ffffff;stroke-width:0.426068;stroke-opacity:1" />
    <path
       d="m 144.35897,21.439602 h -1.38759 V 7.7466502 h 1.38759 z"
       id="path1146"
       style="white-space:pre;fill:#ffffff;stroke:#ffffff;stroke-width:0.426068;stroke-opacity:1" />
    <path
       d="m 154.00565,16.696349 h -6.07438 q 0,0.906411 0.2288,1.584019 0.2288,0.668807 0.62737,1.100012 0.3838,0.422405 0.90783,0.633607 0.53142,0.211203 1.16616,0.211203 0.84141,0 1.69021,-0.396005 0.85617,-0.404804 1.21783,-0.792009 h 0.0738 v 1.80402 q -0.70118,0.352004 -1.43188,0.589607 -0.7307,0.237602 -1.5352,0.237602 -2.05186,0 -3.20326,-1.320014 -1.1514,-1.328816 -1.1514,-3.766443 0,-2.411226 1.09974,-3.828042 1.10711,-1.416816 2.90802,-1.416816 1.66806,0 2.56851,1.161612 0.90785,1.161614 0.90785,3.300038 z m -1.35068,-1.267214 q -0.008,-1.302413 -0.55356,-2.015222 -0.5388,-0.712808 -1.64591,-0.712808 -1.11451,0 -1.77877,0.783208 -0.6569,0.78321 -0.74546,1.944822 z"
       id="path1148"
       style="white-space:pre;fill:#ffffff;stroke:#ffffff;stroke-width:0.426068;stroke-opacity:1" />
    <path
       d="m 160.39003,21.351602 q -0.39119,0.1232 -0.85617,0.202402 -0.45761,0.07919 -0.81927,0.07919 -1.26212,0 -1.91901,-0.80961 -0.65688,-0.809608 -0.65688,-2.596028 v -5.227258 h -0.93737 v -1.390416 h 0.93737 V 8.785054 h 1.38758 v 2.824832 h 2.86375 v 1.390416 h -2.86375 v 4.47925 q 0,0.774408 0.0295,1.214412 0.0295,0.431206 0.20666,0.80961 0.16237,0.352004 0.44284,0.519205 0.28786,0.158403 0.87094,0.158403 0.33951,0 0.70855,-0.114399 0.36904,-0.123199 0.53141,-0.202403 h 0.0738 z"
       id="path1150"
       style="white-space:pre;fill:#ffffff;stroke:#ffffff;stroke-width:0.426068;stroke-opacity:1" />
    <g
       aria-label="Login"
       id="text3612"
       style="font-size:18.6667px;-inkscape-font-specification:'sans-serif, Normal';fill:#ffffff;stroke:#ffffff;stroke-width:0.449;stroke-opacity:1">
      <path
         d="M 47.178103,21.538462 H 38.59215 V 7.9668226 h 1.804691 V 19.934292 h 6.781262 z"
         id="path3870"
         style="fill:#ffffff;stroke:#ffffff;stroke-opacity:1" />
      <path
         d="m 57.523174,16.452515 q 0,2.488286 -1.276044,3.928393 -1.276044,1.440106 -3.417975,1.440106 -2.16016,0 -3.436204,-1.440106 -1.266929,-1.440107 -1.266929,-3.928393 0,-2.488286 1.266929,-3.928393 1.276044,-1.449221 3.436204,-1.449221 2.141931,0 3.417975,1.449221 1.276044,1.440107 1.276044,3.928393 z m -1.768232,0 q 0,-1.977868 -0.774741,-2.934901 -0.774741,-0.966148 -2.151046,-0.966148 -1.394534,0 -2.169275,0.966148 -0.765626,0.957033 -0.765626,2.934901 0,1.914066 0.774741,2.907557 0.774741,0.984377 2.16016,0.984377 1.36719,0 2.141931,-0.975262 0.783856,-0.984377 0.783856,-2.916672 z"
         id="path3872"
         style="fill:#ffffff;stroke:#ffffff;stroke-opacity:1" />
      <path
         d="m 68.433351,20.380908 q 0,2.588546 -1.175783,3.800788 -1.175784,1.212241 -3.618496,1.212241 -0.8112,0 -1.585941,-0.118489 -0.765626,-0.109376 -1.513023,-0.319011 v -1.750004 h 0.09115 q 0.419271,0.164063 1.330731,0.401043 0.91146,0.246094 1.82292,0.246094 0.875002,0 1.449222,-0.209636 0.574219,-0.209636 0.89323,-0.583334 0.319011,-0.35547 0.45573,-0.856773 0.136719,-0.501303 0.136719,-1.121095 v -0.929689 q -0.774741,0.619792 -1.485679,0.929689 -0.701825,0.300781 -1.795577,0.300781 -1.82292,0 -2.898442,-1.312502 -1.066409,-1.321617 -1.066409,-3.718757 0,-1.312502 0.364584,-2.26042 0.373699,-0.957033 1.011721,-1.649743 0.592449,-0.647136 1.440107,-1.002606 0.847658,-0.364584 1.686201,-0.364584 0.884116,0 1.476565,0.182292 0.601563,0.173178 1.266929,0.537762 l 0.109375,-0.437501 h 1.60417 z M 66.719806,18.74028 v -5.550792 q -0.683595,-0.309896 -1.276044,-0.437501 -0.583334,-0.136719 -1.166668,-0.136719 -1.412763,0 -2.223963,0.947919 -0.811199,0.947918 -0.811199,2.752609 0,1.713545 0.601563,2.597661 0.601564,0.884116 1.996098,0.884116 0.747397,0 1.494794,-0.282552 0.756512,-0.291668 1.385419,-0.774741 z"
         id="path3874"
         style="fill:#ffffff;stroke:#ffffff;stroke-opacity:1" />
      <path
         d="m 73.646899,9.6530236 h -1.932295 v -1.777347 h 1.932295 z M 73.537524,21.538462 H 71.823979 V 11.357454 h 1.713545 z"
         id="path3876"
         style="fill:#ffffff;stroke:#ffffff;stroke-opacity:1" />
      <path
         d="m 85.441192,21.538462 h -1.713545 v -5.796886 q 0,-0.701824 -0.08203,-1.312502 -0.08203,-0.619793 -0.300782,-0.966148 -0.227865,-0.382813 -0.656251,-0.565105 -0.428386,-0.191407 -1.111981,-0.191407 -0.701825,0 -1.467451,0.346355 -0.765626,0.346355 -1.46745,0.884116 v 7.601577 H 76.928156 V 11.357454 h 1.713545 v 1.13021 q 0.802084,-0.665366 1.658857,-1.039064 0.856772,-0.373699 1.759117,-0.373699 1.649743,0 2.51563,0.993492 0.865887,0.993491 0.865887,2.861984 z"
         id="path3878"
         style="fill:#ffffff;stroke:#ffffff;stroke-opacity:1" />
    </g>
  </g>
</svg>
