<svg viewBox="0 0 80 29" xmlns="http://www.w3.org/2000/svg" xml:space="preserve" style="fill-rule:evenodd;clip-rule:evenodd;stroke-linejoin:round;stroke-miterlimit:2">
    <path style="fill:none" d="M-79.92 0h79.2v28.8h-79.2zM0 0h79.2v28.8H0zM-79.92 29.28h79.2v28.8h-79.2zM0 29.28h79.2v28.8H0z"/>
    <path d="M9.088 12.175H8.056a.551.551 0 0 1-.551-.551v-1.271c0-.305.247-.552.551-.552h1.032V7.457c0-1.218.986-2.205 2.204-2.205h13.887c1.217 0 2.204.987 2.204 2.205v13.886a2.205 2.205 0 0 1-2.204 2.205H11.292a2.204 2.204 0 0 1-2.204-2.205v-2.246H8.056a.55.55 0 0 1-.551-.551v-1.271c0-.304.247-.551.551-.551h1.032v-4.549Zm5.131 1.117c0-.162 0-.323.027-.511.027-.134-.08-.269-.188-.269h-.027a.203.203 0 0 0-.134.054c-.054.027-.081.107-.108.161a4.008 4.008 0 0 0-.053.592v2.338c0 1.989 1.612 3.602 3.575 3.602a3.528 3.528 0 0 0 2.983-1.64c.081-.107.054-.268-.08-.349-.054-.027-.108-.054-.188-.027-.054 0-.108.054-.162.108a3.054 3.054 0 0 1-2.58 1.424c-1.721 0-3.091-1.397-3.091-3.118v-2.365h.026Zm3.092-.294c-.618 0-1.102.51-1.102 1.129 0 .268.108.537.269.725l.027.027v.726a.24.24 0 0 0 .242.242h1.183a.24.24 0 0 0 .241-.242v-.726l.027-.027c.189-.215.269-.457.269-.725-.054-.646-.564-1.129-1.156-1.129Zm.403 1.612s-.08.054-.08.135v.618h-.699v-.618c0-.081-.054-.135-.054-.135a.672.672 0 0 1-.215-.483c0-.35.296-.646.645-.646.35 0 .645.296.645.646 0 .161-.08.349-.242.483Zm4.167-.886a.242.242 0 0 0-.242.242v1.64c0 2.392-1.935 4.354-4.301 4.354a4.291 4.291 0 0 1-4.274-3.897c0-.054-.027-.135-.08-.162-.054-.026-.108-.053-.162-.053h-.027c-.053 0-.134.027-.161.08-.054.054-.054.108-.054.188a4.912 4.912 0 0 0 1.559 3.092 4.774 4.774 0 0 0 3.226 1.263c2.634 0 4.785-2.177 4.785-4.838v-1.64c-.027-.161-.134-.269-.269-.269Zm-2.742-1.237a.228.228 0 0 0 .188 0c.108-.053.162-.215.108-.322-.403-.833-1.237-1.371-2.124-1.371-.618 0-1.209.269-1.666.726-.43.457-.699 1.048-.699 1.693a.29.29 0 0 0 .054.162c.053.053.107.08.161.08a.24.24 0 0 0 .242-.242c.027-1.048.887-1.935 1.881-1.935.699 0 1.345.43 1.694 1.102.054.054.107.107.161.107Zm5.772 3.791V12.52a.346.346 0 0 0-.693 0v3.758a.346.346 0 0 0 .693 0Zm-7.573 1.746c.807 0 1.559-.431 1.989-1.129a2.3 2.3 0 0 0 .35-1.264v-2.177a.24.24 0 0 0-.242-.242.24.24 0 0 0-.242.242v2.177c0 .35-.108.699-.296 1.022a1.848 1.848 0 0 1-1.586.887c-1.048 0-1.881-.86-1.881-1.909v-1.209a.24.24 0 0 0-.242-.242.24.24 0 0 0-.242.242v1.209c.027 1.317 1.075 2.393 2.392 2.393Zm3.522-1.883c.027-.161.027-.323.027-.511v-2.338c0-.968-.377-1.909-1.049-2.608a3.449 3.449 0 0 0-2.526-1.129c-1.183 0-2.312.618-2.984 1.667-.081.107-.054.269.08.349.054.027.108.054.189.027.053 0 .107-.054.161-.107.591-.914 1.559-1.452 2.58-1.452 1.694 0 3.092 1.479 3.092 3.253v2.338c0 .135 0 .296-.027.43a.227.227 0 0 0 .215.269c.107.027.242-.08.242-.188Zm-8.092-1.021a.24.24 0 0 0 .242-.242v-1.559c0-2.446 1.963-4.516 4.301-4.516h.027c2.124 0 3.978 1.748 4.274 3.952 0 .053.054.134.081.161.054.027.107.054.188.054a.263.263 0 0 0 .215-.269 5.037 5.037 0 0 0-1.559-3.091c-.887-.834-2.016-1.291-3.172-1.291-1.29 0-2.5.538-3.414 1.506a5.131 5.131 0 0 0-1.398 3.494v1.559c-.027.135.081.242.215.242Z" style="fill:#fff"/>
    <path d="M33.45 17.168v-6.787h1.261v5.721h3.549v1.066h-4.81ZM41.421 17.236c-.53 0-1.002-.114-1.416-.344a2.57 2.57 0 0 1-.979-.945 2.62 2.62 0 0 1-.359-1.368c0-.517.12-.974.359-1.372.239-.397.565-.709.979-.935.414-.227.886-.34 1.416-.34.536 0 1.013.113 1.43.34.417.226.744.536.98.93.236.395.353.854.353 1.377 0 .511-.117.967-.353 1.368a2.53 2.53 0 0 1-.98.945c-.417.23-.894.344-1.43.344Zm0-1.037c.297 0 .562-.065.795-.194.233-.129.415-.317.548-.563.132-.245.199-.533.199-.863 0-.336-.067-.625-.199-.867a1.376 1.376 0 0 0-.548-.558 1.594 1.594 0 0 0-.785-.194c-.298 0-.561.065-.791.194a1.421 1.421 0 0 0-.548.558 1.753 1.753 0 0 0-.203.867c0 .33.068.618.203.863.136.246.319.434.548.563.23.129.49.194.781.194ZM47.695 19.118c-.479 0-.946-.063-1.401-.19-.456-.126-.83-.308-1.12-.547l.543-.912c.226.188.512.338.858.451.346.113.696.17 1.052.17.569 0 .986-.131 1.251-.393.265-.262.397-.655.397-1.178v-.921l.097-1.174-.038-1.173V11.99h1.154v4.393c0 .937-.24 1.627-.718 2.07-.478.443-1.17.665-2.075.665Zm-.155-2.182c-.492 0-.936-.105-1.334-.315a2.388 2.388 0 0 1-.94-.878c-.23-.375-.345-.815-.345-1.319 0-.498.115-.934.345-1.309.229-.375.543-.666.94-.873.398-.206.842-.31 1.334-.31.439 0 .834.087 1.183.262.349.174.628.446.838.814.211.369.316.841.316 1.416 0 .576-.105 1.049-.316 1.421-.21.372-.489.646-.838.824a2.568 2.568 0 0 1-1.183.267Zm.184-1.028c.304 0 .575-.063.814-.189.24-.126.425-.301.558-.524.133-.223.199-.48.199-.771 0-.291-.066-.548-.199-.771a1.322 1.322 0 0 0-.558-.514 1.801 1.801 0 0 0-.814-.179c-.304 0-.577.06-.82.179a1.32 1.32 0 0 0-.562.514c-.132.223-.199.48-.199.771 0 .291.067.548.199.771.133.223.32.398.562.524.243.126.516.189.82.189ZM52.078 17.168V11.99h1.212v5.178h-1.212Zm.611-6.031a.766.766 0 0 1-.558-.213.696.696 0 0 1-.218-.514.69.69 0 0 1 .218-.519.775.775 0 0 1 .558-.209c.226 0 .412.067.557.199a.646.646 0 0 1 .218.5.742.742 0 0 1-.213.538.753.753 0 0 1-.562.218ZM57.818 11.932c.414 0 .784.081 1.111.243.326.161.583.408.771.741.187.333.281.762.281 1.285v2.967h-1.212v-2.812c0-.459-.109-.801-.325-1.028-.217-.226-.519-.339-.907-.339-.284 0-.536.058-.756.175a1.19 1.19 0 0 0-.509.518c-.12.23-.18.519-.18.868v2.618H54.88V11.99h1.154v1.397l-.203-.427c.181-.33.444-.583.79-.761a2.58 2.58 0 0 1 1.197-.267ZM61.406 10.381h1.92v6.788h-1.92zM64.694 17.168v-6.787h3.209c.75 0 1.41.139 1.978.417a3.21 3.21 0 0 1 1.334 1.173c.32.504.48 1.105.48 1.804 0 .691-.16 1.291-.48 1.798-.32.508-.765.901-1.334 1.179-.568.277-1.228.416-1.978.416h-3.209Zm1.92-1.532h1.212c.388 0 .725-.072 1.013-.218.288-.145.512-.359.674-.64.162-.281.242-.616.242-1.003 0-.395-.08-.731-.242-1.009a1.595 1.595 0 0 0-.674-.635 2.211 2.211 0 0 0-1.013-.218h-1.212v3.723Z" style="fill:#fff;fill-rule:nonzero"/>
</svg>
