<svg width="148" height="28" viewBox="0 0 148 28" fill="none" xmlns="http://www.w3.org/2000/svg">
<path d="M2.7289 4.10495V6.90795H1.77624C1.07139 6.90795 0.5 7.47934 0.5 8.18419V9.97499C0.5 10.6798 1.07139 11.2512 1.77624 11.2512H2.7289V16.6592H1.77624C1.07139 16.6592 0.5 17.2306 0.5 17.9354V19.7262C0.5 20.4311 1.07139 21.0025 1.77624 21.0025H2.7289V23.6661C2.7289 25.6571 4.34289 27.2711 6.33385 27.2711H25.895C27.886 27.2711 29.5 25.6571 29.5 23.6661V4.10495C29.5 2.11399 27.886 0.5 25.895 0.5H6.33385C4.34289 0.5 2.7289 2.11399 2.7289 4.10495Z" fill="url(#paint0_linear_1050_2482)" stroke="white"/>
<rect x="25.5176" y="17.0195" width="0.975123" height="6.26865" rx="0.487562" transform="rotate(-180 25.5176 17.0195)" fill="white"/>
<path d="M17.3879 11.1902C17.4636 11.228 17.5772 11.228 17.6529 11.1902C17.8044 11.1144 17.8801 10.8872 17.8044 10.7358C17.2364 9.56198 16.0626 8.80469 14.8131 8.80469C13.9422 8.80469 13.1091 9.18333 12.4654 9.82703C11.8596 10.4707 11.481 11.3038 11.481 12.2125C11.481 12.2882 11.5188 12.4018 11.5567 12.4397C11.6324 12.5154 11.7081 12.5533 11.7839 12.5533C11.9732 12.5533 12.1247 12.4018 12.1247 12.2125C12.1625 10.7358 13.3742 9.48625 14.7752 9.48625C15.7597 9.48625 16.6684 10.0921 17.1607 11.0387C17.2364 11.1144 17.3121 11.1902 17.3879 11.1902Z" fill="white"/>
<path d="M14.8509 18.9887C15.9869 18.9887 17.0471 18.3829 17.6529 17.3984C17.9937 16.8683 18.1451 16.2625 18.1451 15.6188V12.5517C18.1451 12.3624 17.9937 12.2109 17.8044 12.2109C17.615 12.2109 17.4636 12.3624 17.4636 12.5517V15.6188C17.4636 16.111 17.3121 16.6032 17.0471 17.0576C16.5548 17.8528 15.7218 18.3072 14.8131 18.3072C13.3363 18.3072 12.1625 17.0955 12.1625 15.6188V13.9148C12.1625 13.7255 12.0111 13.5741 11.8217 13.5741C11.6324 13.5741 11.481 13.7255 11.481 13.9148V15.6188C11.5188 17.4741 12.9955 18.9887 14.8509 18.9887Z" fill="white"/>
<path d="M10.4577 12.3246C10.4577 12.0975 10.4577 11.8703 10.4956 11.6052C10.5334 11.4159 10.382 11.2266 10.2305 11.2266H10.1926C10.1169 11.2266 10.0412 11.2644 10.0033 11.3023C9.92758 11.3402 9.88972 11.4538 9.85185 11.5295C9.81399 11.7945 9.77612 12.0596 9.77612 12.3625V15.6567C9.77612 18.4587 12.048 20.7306 14.8121 20.7306C16.516 20.7306 18.1064 19.8597 19.0151 18.4209C19.1287 18.2694 19.0908 18.0422 18.9015 17.9286C18.8258 17.8908 18.7501 17.8529 18.6365 17.8908C18.5607 17.8908 18.485 17.9665 18.4093 18.0422C17.6141 19.2917 16.251 20.049 14.7743 20.049C12.3509 20.049 10.4198 18.0801 10.4198 15.6567V12.3246H10.4577Z" fill="white"/>
<path d="M19.8113 16.3394C19.8492 16.1122 19.8492 15.885 19.8492 15.6199V12.3257C19.8492 10.9626 19.319 9.6373 18.3724 8.65282C17.4258 7.63047 16.1384 7.0625 14.8131 7.0625C13.1471 7.0625 11.5568 7.93339 10.6102 9.41011C10.4966 9.56157 10.5344 9.78876 10.7238 9.90235C10.7995 9.94022 10.8752 9.97808 10.9888 9.94022C11.0645 9.94022 11.1403 9.86449 11.216 9.78876C12.049 8.50136 13.4122 7.74406 14.851 7.74406C17.2365 7.74406 19.2055 9.82662 19.2055 12.3257V15.6199C19.2055 15.8092 19.2055 16.0364 19.1676 16.2258C19.1297 16.4151 19.2812 16.6044 19.4705 16.6044C19.622 16.6423 19.8113 16.4908 19.8113 16.3394Z" fill="white"/>
<path d="M8.41374 14.9001C8.60306 14.9001 8.75452 14.7486 8.75452 14.5593V12.3632C8.75452 8.91746 11.5186 6.00188 14.8129 6.00188H14.8507C17.8421 6.00188 20.4547 8.46308 20.8712 11.568C20.8712 11.6437 20.947 11.7573 20.9848 11.7952C21.0606 11.833 21.1363 11.8709 21.2499 11.8709C21.4392 11.833 21.5528 11.6816 21.5528 11.4923C21.3635 9.82621 20.5683 8.27376 19.3566 7.13782C18.1071 5.96401 16.5168 5.32031 14.8886 5.32031C13.0711 5.32031 11.3672 6.07761 10.0798 7.44074C8.83025 8.766 8.11082 10.5456 8.11082 12.3632V14.5593C8.07296 14.7486 8.22442 14.9001 8.41374 14.9001Z" fill="white"/>
<path d="M21.2501 12.9336C21.0608 12.9336 20.9093 13.0851 20.9093 13.2744V15.5841C20.9093 18.9541 18.1831 21.7182 14.851 21.7182C11.7461 21.7182 9.13341 19.3706 8.83049 16.2278C8.83049 16.1521 8.79263 16.0385 8.7169 16.0006C8.64117 15.9628 8.56544 15.9249 8.48971 15.9249H8.45184C8.37611 15.9249 8.26252 15.9628 8.22466 16.0385C8.14893 16.1142 8.14893 16.19 8.14893 16.3036C8.33825 17.9696 9.09554 19.5221 10.3451 20.658C11.5946 21.7939 13.1849 22.4376 14.8888 22.4376C18.5996 22.4376 21.6288 19.3706 21.6288 15.622V13.3122C21.5909 13.0851 21.4394 12.9336 21.2501 12.9336Z" fill="white"/>
<path d="M14.8128 11.9102C13.9419 11.9102 13.2604 12.6296 13.2604 13.5005C13.2604 13.8791 13.4118 14.2578 13.639 14.5228L13.6769 14.5607V15.583C13.6769 15.7724 13.8283 15.9238 14.0177 15.9238H14.8507H15.6837C15.873 15.9238 16.0245 15.7724 16.0245 15.583V14.5607L16.0624 14.5228C16.3274 14.2199 16.441 13.8791 16.441 13.5005C16.3653 12.5917 15.6459 11.9102 14.8128 11.9102ZM15.3808 14.182C15.3808 14.182 15.2672 14.2578 15.2672 14.3714C15.2672 14.485 15.2672 15.2423 15.2672 15.2423H14.775H14.2827C14.2827 15.2423 14.2827 14.5228 14.2827 14.3714C14.2827 14.2578 14.207 14.182 14.207 14.182C14.0177 13.9927 13.9041 13.7655 13.9041 13.5005C13.9041 13.0082 14.3206 12.5917 14.8128 12.5917C15.3051 12.5917 15.7216 13.0082 15.7216 13.5005C15.7216 13.7277 15.608 13.9927 15.3808 14.182Z" fill="white"/>
<path d="M47.2861 6.24609V21.8867H44.5898V6.24609H47.2861ZM53.667 13.0889V15.2266H46.5986V13.0889H53.667ZM54.5586 6.24609V8.39453H46.5986V6.24609H54.5586ZM59.5859 6.24609V21.8867H56.8896V6.24609H59.5859ZM67.4814 21.8867H64.1406L64.1621 19.749H67.4814C68.4482 19.749 69.2575 19.5378 69.9092 19.1152C70.568 18.6927 71.0622 18.0876 71.3916 17.2998C71.7282 16.512 71.8965 15.5739 71.8965 14.4854V13.6367C71.8965 12.7917 71.7998 12.0433 71.6064 11.3916C71.4202 10.7399 71.141 10.1921 70.7686 9.74805C70.4033 9.30404 69.9521 8.96745 69.415 8.73828C68.8851 8.50911 68.2728 8.39453 67.5781 8.39453H64.0762V6.24609H67.5781C68.6165 6.24609 69.5654 6.42155 70.4248 6.77246C71.2842 7.11621 72.0254 7.61393 72.6484 8.26562C73.2786 8.91732 73.762 9.69792 74.0986 10.6074C74.4352 11.5169 74.6035 12.5339 74.6035 13.6582V14.4854C74.6035 15.6097 74.4352 16.6266 74.0986 17.5361C73.762 18.4456 73.2786 19.2262 72.6484 19.8779C72.0182 20.5225 71.2663 21.0202 70.3926 21.3711C69.526 21.7148 68.5557 21.8867 67.4814 21.8867ZM65.6338 6.24609V21.8867H62.9375V6.24609H65.6338ZM89.7822 13.6367V14.4961C89.7822 15.6777 89.6283 16.7376 89.3203 17.6758C89.0124 18.6139 88.5719 19.4124 87.999 20.0713C87.4333 20.7301 86.7529 21.235 85.958 21.5859C85.1631 21.9297 84.2822 22.1016 83.3154 22.1016C82.3558 22.1016 81.4785 21.9297 80.6836 21.5859C79.8958 21.235 79.2119 20.7301 78.6318 20.0713C78.0518 19.4124 77.6006 18.6139 77.2783 17.6758C76.9632 16.7376 76.8057 15.6777 76.8057 14.4961V13.6367C76.8057 12.4551 76.9632 11.3988 77.2783 10.4678C77.5934 9.52962 78.0374 8.73112 78.6104 8.07227C79.1904 7.40625 79.8743 6.90137 80.6621 6.55762C81.457 6.20671 82.3343 6.03125 83.2939 6.03125C84.2607 6.03125 85.1416 6.20671 85.9365 6.55762C86.7314 6.90137 87.4154 7.40625 87.9883 8.07227C88.5612 8.73112 89.0016 9.52962 89.3096 10.4678C89.6247 11.3988 89.7822 12.4551 89.7822 13.6367ZM87.0859 14.4961V13.6152C87.0859 12.7415 87 11.9717 86.8281 11.3057C86.6634 10.6325 86.4163 10.0703 86.0869 9.61914C85.7646 9.16081 85.3672 8.81706 84.8945 8.58789C84.4219 8.35156 83.8883 8.2334 83.2939 8.2334C82.6995 8.2334 82.1696 8.35156 81.7041 8.58789C81.2386 8.81706 80.8411 9.16081 80.5117 9.61914C80.1895 10.0703 79.9424 10.6325 79.7705 11.3057C79.5986 11.9717 79.5127 12.7415 79.5127 13.6152V14.4961C79.5127 15.3698 79.5986 16.1432 79.7705 16.8164C79.9424 17.4896 80.193 18.0589 80.5225 18.5244C80.859 18.9827 81.2601 19.3301 81.7256 19.5664C82.1911 19.7956 82.721 19.9102 83.3154 19.9102C83.917 19.9102 84.4505 19.7956 84.916 19.5664C85.3815 19.3301 85.7754 18.9827 86.0977 18.5244C86.4199 18.0589 86.6634 17.4896 86.8281 16.8164C87 16.1432 87.0859 15.3698 87.0859 14.4961ZM103.317 19.0293L107.432 6.24609H110.407L104.8 21.8867H102.791L103.317 19.0293ZM99.5146 6.24609L103.597 19.0293L104.155 21.8867H102.136L96.5498 6.24609H99.5146ZM117.959 19.5557V14.0127C117.959 13.5973 117.884 13.2393 117.733 12.9385C117.583 12.6377 117.354 12.4049 117.046 12.2402C116.745 12.0755 116.366 11.9932 115.907 11.9932C115.485 11.9932 115.119 12.0648 114.812 12.208C114.504 12.3512 114.264 12.5446 114.092 12.7881C113.92 13.0316 113.834 13.3073 113.834 13.6152H111.256C111.256 13.1569 111.367 12.7129 111.589 12.2832C111.811 11.8535 112.133 11.4704 112.556 11.1338C112.978 10.7972 113.483 10.5322 114.07 10.3389C114.658 10.1455 115.316 10.0488 116.047 10.0488C116.921 10.0488 117.694 10.1956 118.367 10.4893C119.048 10.7829 119.581 11.2269 119.968 11.8213C120.362 12.4085 120.559 13.1462 120.559 14.0342V19.2012C120.559 19.7311 120.594 20.2074 120.666 20.6299C120.745 21.0452 120.856 21.4069 120.999 21.7148V21.8867H118.346C118.224 21.6074 118.127 21.2529 118.056 20.8232C117.991 20.3864 117.959 19.9639 117.959 19.5557ZM118.335 14.8184L118.356 16.4189H116.498C116.018 16.4189 115.596 16.4655 115.23 16.5586C114.865 16.6445 114.561 16.7734 114.317 16.9453C114.074 17.1172 113.891 17.3249 113.77 17.5684C113.648 17.8118 113.587 18.0876 113.587 18.3955C113.587 18.7035 113.659 18.9863 113.802 19.2441C113.945 19.4948 114.153 19.6917 114.425 19.835C114.704 19.9782 115.041 20.0498 115.435 20.0498C115.965 20.0498 116.426 19.9424 116.82 19.7275C117.221 19.5055 117.536 19.237 117.766 18.9219C117.995 18.5996 118.117 18.2952 118.131 18.0088L118.969 19.1582C118.883 19.4518 118.736 19.7669 118.528 20.1035C118.321 20.4401 118.049 20.7624 117.712 21.0703C117.382 21.3711 116.985 21.6182 116.52 21.8115C116.061 22.0049 115.531 22.1016 114.93 22.1016C114.171 22.1016 113.494 21.9512 112.899 21.6504C112.305 21.3424 111.84 20.9307 111.503 20.415C111.166 19.8923 110.998 19.3014 110.998 18.6426C110.998 18.0267 111.113 17.4824 111.342 17.0098C111.578 16.5299 111.922 16.1289 112.373 15.8066C112.831 15.4844 113.39 15.2409 114.049 15.0762C114.708 14.9043 115.46 14.8184 116.305 14.8184H118.335ZM130.259 19.1475V10.2637H132.858V21.8867H130.409L130.259 19.1475ZM130.624 16.7305L131.494 16.709C131.494 17.4896 131.408 18.2093 131.236 18.8682C131.064 19.5199 130.799 20.0892 130.441 20.5762C130.083 21.056 129.625 21.432 129.066 21.7041C128.508 21.9691 127.838 22.1016 127.058 22.1016C126.492 22.1016 125.973 22.0192 125.5 21.8545C125.027 21.6898 124.619 21.4355 124.275 21.0918C123.939 20.748 123.677 20.3005 123.491 19.749C123.305 19.1976 123.212 18.5387 123.212 17.7725V10.2637H125.801V17.7939C125.801 18.2165 125.851 18.571 125.951 18.8574C126.051 19.1367 126.188 19.3623 126.359 19.5342C126.531 19.7061 126.732 19.8278 126.961 19.8994C127.19 19.971 127.434 20.0068 127.691 20.0068C128.429 20.0068 129.009 19.8636 129.432 19.5771C129.861 19.2835 130.166 18.8896 130.345 18.3955C130.531 17.9014 130.624 17.3464 130.624 16.7305ZM138.283 5.38672V21.8867H135.684V5.38672H138.283ZM146.447 10.2637V12.1543H139.895V10.2637H146.447ZM141.785 7.41699H144.374V18.6748C144.374 19.0329 144.424 19.3086 144.524 19.502C144.632 19.6882 144.779 19.8135 144.965 19.8779C145.151 19.9424 145.369 19.9746 145.62 19.9746C145.799 19.9746 145.971 19.9639 146.136 19.9424C146.3 19.9209 146.433 19.8994 146.533 19.8779L146.544 21.8545C146.329 21.9189 146.078 21.9762 145.792 22.0264C145.513 22.0765 145.19 22.1016 144.825 22.1016C144.231 22.1016 143.704 21.9977 143.246 21.79C142.788 21.5752 142.43 21.2279 142.172 20.748C141.914 20.2682 141.785 19.6309 141.785 18.8359V7.41699Z" fill="white"/>
<defs>
<linearGradient id="paint0_linear_1050_2482" x1="1" y1="1" x2="28.9446" y2="26.7711" gradientUnits="userSpaceOnUse">
<stop stop-color="#2669F0"/>
<stop offset="1" stop-color="#0335C5"/>
</linearGradient>
</defs>
</svg>
