<?xml version="1.0" encoding="UTF-8" standalone="no"?>
<svg
   width="180"
   height="31"
   viewBox="0 0 180 31"
   fill="none"
   version="1.1"
   id="svg1755"
   xmlns="http://www.w3.org/2000/svg"
   >
  <defs
     id="defs1759">
    <linearGradient
       id="linearGradient3606">
      <stop
         style="stop-color:#ffffff;stop-opacity:1;"
         offset="0"
         id="stop3604" />
    </linearGradient>
  </defs>
  <path
     d="m 3.44478,4.32195 c 0,-1.95979 1.58872,-3.548512 3.54851,-3.548512 H 29.3489 c 1.9598,0 3.5486,1.588722 3.5486,3.548512 V 26.6776 c 0,1.9598 -1.5888,3.5485 -3.5486,3.5485 H 6.99329 c -1.95979,0 -3.54851,-1.5887 -3.54851,-3.5485 V 23.062 19.2411 11.9177 8.09681 Z"
     fill="#286df5"
     id="path1711" />
  <path
     d="m 28.9176,18.5235 c 0,0.3078 -0.2495,0.5572 -0.5573,0.5572 -0.3077,0 -0.5572,-0.2494 -0.5572,-0.5572 v -6.0497 c 0,-0.3078 0.2495,-0.5572 0.5572,-0.5572 0.3078,0 0.5573,0.2494 0.5573,0.5572 z"
     fill="#ffffff"
     id="path1713" />
  <path
     d="m 19.6264,12.4209 c 0.0865,0.0432 0.2163,0.0432 0.3029,0 0.1731,-0.0866 0.2596,-0.3462 0.1731,-0.5193 -0.6491,-1.3415 -1.9906,-2.20699 -3.4187,-2.20699 -0.9953,0 -1.9473,0.43279 -2.6829,1.16839 -0.6924,0.7357 -1.1252,1.6877 -1.1252,2.7263 0,0.0865 0.0433,0.2163 0.0866,0.2596 0.0865,0.0866 0.1731,0.1298 0.2596,0.1298 0.2164,0 0.3895,-0.1731 0.3895,-0.3894 0.0433,-1.6877 1.428,-3.1158 3.0292,-3.1158 1.1251,0 2.1637,0.6924 2.7262,1.7743 0.0866,0.0865 0.1731,0.1731 0.2597,0.1731 z"
     fill="#ffffff"
     id="path1715" />
  <path
     d="m 16.727,21.3332 c 1.2982,0 2.5099,-0.6924 3.2023,-1.8175 0.3895,-0.6059 0.5626,-1.2983 0.5626,-2.0339 v -3.5052 c 0,-0.2164 -0.1731,-0.3895 -0.3895,-0.3895 -0.2164,0 -0.3895,0.1731 -0.3895,0.3895 v 3.5052 c 0,0.5625 -0.1731,1.1251 -0.476,1.6444 -0.5626,0.9087 -1.5146,1.428 -2.5532,1.428 -1.6876,0 -3.0291,-1.3847 -3.0291,-3.0724 v -1.9473 c 0,-0.2164 -0.1731,-0.3895 -0.3895,-0.3895 -0.2164,0 -0.3895,0.1731 -0.3895,0.3895 v 1.9473 c 0.0433,2.1204 1.731,3.8514 3.8514,3.8514 z"
     fill="#ffffff"
     id="path1717" />
  <path
     d="m 11.7062,13.7155 c 0,-0.2596 0,-0.5192 0.0433,-0.8222 0.0433,-0.2163 -0.1298,-0.4327 -0.3029,-0.4327 h -0.0433 c -0.0866,0 -0.1731,0.0433 -0.2164,0.0865 -0.0865,0.0433 -0.1298,0.1731 -0.1731,0.2597 -0.0432,0.3029 -0.0865,0.6058 -0.0865,0.952 v 3.7648 c 0,3.2023 2.5964,5.7988 5.7554,5.7988 1.9473,0 3.7649,-0.9953 4.8034,-2.6398 0.1298,-0.173 0.0866,-0.4327 -0.1298,-0.5625 -0.0865,-0.0433 -0.1731,-0.0866 -0.3029,-0.0433 -0.0866,0 -0.1731,0.0866 -0.2597,0.1731 -0.9087,1.4281 -2.4666,2.2935 -4.1543,2.2935 -2.7695,0 -4.9765,-2.2502 -4.9765,-5.0198 v -3.8081 z"
     fill="#ffffff"
     id="path1719" />
  <path
     d="m 22.3961,18.3025 c 0.0433,-0.2596 0.0433,-0.5192 0.0433,-0.8222 v -3.7648 c 0,-1.5579 -0.6058,-3.0724 -1.6877,-4.19757 -1.0818,-1.1684 -2.5531,-1.81751 -4.0677,-1.81751 -1.9041,0 -3.7216,0.9953 -4.8034,2.68298 -0.1299,0.1731 -0.0866,0.4327 0.1298,0.5626 0.0865,0.0432 0.1731,0.0865 0.3029,0.0432 0.0865,0 0.1731,-0.0865 0.2596,-0.1731 0.9521,-1.47127 2.5099,-2.33675 4.1543,-2.33675 2.7263,0 4.9765,2.38005 4.9765,5.23615 v 3.7648 c 0,0.2164 0,0.4761 -0.0432,0.6924 -0.0433,0.2164 0.1298,0.4328 0.3462,0.4328 0.1731,0.0432 0.3894,-0.1299 0.3894,-0.303 z"
     fill="#ffffff"
     id="path1721" />
  <path
     d="m 9.37031,16.6593 c 0.21637,0 0.38947,-0.1731 0.38947,-0.3895 v -2.5099 c 0,-3.93789 3.15902,-7.26999 6.92382,-7.26999 h 0.0433 c 3.4186,0 6.4045,2.81281 6.8805,6.36129 0,0.0865 0.0866,0.2164 0.1299,0.2596 0.0865,0.0433 0.1731,0.0866 0.3029,0.0866 0.2164,-0.0433 0.3462,-0.2164 0.3462,-0.4328 C 24.17,10.8606 23.2613,9.08635 21.8765,7.78813 20.4484,6.44664 18.6309,5.71098 16.7702,5.71098 c -2.0772,0 -4.0245,0.86548 -5.4958,2.42334 C 9.84632,9.64891 9.02412,11.6828 9.02412,13.7599 v 2.5099 c -0.04328,0.2164 0.12982,0.3895 0.34619,0.3895 z"
     fill="#ffffff"
     id="path1723" />
  <path
     d="m 24.0404,14.4116 c -0.2164,0 -0.3895,0.1731 -0.3895,0.3895 v 2.6397 c 0,3.8514 -3.1157,7.0104 -6.9238,7.0104 -3.5485,0 -6.5344,-2.683 -6.88055,-6.2747 0,-0.0866 -0.04328,-0.2164 -0.12983,-0.2597 C 9.63017,17.8736 9.54363,17.8303 9.45708,17.8303 H 9.41381 c -0.08655,0 -0.21637,0.0433 -0.25965,0.1298 -0.08655,0.0866 -0.08655,0.1731 -0.08655,0.3029 0.21637,1.9041 1.08189,3.6783 2.50989,4.9765 1.428,1.2983 3.2456,2.0339 5.1929,2.0339 4.2408,0 7.7027,-3.5052 7.7027,-7.7893 v -2.6397 c -0.0432,-0.2597 -0.2163,-0.4328 -0.4327,-0.4328 z"
     fill="#ffffff"
     id="path1725" />
  <path
     d="m 16.6836,13.242 c -0.9953,0 -1.7742,0.8222 -1.7742,1.8175 0,0.4327 0.1731,0.8655 0.4327,1.1684 l 0.0433,0.0433 v 1.1684 c 0,0.2163 0.1731,0.3894 0.3895,0.3894 h 1.904 c 0.2164,0 0.3895,-0.1731 0.3895,-0.3894 v -1.1684 l 0.0432,-0.0433 c 0.303,-0.3462 0.4328,-0.7357 0.4328,-1.1684 -0.0866,-1.0386 -0.9088,-1.8175 -1.8608,-1.8175 z m 0.6491,2.5964 c 0,0 -0.1298,0.0866 -0.1298,0.2164 0,0.1298 0,0.9953 0,0.9953 h -1.1251 c 0,0 0,-0.8222 0,-0.9953 0,-0.1298 -0.0866,-0.2164 -0.0866,-0.2164 -0.2163,-0.2164 -0.3462,-0.476 -0.3462,-0.7789 0,-0.5626 0.476,-1.0386 1.0386,-1.0386 0.5626,0 1.0386,0.476 1.0386,1.0386 0,0.2596 -0.1298,0.5625 -0.3895,0.7789 z"
     fill="#ffffff"
     id="path1727" />
  <path
     fill-rule="evenodd"
     clip-rule="evenodd"
     d="m 3.44478,11.9177 h 2.7745 c 0.48994,0 0.88713,-0.3972 0.88713,-0.8871 V 8.98394 c 0,-0.48995 -0.39719,-0.88713 -0.88713,-0.88713 h -2.7745 z"
     fill="#286df5"
     id="path1747" />
  <path
     d="m 0.897461,8.98394 v 2.04666 c 0,0.4899 0.397179,0.8871 0.887129,0.8871 H 3.44478 V 8.09681 H 1.78459 c -0.48995,0 -0.887129,0.39718 -0.887129,0.88713 z"
     fill="#286df5"
     id="path1749" />
  <path
     fill-rule="evenodd"
     clip-rule="evenodd"
     d="m 3.44478,23.062 h 2.7745 c 0.48994,0 0.88713,-0.3972 0.88713,-0.8872 v -2.0466 c 0,-0.49 -0.39719,-0.8871 -0.88713,-0.8871 h -2.7745 z"
     fill="#286df5"
     id="path1751" />
  <path
     d="m 0.897461,20.1282 v 2.0466 c 0,0.49 0.397179,0.8872 0.887129,0.8872 H 3.44478 V 19.2411 H 1.78459 c -0.48995,0 -0.887129,0.3971 -0.887129,0.8871 z"
     fill="#286df5"
     id="path1753" />
  <g
     id="g3895"
     transform="matrix(1.1111939,0,0,1.262866,-4.2532278,-4.0793589)">
    <path
       d="m 94.191461,21.57856 h -6.43604 V 19.255334 H 89.55633 V 10.798441 H 87.755421 V 8.4752146 h 6.43604 V 10.798441 H 92.39055 v 8.456893 h 1.800911 z"
       style="font-weight:bold;-inkscape-font-specification:'sans-serif Bold';white-space:pre;fill:#2f80ed;stroke:#2f80ed;stroke-width:0.426068"
       id="path1136" />
    <path
       d="m 106.8864,15.040088 q 0,1.830421 -0.70117,3.282437 -0.70117,1.443215 -1.77139,2.217624 -0.8045,0.580807 -1.764,0.80961 -0.95951,0.228801 -2.27329,0.228801 H 96.50164 V 8.4752146 h 3.98563 q 1.3433,0 2.31756,0.2728035 0.97426,0.2640026 1.63854,0.756808 1.13664,0.8272089 1.78614,2.2352249 0.65689,1.399216 0.65689,3.300037 z m -2.93017,-0.0264 q 0,-1.293614 -0.39856,-2.208824 -0.39118,-0.924009 -1.24735,-1.443214 -0.43547,-0.255203 -0.89307,-0.343205 -0.45023,-0.0968 -1.36545,-0.0968 h -0.71594 v 8.201692 h 0.71594 q 1.01117,0 1.48354,-0.105597 0.47237,-0.114399 0.9226,-0.404804 0.77498,-0.528005 1.13664,-1.408016 0.36165,-0.88881 0.36165,-2.191224 z"
       style="font-weight:bold;-inkscape-font-specification:'sans-serif Bold';white-space:pre;fill:#2f80ed;stroke:#2f80ed;stroke-width:0.426068"
       id="path1138" />
    <path
       d="M 128.42386,8.3362568 125.5675,21.439602 h -1.64592 l -2.31018,-10.87692 -2.25852,10.87692 h -1.609 L 114.83584,8.3362568 h 1.49831 l 2.31018,10.8945212 2.27328,-10.8945212 h 1.48353 l 2.29543,11.0001232 2.29542,-11.0001232 z"
       id="path1140"
       style="white-space:pre;fill:#2f80ed;stroke:#2f80ed;stroke-width:0.426068" />
    <path
       d="m 136.13678,21.439602 h -1.3802 v -1.047211 q -0.18453,0.149603 -0.5019,0.422405 -0.30999,0.264003 -0.60522,0.422405 -0.3469,0.202401 -0.79712,0.334403 -0.45023,0.140802 -1.05545,0.140802 -1.11451,0 -1.88948,-0.880009 -0.77499,-0.880011 -0.77499,-2.244026 0,-1.117613 0.39856,-1.80402 0.40594,-0.695209 1.1514,-1.091212 0.75285,-0.396004 1.8083,-0.536806 1.05545,-0.140801 2.2659,-0.211202 v -0.255203 q 0,-0.563206 -0.16976,-0.932811 -0.16239,-0.369604 -0.47237,-0.580807 -0.29523,-0.202401 -0.70856,-0.272802 -0.41332,-0.07039 -0.86355,-0.07039 -0.54618,0 -1.21782,0.176001 -0.67166,0.167202 -1.3876,0.492806 h -0.0738 v -1.680818 q 0.40595,-0.132001 1.17355,-0.290404 0.7676,-0.158403 1.51305,-0.158403 0.87094,0 1.51307,0.176003 0.64951,0.167202 1.12188,0.580807 0.46499,0.404804 0.70855,1.047211 0.24357,0.642408 0.24357,1.592818 z m -1.3802,-2.420027 v -2.736829 q -0.63475,0.04401 -1.49831,0.132 -0.85616,0.088 -1.35806,0.255203 -0.59784,0.202403 -0.96688,0.633607 -0.36904,0.422405 -0.36904,1.170414 0,0.844809 0.42809,1.276013 0.42808,0.422405 1.30639,0.422405 0.7307,0 1.33592,-0.334403 0.60523,-0.343203 1.12189,-0.81841 z"
       id="path1142"
       style="white-space:pre;fill:#2f80ed;stroke:#2f80ed;stroke-width:0.426068" />
    <path
       d="m 140.21097,21.439602 h -1.38759 V 7.7466502 h 1.38759 z"
       id="path1144"
       style="white-space:pre;fill:#2f80ed;stroke:#2f80ed;stroke-width:0.426068" />
    <path
       d="m 144.35897,21.439602 h -1.38759 V 7.7466502 h 1.38759 z"
       id="path1146"
       style="white-space:pre;fill:#2f80ed;stroke:#2f80ed;stroke-width:0.426068" />
    <path
       d="m 154.00565,16.696349 h -6.07438 q 0,0.906411 0.2288,1.584019 0.2288,0.668807 0.62737,1.100012 0.3838,0.422405 0.90783,0.633607 0.53142,0.211203 1.16616,0.211203 0.84141,0 1.69021,-0.396005 0.85617,-0.404804 1.21783,-0.792009 h 0.0738 v 1.80402 q -0.70118,0.352004 -1.43188,0.589607 -0.7307,0.237602 -1.5352,0.237602 -2.05186,0 -3.20326,-1.320014 -1.1514,-1.328816 -1.1514,-3.766443 0,-2.411226 1.09974,-3.828042 1.10711,-1.416816 2.90802,-1.416816 1.66806,0 2.56851,1.161612 0.90785,1.161614 0.90785,3.300038 z m -1.35068,-1.267214 q -0.008,-1.302413 -0.55356,-2.015222 -0.5388,-0.712808 -1.64591,-0.712808 -1.11451,0 -1.77877,0.783208 -0.6569,0.78321 -0.74546,1.944822 z"
       id="path1148"
       style="white-space:pre;fill:#2f80ed;stroke:#2f80ed;stroke-width:0.426068" />
    <path
       d="m 160.39003,21.351602 q -0.39119,0.1232 -0.85617,0.202402 -0.45761,0.07919 -0.81927,0.07919 -1.26212,0 -1.91901,-0.80961 -0.65688,-0.809608 -0.65688,-2.596028 v -5.227258 h -0.93737 v -1.390416 h 0.93737 V 8.785054 h 1.38758 v 2.824832 h 2.86375 v 1.390416 h -2.86375 v 4.47925 q 0,0.774408 0.0295,1.214412 0.0295,0.431206 0.20666,0.80961 0.16237,0.352004 0.44284,0.519205 0.28786,0.158403 0.87094,0.158403 0.33951,0 0.70855,-0.114399 0.36904,-0.123199 0.53141,-0.202403 h 0.0738 z"
       id="path1150"
       style="white-space:pre;fill:#2f80ed;stroke:#2f80ed;stroke-width:0.426068" />
    <g
       aria-label="Login"
       id="text3612"
       style="font-size:18.6667px;-inkscape-font-specification:'sans-serif, Normal';fill:#2f80ed;stroke:#2f80ef;stroke-width:0.449">
      <path
         d="M 47.178103,21.538462 H 38.59215 V 7.9668226 h 1.804691 V 19.934292 h 6.781262 z"
         id="path3870" />
      <path
         d="m 57.523174,16.452515 q 0,2.488286 -1.276044,3.928393 -1.276044,1.440106 -3.417975,1.440106 -2.16016,0 -3.436204,-1.440106 -1.266929,-1.440107 -1.266929,-3.928393 0,-2.488286 1.266929,-3.928393 1.276044,-1.449221 3.436204,-1.449221 2.141931,0 3.417975,1.449221 1.276044,1.440107 1.276044,3.928393 z m -1.768232,0 q 0,-1.977868 -0.774741,-2.934901 -0.774741,-0.966148 -2.151046,-0.966148 -1.394534,0 -2.169275,0.966148 -0.765626,0.957033 -0.765626,2.934901 0,1.914066 0.774741,2.907557 0.774741,0.984377 2.16016,0.984377 1.36719,0 2.141931,-0.975262 0.783856,-0.984377 0.783856,-2.916672 z"
         id="path3872" />
      <path
         d="m 68.433351,20.380908 q 0,2.588546 -1.175783,3.800788 -1.175784,1.212241 -3.618496,1.212241 -0.8112,0 -1.585941,-0.118489 -0.765626,-0.109376 -1.513023,-0.319011 v -1.750004 h 0.09115 q 0.419271,0.164063 1.330731,0.401043 0.91146,0.246094 1.82292,0.246094 0.875002,0 1.449222,-0.209636 0.574219,-0.209636 0.89323,-0.583334 0.319011,-0.35547 0.45573,-0.856773 0.136719,-0.501303 0.136719,-1.121095 v -0.929689 q -0.774741,0.619792 -1.485679,0.929689 -0.701825,0.300781 -1.795577,0.300781 -1.82292,0 -2.898442,-1.312502 -1.066409,-1.321617 -1.066409,-3.718757 0,-1.312502 0.364584,-2.26042 0.373699,-0.957033 1.011721,-1.649743 0.592449,-0.647136 1.440107,-1.002606 0.847658,-0.364584 1.686201,-0.364584 0.884116,0 1.476565,0.182292 0.601563,0.173178 1.266929,0.537762 l 0.109375,-0.437501 h 1.60417 z M 66.719806,18.74028 v -5.550792 q -0.683595,-0.309896 -1.276044,-0.437501 -0.583334,-0.136719 -1.166668,-0.136719 -1.412763,0 -2.223963,0.947919 -0.811199,0.947918 -0.811199,2.752609 0,1.713545 0.601563,2.597661 0.601564,0.884116 1.996098,0.884116 0.747397,0 1.494794,-0.282552 0.756512,-0.291668 1.385419,-0.774741 z"
         id="path3874" />
      <path
         d="m 73.646899,9.6530236 h -1.932295 v -1.777347 h 1.932295 z M 73.537524,21.538462 H 71.823979 V 11.357454 h 1.713545 z"
         id="path3876" />
      <path
         d="m 85.441192,21.538462 h -1.713545 v -5.796886 q 0,-0.701824 -0.08203,-1.312502 -0.08203,-0.619793 -0.300782,-0.966148 -0.227865,-0.382813 -0.656251,-0.565105 -0.428386,-0.191407 -1.111981,-0.191407 -0.701825,0 -1.467451,0.346355 -0.765626,0.346355 -1.46745,0.884116 v 7.601577 H 76.928156 V 11.357454 h 1.713545 v 1.13021 q 0.802084,-0.665366 1.658857,-1.039064 0.856772,-0.373699 1.759117,-0.373699 1.649743,0 2.51563,0.993492 0.865887,0.993491 0.865887,2.861984 z"
         id="path3878" />
    </g>
  </g>
</svg>
