<svg width="55" height="56" viewBox="0 0 55 56" fill="none" xmlns="http://www.w3.org/2000/svg">
<mask id="path-1-outside-1_861_11197" maskUnits="userSpaceOnUse" x="0" y="0.769531" width="55" height="55" fill="black">
<rect fill="white" y="0.769531" width="55" height="55"/>
<path d="M27.5 5.76953C33.4674 5.76953 39.1903 8.14006 43.4099 12.3596C47.6295 16.5792 50 22.3022 50 28.2695C50 34.2369 47.6295 39.9599 43.4099 44.1794C39.1903 48.399 33.4674 50.7695 27.5 50.7695C21.5326 50.7695 15.8097 48.399 11.5901 44.1794C7.37053 39.9599 5 34.2369 5 28.2695C5 22.3022 7.37053 16.5792 11.5901 12.3596C15.8097 8.14006 21.5326 5.76953 27.5 5.76953ZM24.6971 32.7085L19.6989 27.707C19.5197 27.5278 19.307 27.3857 19.0729 27.2887C18.8388 27.1918 18.5879 27.1419 18.3345 27.1419C18.0811 27.1419 17.8301 27.1918 17.596 27.2887C17.3619 27.3857 17.1492 27.5278 16.97 27.707C16.6081 28.0689 16.4048 28.5597 16.4048 29.0715C16.4048 29.5833 16.6081 30.0741 16.97 30.436L23.3343 36.8002C23.513 36.9803 23.7255 37.1233 23.9597 37.2208C24.1939 37.3183 24.4451 37.3686 24.6987 37.3686C24.9524 37.3686 25.2036 37.3183 25.4378 37.2208C25.672 37.1233 25.8845 36.9803 26.0632 36.8002L39.2418 23.6185C39.4234 23.44 39.5678 23.2274 39.6668 22.9928C39.7658 22.7583 39.8174 22.5065 39.8186 22.2519C39.8197 21.9973 39.7705 21.745 39.6737 21.5096C39.5769 21.2741 39.4344 21.0601 39.2545 20.88C39.0746 20.6999 38.8608 20.5572 38.6255 20.4601C38.3901 20.363 38.1379 20.3135 37.8833 20.3144C37.6287 20.3152 37.3769 20.3665 37.1422 20.4652C36.9075 20.564 36.6947 20.7082 36.5161 20.8895L24.6971 32.7085Z"/>
<path d="M24.6971 32.7085L19.6989 27.707C19.5197 27.5278 19.307 27.3857 19.0729 27.2887C18.8388 27.1918 18.5879 27.1419 18.3345 27.1419C18.0811 27.1419 17.8301 27.1918 17.596 27.2887C17.3619 27.3857 17.1492 27.5278 16.97 27.707C16.6081 28.0689 16.4048 28.5597 16.4048 29.0715C16.4048 29.5833 16.6081 30.0741 16.97 30.436L23.3343 36.8002C23.513 36.9803 23.7255 37.1233 23.9597 37.2208C24.1939 37.3183 24.4451 37.3686 24.6987 37.3686C24.9524 37.3686 25.2036 37.3183 25.4378 37.2208C25.672 37.1233 25.8845 36.9803 26.0632 36.8002L39.2418 23.6185C39.4234 23.44 39.5678 23.2274 39.6668 22.9928C39.7658 22.7583 39.8174 22.5065 39.8186 22.2519C39.8197 21.9973 39.7705 21.745 39.6737 21.5096C39.5769 21.2741 39.4344 21.0601 39.2545 20.88C39.0746 20.6999 38.8608 20.5572 38.6255 20.4601C38.3901 20.363 38.1379 20.3135 37.8833 20.3144C37.6287 20.3152 37.3769 20.3665 37.1422 20.4652C36.9075 20.564 36.6947 20.7082 36.5161 20.8895L24.6971 32.7085Z"/>
<path d="M49.8234 28.2695C49.8234 40.5984 39.8289 50.5929 27.5 50.5929C15.1711 50.5929 5.17661 40.5984 5.17661 28.2695C5.17661 15.9407 15.1711 5.94614 27.5 5.94614C39.8289 5.94614 49.8234 15.9407 49.8234 28.2695Z"/>
</mask>
<path d="M24.6971 32.7085L22.9288 34.4757L24.6966 36.2446L26.4649 34.4762L24.6971 32.7085ZM19.6989 27.707L21.4673 25.9398L21.4667 25.9393L19.6989 27.707ZM18.3345 27.1419V29.6419V27.1419ZM16.97 27.707L18.7378 29.4748L16.97 27.707ZM16.97 30.436L18.7378 28.6682L16.97 30.436ZM23.3343 36.8002L25.109 35.0394L25.1021 35.0325L23.3343 36.8002ZM26.0632 36.8002L24.2952 35.0327L24.2885 35.0394L26.0632 36.8002ZM39.2418 23.6185L37.4895 21.8354L37.4816 21.8431L37.4738 21.8509L39.2418 23.6185ZM37.1422 20.4652L36.1728 18.1608L37.1422 20.4652ZM36.5161 20.8895L38.2838 22.6573L38.2905 22.6506L38.2971 22.6439L36.5161 20.8895ZM26.4655 30.9413L21.4673 25.9398L17.9306 29.4742L22.9288 34.4757L26.4655 30.9413ZM21.4667 25.9393C21.0554 25.5279 20.5671 25.2017 20.0296 24.979L18.1162 29.5984C18.047 29.5698 17.9841 29.5278 17.9312 29.4748L21.4667 25.9393ZM20.0296 24.979C19.4922 24.7564 18.9162 24.6419 18.3345 24.6419V29.6419C18.2596 29.6419 18.1854 29.6271 18.1162 29.5984L20.0296 24.979ZM18.3345 24.6419C17.7527 24.6419 17.1767 24.7564 16.6393 24.979L18.5527 29.5984C18.4835 29.6271 18.4094 29.6419 18.3345 29.6419V24.6419ZM16.6393 24.979C16.1019 25.2017 15.6136 25.5279 15.2022 25.9393L18.7378 29.4748C18.6848 29.5278 18.6219 29.5698 18.5527 29.5984L16.6393 24.979ZM15.2022 25.9393C14.3715 26.77 13.9048 27.8967 13.9048 29.0715H18.9048C18.9048 29.2228 18.8447 29.3678 18.7378 29.4748L15.2022 25.9393ZM13.9048 29.0715C13.9048 30.2463 14.3715 31.373 15.2022 32.2037L18.7378 28.6682C18.8447 28.7752 18.9048 28.9202 18.9048 29.0715H13.9048ZM15.2022 32.2037L21.5665 38.568L25.1021 35.0325L18.7378 28.6682L15.2022 32.2037ZM21.5596 38.5611C21.9707 38.9754 22.4597 39.3042 22.9985 39.5286L24.9209 34.913C24.9913 34.9423 25.0552 34.9853 25.109 35.0394L21.5596 38.5611ZM22.9985 39.5286C23.5373 39.753 24.1151 39.8686 24.6987 39.8686V34.8686C24.775 34.8686 24.8505 34.8836 24.9209 34.913L22.9985 39.5286ZM24.6987 39.8686C25.2824 39.8686 25.8602 39.753 26.399 39.5286L24.4766 34.913C24.547 34.8836 24.6225 34.8686 24.6987 34.8686V39.8686ZM26.399 39.5286C26.9378 39.3042 27.4268 38.9754 27.8379 38.5611L24.2885 35.0394C24.3423 34.9853 24.4062 34.9423 24.4766 34.913L26.399 39.5286ZM27.8312 38.5678L41.0098 25.386L37.4738 21.8509L24.2952 35.0327L27.8312 38.5678ZM40.9941 25.4016C41.411 24.9918 41.7427 24.5036 41.9701 23.965L37.3636 22.0207C37.3929 21.9512 37.4357 21.8882 37.4895 21.8354L40.9941 25.4016ZM41.9701 23.965C42.1974 23.4264 42.3158 22.8481 42.3185 22.2635L37.3186 22.2403C37.3189 22.1648 37.3342 22.0902 37.3636 22.0207L41.9701 23.965ZM42.3185 22.2635C42.3213 21.6789 42.2082 21.0996 41.9859 20.5589L37.3615 22.4602C37.3328 22.3905 37.3182 22.3157 37.3186 22.2403L42.3185 22.2635ZM41.9859 20.5589C41.7636 20.0182 41.4365 19.5269 41.0233 19.1133L37.4857 22.6467C37.4324 22.5934 37.3902 22.53 37.3615 22.4602L41.9859 20.5589ZM41.0233 19.1133C40.6102 18.6997 40.1193 18.372 39.5789 18.149L37.6721 22.7712C37.6024 22.7424 37.539 22.7001 37.4857 22.6467L41.0233 19.1133ZM39.5789 18.149C39.0384 17.9261 38.4592 17.8124 37.8746 17.8144L37.892 22.8144C37.8166 22.8146 37.7418 22.7999 37.6721 22.7712L39.5789 18.149ZM37.8746 17.8144C37.29 17.8164 36.7116 17.9342 36.1728 18.1608L38.1116 22.7696C38.0421 22.7989 37.9674 22.8141 37.892 22.8144L37.8746 17.8144ZM36.1728 18.1608C35.6339 18.3875 35.1453 18.7187 34.735 19.1351L38.2971 22.6439C38.2442 22.6977 38.1811 22.7404 38.1116 22.7696L36.1728 18.1608ZM34.7483 19.1218L22.9294 30.9407L26.4649 34.4762L38.2838 22.6573L34.7483 19.1218ZM27.5 5.76953V0.769531V5.76953ZM5 28.2695H0H5ZM27.5 10.7695C32.1413 10.7695 36.5925 12.6133 39.8744 15.8952L46.9454 8.82409C41.7882 3.66684 34.7935 0.769531 27.5 0.769531V10.7695ZM39.8744 15.8952C43.1563 19.177 45 23.6282 45 28.2695H55C55 20.9761 52.1027 13.9813 46.9454 8.82409L39.8744 15.8952ZM45 28.2695C45 32.9108 43.1563 37.362 39.8744 40.6439L46.9454 47.715C52.1027 42.5577 55 35.563 55 28.2695H45ZM39.8744 40.6439C36.5925 43.9258 32.1413 45.7695 27.5 45.7695V55.7695C34.7935 55.7695 41.7882 52.8722 46.9454 47.715L39.8744 40.6439ZM27.5 45.7695C22.8587 45.7695 18.4075 43.9258 15.1256 40.6439L8.05456 47.715C13.2118 52.8722 20.2065 55.7695 27.5 55.7695V45.7695ZM15.1256 40.6439C11.8437 37.362 10 32.9108 10 28.2695H0C0 35.563 2.89731 42.5577 8.05456 47.715L15.1256 40.6439ZM10 28.2695C10 23.6282 11.8437 19.177 15.1256 15.8952L8.05456 8.82409C2.89731 13.9813 0 20.9761 0 28.2695H10ZM15.1256 15.8952C18.4075 12.6133 22.8587 10.7695 27.5 10.7695V0.769531C20.2065 0.769531 13.2118 3.66684 8.05456 8.82409L15.1256 15.8952ZM44.8234 28.2695C44.8234 37.837 37.0674 45.5929 27.5 45.5929V55.5929C42.5903 55.5929 54.8234 43.3598 54.8234 28.2695H44.8234ZM27.5 45.5929C17.9326 45.5929 10.1766 37.837 10.1766 28.2695H0.176609C0.176609 43.3598 12.4097 55.5929 27.5 55.5929V45.5929ZM10.1766 28.2695C10.1766 18.7021 17.9326 10.9461 27.5 10.9461V0.94614C12.4097 0.94614 0.176609 13.1792 0.176609 28.2695H10.1766ZM27.5 10.9461C37.0674 10.9461 44.8234 18.7021 44.8234 28.2695H54.8234C54.8234 13.1792 42.5903 0.94614 27.5 0.94614V10.9461Z" fill="#0335C5" mask="url(#path-1-outside-1_861_11197)"/>
</svg>
