<svg width="20" height="20" viewBox="0 0 20 20" fill="none" xmlns="http://www.w3.org/2000/svg">
<path d="M9.27273 4.18182C9.27273 4.98513 7.80749 5.63636 6 5.63636C4.19252 5.63636 2.72727 4.98513 2.72727 4.18182C2.72727 3.37849 4.19252 2.72727 6 2.72727C7.80749 2.72727 9.27273 3.37849 9.27273 4.18182Z" fill="#9FD4FF" fill-opacity="0.29"/>
<path fill-rule="evenodd" clip-rule="evenodd" d="M3.46006 4.18182C3.46785 4.16834 3.48296 4.14679 3.51129 4.11701C3.59097 4.03329 3.74063 3.92481 3.98121 3.81789C4.46052 3.60486 5.17366 3.45455 6 3.45455C6.82635 3.45455 7.53949 3.60486 8.0188 3.81789C8.25937 3.92481 8.40903 4.03329 8.48871 4.11701C8.51704 4.14679 8.53215 4.16834 8.53994 4.18181C8.53215 4.19529 8.51704 4.21684 8.48871 4.24662C8.40903 4.33034 8.25937 4.43882 8.0188 4.54574C7.53948 4.75877 6.82634 4.90909 6 4.90909C5.17366 4.90909 4.46052 4.75877 3.98121 4.54574C3.74063 4.43882 3.59097 4.33034 3.51129 4.24661C3.48296 4.21684 3.46785 4.19529 3.46006 4.18182ZM3.39046 2.48871C4.09564 2.1753 5.01886 2 6 2C6.98114 2 7.90437 2.1753 8.60955 2.48871C8.96122 2.64501 9.29083 2.84996 9.54238 3.11427C9.79749 3.38234 10 3.74435 10 4.18182C10 4.61929 9.79748 4.98129 9.54238 5.24936C9.29083 5.51367 8.96122 5.71862 8.60955 5.87492C7.90437 6.18834 6.98115 6.36364 6 6.36364C5.01886 6.36364 4.09564 6.18834 3.39046 5.87492C3.03879 5.71862 2.70917 5.51368 2.45763 5.24936C2.20252 4.9813 2 4.61929 2 4.18182C2 3.74435 2.20252 3.38234 2.45763 3.11427C2.70917 2.84995 3.03879 2.64501 3.39046 2.48871Z" fill="#2870FA"/>
<path fill-rule="evenodd" clip-rule="evenodd" d="M12.1818 3.45455C12.1818 3.05288 12.5074 2.72727 12.9091 2.72727H15.0909C16.2959 2.72727 17.2727 3.7041 17.2727 4.90909V7.09091C17.2727 7.49257 16.9471 7.81818 16.5455 7.81818C16.1438 7.81818 15.8182 7.49257 15.8182 7.09091V4.90909C15.8182 4.50743 15.4926 4.18182 15.0909 4.18182H12.9091C12.5074 4.18182 12.1818 3.85621 12.1818 3.45455Z" fill="#2870FA"/>
<path fill-rule="evenodd" clip-rule="evenodd" d="M3.45455 12.1818C3.85621 12.1818 4.18182 12.5074 4.18182 12.9091V15.0909C4.18182 15.4926 4.50743 15.8182 4.90909 15.8182H7.09091C7.49257 15.8182 7.81818 16.1438 7.81818 16.5455C7.81818 16.9471 7.49257 17.2727 7.09091 17.2727H4.90909C3.7041 17.2727 2.72727 16.2959 2.72727 15.0909V12.9091C2.72727 12.5074 3.05288 12.1818 3.45455 12.1818Z" fill="#2870FA"/>
<path d="M14 13.6364C15.0042 13.6364 15.8182 12.8223 15.8182 11.8182C15.8182 10.814 15.0042 10 14 10C12.9958 10 12.1818 10.814 12.1818 11.8182C12.1818 12.8223 12.9958 13.6364 14 13.6364Z" fill="#9FD4FF" fill-opacity="0.29"/>
<path fill-rule="evenodd" clip-rule="evenodd" d="M14 10.7273C13.3975 10.7273 12.9091 11.2157 12.9091 11.8182C12.9091 12.4207 13.3975 12.9091 14 12.9091C14.6025 12.9091 15.0909 12.4207 15.0909 11.8182C15.0909 11.2157 14.6025 10.7273 14 10.7273ZM11.4545 11.8182C11.4545 10.4124 12.5942 9.27273 14 9.27273C15.4058 9.27273 16.5455 10.4124 16.5455 11.8182C16.5455 13.224 15.4058 14.3636 14 14.3636C12.5942 14.3636 11.4545 13.224 11.4545 11.8182Z" fill="#2870FA"/>
<path d="M17.2727 17.2727H10.7273C10.7273 15.4652 12.1925 14 14 14C15.8075 14 17.2727 15.4652 17.2727 17.2727Z" fill="#9FD4FF" fill-opacity="0.29"/>
<path fill-rule="evenodd" clip-rule="evenodd" d="M11.56 16.5455H16.44C16.1271 15.494 15.1531 14.7273 14 14.7273C12.8469 14.7273 11.8729 15.494 11.56 16.5455ZM10 17.2727C10 15.0636 11.7908 13.2727 14 13.2727C16.2092 13.2727 18 15.0636 18 17.2727C18 17.6744 17.6744 18 17.2727 18H10.7273C10.3256 18 10 17.6744 10 17.2727Z" fill="#2870FA"/>
<path fill-rule="evenodd" clip-rule="evenodd" d="M3.45455 4.18182C3.45455 3.78016 3.12893 3.45455 2.72727 3.45455C2.32561 3.45455 2 3.78016 2 4.18182V6.36364V8.54545C2 8.98293 2.20252 9.34493 2.45763 9.613C2.70917 9.87731 3.03879 10.0823 3.39046 10.2386C4.09564 10.552 5.01886 10.7273 6 10.7273C6.98115 10.7273 7.90437 10.552 8.60955 10.2386C8.96122 10.0823 9.29083 9.87731 9.54238 9.61299C9.79748 9.34493 10 8.98292 10 8.54545V6.36364V4.18182C10 3.78016 9.67439 3.45455 9.27273 3.45455C8.87107 3.45455 8.54545 3.78016 8.54545 4.18182L8.54553 6.35282C8.54077 6.36361 8.52653 6.3887 8.48871 6.42843C8.40903 6.51216 8.25937 6.62064 8.0188 6.72756C7.53948 6.94059 6.82634 7.09091 6 7.09091C5.17366 7.09091 4.46052 6.94059 3.98121 6.72756C3.74063 6.62064 3.59097 6.51216 3.51129 6.42843C3.47348 6.3887 3.45923 6.36361 3.45447 6.35282L3.45455 4.18182ZM8.54545 8.08459C8.56701 8.07543 8.58838 8.06615 8.60955 8.05674C8.96122 7.90044 9.29083 7.69549 9.54238 7.43118C9.79748 7.16311 10 6.80111 10 6.36364C10 5.96197 9.67439 5.63636 9.27273 5.63636C8.87468 5.63636 8.55132 5.95614 8.54553 6.35282L8.54545 8.08459ZM8.54545 8.08459V8.53481C8.54062 8.5457 8.52632 8.57073 8.48871 8.61025C8.40903 8.69397 8.25937 8.80246 8.0188 8.90938C7.53948 9.12241 6.82634 9.27273 6 9.27273C5.17366 9.27273 4.46052 9.12241 3.98121 8.90938C3.74063 8.80246 3.59097 8.69397 3.51129 8.61025C3.47368 8.57073 3.45939 8.5457 3.45455 8.53481V8.08459C4.15111 8.38052 5.04831 8.54545 6 8.54545C6.95169 8.54545 7.84889 8.38052 8.54545 8.08459Z" fill="#2870FA"/>
<path fill-rule="evenodd" clip-rule="evenodd" d="M8.60955 8.05674C8.96122 7.90044 9.29083 7.69549 9.54238 7.43118C9.79748 7.16311 10 6.80111 10 6.36364C10 5.96197 9.67439 5.63636 9.27273 5.63636C8.87468 5.63636 8.55132 5.95614 8.54553 6.35282L8.54545 8.08459C8.56701 8.07543 8.58838 8.06615 8.60955 8.05674Z" fill="#2870FA"/>
<path fill-rule="evenodd" clip-rule="evenodd" d="M12.1818 3.45455C12.1818 3.05288 12.5074 2.72727 12.9091 2.72727H15.0909C16.2959 2.72727 17.2727 3.7041 17.2727 4.90909V7.09091C17.2727 7.49257 16.9471 7.81818 16.5455 7.81818C16.1438 7.81818 15.8182 7.49257 15.8182 7.09091V4.90909C15.8182 4.50743 15.4926 4.18182 15.0909 4.18182H12.9091C12.5074 4.18182 12.1818 3.85621 12.1818 3.45455Z" fill="#2870FA"/>
<path fill-rule="evenodd" clip-rule="evenodd" d="M3.45455 12.1818C3.85621 12.1818 4.18182 12.5074 4.18182 12.9091V15.0909C4.18182 15.4926 4.50743 15.8182 4.90909 15.8182H7.09091C7.49257 15.8182 7.81818 16.1438 7.81818 16.5455C7.81818 16.9471 7.49257 17.2727 7.09091 17.2727H4.90909C3.7041 17.2727 2.72727 16.2959 2.72727 15.0909V12.9091C2.72727 12.5074 3.05288 12.1818 3.45455 12.1818Z" fill="#2870FA"/>
<path fill-rule="evenodd" clip-rule="evenodd" d="M12.1816 3.45384C12.1816 3.05217 12.5072 2.72656 12.9089 2.72656H15.0907C16.2957 2.72656 17.2725 3.70339 17.2725 4.90838V7.0902C17.2725 7.49186 16.9469 7.81747 16.5452 7.81747C16.1436 7.81747 15.818 7.49186 15.818 7.0902V4.90838C15.818 4.50672 15.4923 4.18111 15.0907 4.18111H12.9089C12.5072 4.18111 12.1816 3.8555 12.1816 3.45384Z" fill="#63B9FF"/>
<path fill-rule="evenodd" clip-rule="evenodd" d="M3.45432 12.1811C3.85599 12.1811 4.1816 12.5067 4.1816 12.9084V15.0902C4.1816 15.4919 4.50721 15.8175 4.90887 15.8175H7.09069C7.49235 15.8175 7.81796 16.1431 7.81796 16.5447C7.81796 16.9464 7.49235 17.272 7.09069 17.272H4.90887C3.70388 17.272 2.72705 16.2952 2.72705 15.0902V12.9084C2.72705 12.5067 3.05266 12.1811 3.45432 12.1811Z" fill="#63B9FF"/>
</svg>
